<svg width="121" height="29" viewBox="0 0 121 29" fill="none" xmlns="http://www.w3.org/2000/svg">
<path fill-rule="evenodd" clip-rule="evenodd" d="M14.8703 28.8028V21.9763C14.8703 21.9763 13.9006 22.0153 13.9006 18.0755C13.9006 17.4611 14.7879 16.8175 15.3794 16.442C16.9067 15.4668 16.6739 12.7119 17.2945 12.7119C18.9527 12.7119 18.7491 11.1905 18.7491 10.2738C18.7491 9.22062 17.2945 10.2738 17.2945 10.2738V4.42261H5.65817V10.2738C5.65817 10.2738 4.20363 9.56195 4.20363 10.7614C4.20363 11.4685 3.92242 12.2243 5.17332 12.7119C6.14302 13.0922 6.77817 14.95 7.21938 16.0276C7.6606 17.1052 8.95514 17.1344 8.95514 18.0853C8.95514 21.6009 8.08241 21.9861 8.08241 21.9861V28.8125L14.8703 28.8028Z" fill="white"/>
<path fill-rule="evenodd" clip-rule="evenodd" d="M12.446 28.8028H14.8703V21.9763C14.8703 21.9763 13.9006 22.0153 13.9006 18.0755C13.9006 17.4611 14.7879 16.8175 15.3794 16.442C16.9067 15.4668 16.6739 12.7119 17.2945 12.7119C18.9527 12.7119 18.7491 11.1905 18.7491 10.2738C18.7491 9.22062 17.2945 10.2738 17.2945 10.2738L17.3527 9.88864L17.2945 4.42261H13.4157C13.4157 4.42261 15.4909 7.30434 15.3551 10.7615C15.2533 13.3214 13.343 16.5347 11.9612 17.5879C11.6315 17.8366 12.446 28.8028 12.446 28.8028Z" fill="#F1EEE9"/>
<path fill-rule="evenodd" clip-rule="evenodd" d="M17.8666 9.9618C17.8666 9.9618 20.6981 1.0094 10.9915 1.0094C8.90178 1.0094 7.18057 1.65791 6.37572 2.52585C5.86178 3.07684 6.01208 3.72047 5.74542 4.33485C5.26057 5.43196 4.67875 5.627 4.71754 6.64122C4.78109 7.77657 4.9155 8.90678 5.11996 10.0252C5.11996 10.0983 5.54663 10.3714 5.65814 10.308C5.76966 10.2446 5.65814 9.8594 5.70663 9.76188C5.85693 8.51849 5.70663 4.91023 8.08239 4.91023C9.11996 4.91023 10.3709 6.01221 11.4763 5.88543C12.446 5.76841 13.4642 4.91023 14.3854 4.91023C16.4169 4.91023 16.8921 8.45998 17.2945 9.78626C17.311 9.91413 17.311 10.0436 17.2945 10.1715C17.2945 10.2544 17.2945 10.2397 17.2945 10.2739C17.2945 10.308 17.7309 10.0106 17.8666 9.9618Z" fill="#39322B"/>
<path fill-rule="evenodd" clip-rule="evenodd" d="M8.07759 9.16211C7.5762 9.1024 7.08618 8.96934 6.62305 8.76715C6.80654 8.57404 7.0391 8.43514 7.29551 8.36551C7.55192 8.29589 7.82239 8.2982 8.07759 8.37219C8.98426 8.58186 10.2012 8.85979 10.017 9.16211C9.86183 9.39128 8.76608 9.26938 8.07759 9.16211Z" fill="#39322B"/>
<path fill-rule="evenodd" clip-rule="evenodd" d="M14.8751 9.16211C15.3765 9.1024 15.8665 8.96934 16.3297 8.76715C16.1462 8.57404 15.9136 8.43514 15.6572 8.36551C15.4008 8.29589 15.1303 8.2982 14.8751 8.37219C13.9685 8.58186 12.7515 8.85979 12.9357 9.16211C13.0909 9.39128 14.1867 9.26938 14.8751 9.16211Z" fill="#39322B"/>
<path fill-rule="evenodd" clip-rule="evenodd" d="M11.4618 13.6871C12.4315 13.6871 12.4315 13.3994 12.4315 13.3994V13.9309C12.4315 13.9956 12.406 14.0576 12.3605 14.1033C12.3151 14.149 12.2534 14.1747 12.1891 14.1747H10.7491C10.6848 14.1747 10.6231 14.149 10.5777 14.1033C10.5322 14.0576 10.5067 13.9956 10.5067 13.9309V13.4092C10.5067 13.4092 10.4873 13.6871 11.4618 13.6871Z" fill="#F1EEE9"/>
<path fill-rule="evenodd" clip-rule="evenodd" d="M14.8703 25.8772V28.8028H8.0824V25.8772C8.0824 25.8772 9.823 28.3152 11.4763 28.3152C13.2121 28.3152 14.8703 25.8772 14.8703 25.8772Z" fill="#BED6CE"/>
<path fill-rule="evenodd" clip-rule="evenodd" d="M8.0824 21.9763C7.3089 22.3824 6.49673 22.7091 5.65816 22.9515C4.38786 23.3172 2.87998 23.4391 1.77937 24.4143C0.324829 25.687 0.324829 28.8028 0.324829 28.8028H8.0824V21.9763Z" fill="#009F90"/>
<path fill-rule="evenodd" clip-rule="evenodd" d="M14.8703 21.9763C15.6438 22.3824 16.456 22.7091 17.2945 22.9515C18.5648 23.3172 20.0727 23.4391 21.1733 24.4143C22.6279 25.687 22.6279 28.8028 22.6279 28.8028H14.8703V21.9763Z" fill="#009F90"/>
<path fill-rule="evenodd" clip-rule="evenodd" d="M8.08238 21.9763C8.08238 21.9763 6.54541 22.2786 6.14299 22.9515C5.82784 23.4781 6.62784 24.4143 6.62784 24.4143V25.8771C6.62784 25.8771 5.65814 26.394 5.65814 26.8524C5.65814 27.3107 6.37572 27.7495 6.62784 28.125C6.69778 28.224 6.73535 28.3424 6.73535 28.4639C6.73535 28.5853 6.69778 28.7038 6.62784 28.8028H8.08238V21.9763Z" fill="#006C71"/>
<path fill-rule="evenodd" clip-rule="evenodd" d="M14.8703 21.9763C14.8703 21.9763 16.4073 22.2786 16.8097 22.9515C17.1248 23.4781 16.3248 24.4143 16.3248 24.4143V25.8771C16.3248 25.8771 17.2945 26.394 17.2945 26.8524C17.2945 27.3107 16.5673 27.7495 16.3394 28.125C16.2695 28.224 16.2319 28.3424 16.2319 28.4639C16.2319 28.5853 16.2695 28.7038 16.3394 28.8028H14.8848L14.8703 21.9763Z" fill="#006C71"/>
<path d="M31.1272 24.9018C32.6 24.9018 33.7939 22.5005 33.7939 19.5382C33.7939 16.5759 32.6 14.1746 31.1272 14.1746C29.6545 14.1746 28.4606 16.5759 28.4606 19.5382C28.4606 22.5005 29.6545 24.9018 31.1272 24.9018Z" fill="#39322B"/>
<path d="M39.3697 24.9018C40.8424 24.9018 42.0363 22.5005 42.0363 19.5382C42.0363 16.5759 40.8424 14.1746 39.3697 14.1746C37.8969 14.1746 36.703 16.5759 36.703 19.5382C36.703 22.5005 37.8969 24.9018 39.3697 24.9018Z" fill="#39322B"/>
<path fill-rule="evenodd" clip-rule="evenodd" d="M40.097 7.83582L30.4 9.78623C30.4 9.78623 29.9151 11.3076 30.4 14.6623C30.5067 15.3693 31.3018 16.0909 31.8545 16.6127C32.4073 17.1344 32.8242 16.9491 32.8242 20.0259C32.8242 23.1027 30.0606 22.6443 27.4909 23.9267C25.0667 25.136 25.0667 28.8028 25.0667 28.8028H45.9151C45.9151 28.8028 45.6048 24.8337 43.9757 23.9267C41.8376 22.7321 37.6727 23.561 37.6727 20.0259C37.6727 18.1437 37.6339 17.7537 38.6424 16.6127C38.977 16.2323 39.9951 15.6375 40.097 15.1499C40.5527 12.7334 40.5527 10.2523 40.097 7.83582Z" fill="white"/>
<path fill-rule="evenodd" clip-rule="evenodd" d="M35.7333 28.8028H45.9152C45.9152 28.8028 45.6049 24.8337 43.9758 23.9267C41.8376 22.7321 37.6727 23.561 37.6727 20.0259C37.6727 18.1437 37.6339 17.7537 38.6424 16.6127C38.977 16.2323 39.9952 15.6375 40.097 15.1499C40.4364 13.2287 41.1394 10.1373 40.7467 8.23565C40.64 7.71879 39.777 8.33805 39.6121 7.83582C39.6121 7.83582 40.1939 10.3762 38.9333 13.7992C38.2788 15.5741 35.84 16.9686 35.84 18.5826C35.84 24.3217 35.7333 28.8028 35.7333 28.8028Z" fill="#F1EEE9"/>
<path fill-rule="evenodd" clip-rule="evenodd" d="M41.5515 23.4391C41.5515 23.4391 44.4606 20.3672 44.4606 17.1003C44.4606 13.5359 42.8412 12.9751 43.006 10.7614C43.4472 4.78827 41.1248 1.49695 35.2484 1.49695C28.9454 1.49695 26.7927 5.71959 27.4909 11.249C27.6993 12.8922 26.0363 13.6431 26.0363 16.125C26.0363 20.1136 28.9454 23.4391 28.9454 23.4391C28.9454 23.4391 29.9151 22.8735 30.0218 22.025C30.1284 21.1766 29.2945 20.0064 29.566 18.8556C29.9151 17.3928 30.7345 16.1787 30.8848 14.6622C31.1127 12.39 30.0751 10.2738 30.4 10.2738C31.6363 10.2738 34.846 11.1905 36.703 10.2738C38.56 9.35711 39.5248 7.55786 40.1357 8.4843C40.5333 9.10844 39.3551 12.1462 40.126 15.9349C40.383 17.227 40.9503 18.3729 41.0278 19.8601C41.0812 20.9279 40.5818 21.3229 40.5818 21.986C40.5818 23.522 41.5515 23.4391 41.5515 23.4391Z" fill="#009F90"/>
<path fill-rule="evenodd" clip-rule="evenodd" d="M37.1879 15.301C36.5527 15.0523 35.9176 14.6622 35.2485 14.6622C34.5794 14.6622 33.9491 15.0523 33.3091 15.301C33.3091 15.301 34.5115 16.6126 35.2485 16.6126C35.9854 16.6126 37.1879 15.301 37.1879 15.301Z" fill="#39322B"/>
<path fill-rule="evenodd" clip-rule="evenodd" d="M32.3394 23.9268L29.9152 28.8028H41.5515L38.6424 23.9268H32.3394Z" fill="#006C71"/>
<path fill-rule="evenodd" clip-rule="evenodd" d="M31.6848 22.3859L30.7151 22.8198C30.7151 22.8198 33.1636 24.9019 35.4618 24.9019C37.76 24.9019 40.1503 22.893 40.1503 22.893L39.0642 22.4834C39.0642 22.4834 37.0279 23.4586 35.4424 23.4586C33.857 23.4586 31.6848 22.3859 31.6848 22.3859Z" fill="#009F90"/>
<path fill-rule="evenodd" clip-rule="evenodd" d="M63.84 28.8027C63.84 28.8027 65.2946 25.9258 65.2946 23.9266C65.2946 23.0831 63.84 21.9762 63.84 21.9762C63.84 21.9762 62.8703 22.0152 62.8703 18.0754C62.8703 17.461 63.7576 16.8174 64.3491 16.4419C65.8764 15.4667 65.6437 12.7117 66.2643 12.7117C67.9224 12.7117 67.7188 11.1904 67.7188 10.2737C67.7188 9.2205 66.2643 10.2737 66.2643 10.2737V4.42249H54.6279V10.2737C54.6279 10.2737 53.1734 9.56182 53.1734 10.7613C53.1734 11.4684 52.8921 12.2241 54.1431 12.7117C55.1127 13.0921 55.7479 14.9498 56.1891 16.0274C56.6303 17.105 57.9249 17.1343 57.9249 18.0851C57.9249 21.6008 57.0521 21.986 57.0521 21.986C57.0521 21.986 55.1127 23.1269 55.1127 23.4488C55.1127 25.0335 57.0521 28.8124 57.0521 28.8124L63.84 28.8027Z" fill="white"/>
<path fill-rule="evenodd" clip-rule="evenodd" d="M60.4461 28.8027H63.84C63.84 28.8027 65.2946 25.3212 65.2946 23.439C65.2946 22.8539 63.84 21.9762 63.84 21.9762C63.84 21.9762 62.8703 22.0152 62.8703 18.0754C62.8703 17.461 63.7576 16.8174 64.3491 16.4419C65.8764 15.4667 65.6437 12.7117 66.2643 12.7117C67.9224 12.7117 67.7188 11.1904 67.7188 10.2737C67.7188 9.2205 66.2643 10.2737 66.2643 10.2737V4.42249H62.3855C62.9868 6.64917 63.3125 8.94199 63.3552 11.2489C63.3552 15.6374 62.3128 16.5346 60.9309 17.5878C60.5728 18.3481 60.4063 19.1854 60.4461 20.0258V28.8027Z" fill="#F1EEE9"/>
<path fill-rule="evenodd" clip-rule="evenodd" d="M54.6715 9.73253C54.623 9.85443 54.72 10.1519 54.623 10.2201C54.5261 10.2884 54.2061 10.0982 54.1382 10.0787C53.9283 8.92436 53.7859 7.75862 53.7115 6.58749C53.6679 5.57815 54.2594 5.37824 54.7345 4.28113C55.0012 3.66675 54.8509 3.02799 55.3648 2.47212C56.1697 1.60419 57.8909 -0.0195312 59.9806 -0.0195312C64.0873 -0.0195312 65.9345 1.81386 66.7006 3.93006C66.7293 4.05555 66.7997 4.16745 66.9002 4.24724C67.0007 4.32704 67.1253 4.36995 67.2533 4.3689C67.8012 4.40303 68.7079 4.07146 68.7079 4.3689C68.7079 5.04667 67.1273 5.16369 67.1273 5.86096C67.1273 6.34857 68.223 5.63667 68.223 5.83171C68.223 6.31931 67.1273 6.86543 67.0788 7.29452C67.0303 7.72361 67.3648 8.1722 67.2533 8.75733C67.1162 9.09413 66.9541 9.42011 66.7685 9.73253C66.7685 9.73253 66.4291 10.2201 66.2836 10.2201C66.2157 10.2201 66.2836 9.83493 66.2836 9.73253C66.2836 7.23113 65.1054 8.11857 64.3442 7.78212C63.6217 7.3419 62.9682 6.79635 62.4048 6.16328C61.76 5.45138 61.4012 4.77848 60.2036 4.77848C59.3939 4.77848 58.4097 5.14906 57.5273 5.29534C56.9018 5.39774 56.3879 5.2027 55.8933 5.63179C55.3988 6.06088 54.7151 9.36683 54.6715 9.73253Z" fill="#009F90"/>
<path fill-rule="evenodd" clip-rule="evenodd" d="M65.7794 13.1993C65.4221 13.2816 65.0896 13.4488 64.8097 13.6869C64.4073 13.9893 63.937 14.5451 63.3552 14.6622C62.4243 14.8474 62.3855 14.1745 60.2037 14.1745C58.0218 14.1745 57.983 14.8426 57.0521 14.6622C56.5043 14.55 55.9903 13.9698 55.5976 13.6869C55.3178 13.4488 54.9852 13.2816 54.6279 13.1993C54.4534 13.2877 54.3119 13.4303 54.2246 13.606C54.1372 13.7818 54.1086 13.9812 54.143 14.1745C54.7103 16.0762 57.0133 20.0258 60.1843 20.0258C63.3552 20.0258 65.6921 16.0664 66.2643 14.1745C66.2971 13.9813 66.2678 13.7825 66.1806 13.6071C66.0934 13.4317 65.9529 13.2889 65.7794 13.1993ZM60.2037 15.1498C61.6582 15.1498 62.8703 15.1498 62.8703 15.6374C62.7625 15.8794 62.5942 16.0893 62.3818 16.2465C62.1694 16.4038 61.9201 16.503 61.6582 16.5345C61.2412 16.5833 60.9406 16.1152 60.2037 16.125C59.4667 16.1347 59.1612 16.5833 58.7491 16.5297C58.4883 16.5007 58.2396 16.403 58.0285 16.2463C57.8173 16.0896 57.6511 15.8795 57.5467 15.6374C57.537 15.1595 58.7491 15.1498 60.2037 15.1498Z" fill="#39322B"/>
<path fill-rule="evenodd" clip-rule="evenodd" d="M57.0473 9.6497C55.9855 9.47904 55.1079 9.24499 55.1079 9.25474C55.6886 8.89923 56.3748 8.75948 57.0473 8.85978C57.954 9.06945 59.1709 9.34738 58.9867 9.6497C58.8316 9.87887 57.7358 9.75697 57.0473 9.6497Z" fill="#39322B"/>
<path fill-rule="evenodd" clip-rule="evenodd" d="M63.8449 9.6497C64.9067 9.47904 65.7843 9.24499 65.7843 9.25474C65.2035 8.89923 64.5174 8.75948 63.8449 8.85978C62.9382 9.06945 61.7212 9.34738 61.9055 9.6497C62.0606 9.87887 63.1564 9.75697 63.8449 9.6497Z" fill="#39322B"/>
<path fill-rule="evenodd" clip-rule="evenodd" d="M64.8097 22.4639C65.2704 22.6918 65.7597 22.8558 66.2643 22.9515C67.5346 23.3172 69.0424 23.4391 70.143 24.4143C71.5976 25.6869 71.5976 28.8027 71.5976 28.8027H49.2946C49.2946 28.8027 49.2946 25.6869 50.7491 24.4143C51.8352 23.4391 53.343 23.3416 54.6279 22.9515C55.1324 22.8558 55.6217 22.6918 56.0824 22.4639C56.0824 22.4639 57.0521 27.8275 60.2764 27.8275C63.8206 27.8275 64.8097 22.4639 64.8097 22.4639Z" fill="#006C71"/>
<path fill-rule="evenodd" clip-rule="evenodd" d="M80.8242 16.125L77.9152 23.9266L86.6424 22.9514L87.1273 21.001L89.5515 16.6126L90.0364 14.1746L80.8242 16.125Z" fill="#39322B"/>
<path fill-rule="evenodd" clip-rule="evenodd" d="M89.0667 7.83588C89.0667 7.83588 88.2085 5.08092 87.0012 5.32473C84.1552 5.89522 79.3697 9.7863 79.3697 9.7863C79.3697 9.7863 78.8849 11.3076 79.3697 14.6623C79.4764 15.3694 80.2715 16.091 80.8243 16.6127C81.377 17.1345 81.794 16.9492 81.794 20.026C81.794 23.1027 79.0303 22.6444 76.4606 23.9268C74.0364 25.136 74.0364 28.8028 74.0364 28.8028H94.8849C94.8849 28.8028 94.5746 24.8337 92.9455 23.9268C90.8073 22.7322 86.6424 23.5611 86.6424 20.026C86.6424 18.1438 86.6037 17.7537 87.6121 16.6127C87.9467 16.2324 88.9649 15.6375 89.0667 15.1499C89.5224 12.7335 89.5224 10.2524 89.0667 7.83588Z" fill="white"/>
<path fill-rule="evenodd" clip-rule="evenodd" d="M90.5213 13.6871C90.3596 11.7366 90.198 9.78623 90.0364 7.83582C90.0364 7.83582 88.9455 5.84152 88 5.09549C87.2728 4.52011 86.6328 5.09549 86.6425 5.3978C86.6861 6.46078 88.1649 11.7805 87.4182 13.7992C86.7637 15.5741 84.8146 16.9686 84.8146 18.5826C84.8146 24.3217 84.7031 28.8223 84.7031 28.8223H94.8849C94.8849 28.8223 94.5746 24.8532 92.9455 23.9462C90.8073 22.7516 86.6425 23.5805 86.6425 20.0454C86.5375 19.2933 86.6005 18.5271 86.8267 17.8024C87.0075 17.3631 87.2747 16.9651 87.6122 16.6322C88.0485 16.1933 88.9697 15.7496 89.4061 15.3108C89.9394 14.7549 89.9879 14.2234 90.5213 13.6871Z" fill="#F1EEE9"/>
<path fill-rule="evenodd" clip-rule="evenodd" d="M86.1576 15.301C85.5225 15.0523 84.8631 14.6622 84.2182 14.6622C83.5734 14.6622 82.9188 15.0523 82.2788 15.301C82.2788 15.301 83.4812 16.6126 84.2182 16.6126C84.9552 16.6126 86.1576 15.301 86.1576 15.301Z" fill="#39322B"/>
<path fill-rule="evenodd" clip-rule="evenodd" d="M87.5054 9.83489C87.8599 9.76518 88.2207 9.73412 88.5818 9.74224C88.3983 9.54913 88.1657 9.41023 87.9093 9.34061C87.6529 9.27099 87.3824 9.27329 87.1273 9.34729C86.2206 9.55696 85.4739 10.3225 85.6727 10.6248C85.8424 10.8442 86.8703 9.90315 87.5054 9.83489Z" fill="#39322B"/>
<path fill-rule="evenodd" clip-rule="evenodd" d="M87.1273 21.9763C88.7752 19.9644 89.9814 17.6247 90.6667 15.1108C92.2473 9.32786 91.9127 1.49695 83.7333 1.49695C71.5394 1.49695 77.9151 23.4391 77.9151 23.4391C78.1509 23.4232 78.3777 23.3425 78.571 23.2058C78.7642 23.0691 78.9164 22.8816 79.0109 22.6638C79.4521 21.7764 79.5442 20.4257 80.2473 18.8946C81.5478 16.2245 83.1069 13.6897 84.9018 11.327C86.3321 9.40587 87.2291 6.86058 87.6121 6.86058C88.4364 6.86058 89.2994 9.0743 89.2994 13.1994C89.2994 15.9934 87.7188 18.8117 86.9382 20.4793C86.806 20.7163 86.7531 20.9897 86.7871 21.2592C86.8212 21.5287 86.9404 21.7801 87.1273 21.9763Z" fill="#ABAAA5"/>
<path fill-rule="evenodd" clip-rule="evenodd" d="M81.7939 21.4886C82.57 21.7835 83.389 21.9482 84.2182 21.9763C85.047 21.9451 85.8654 21.7805 86.6424 21.4886L87.1273 21.9763C85.2415 22.6249 83.1948 22.6249 81.3091 21.9763L81.7939 21.4886Z" fill="#39322B"/>
<path fill-rule="evenodd" clip-rule="evenodd" d="M84.703 28.8028C84.703 28.8028 84.2182 26.3647 81.0861 26.3647C77.9539 26.3647 77.4303 28.8028 77.4303 28.8028H84.703Z" fill="#006C71"/>
<path fill-rule="evenodd" clip-rule="evenodd" d="M91.4909 28.8028C91.4909 28.8028 91.0061 26.3647 87.874 26.3647C84.7418 26.3647 84.2182 28.8028 84.2182 28.8028H91.4909Z" fill="#006C71"/>
<path fill-rule="evenodd" clip-rule="evenodd" d="M114.749 12.7119C114.129 12.7119 114.361 15.4668 112.834 16.442C112.242 16.8175 111.355 17.4611 111.355 18.0755C111.355 22.0153 112.325 21.9763 112.325 21.9763V28.8028H97.7794C97.7794 28.8028 97.7794 25.687 99.234 24.4143C100.32 23.4391 101.828 23.3416 103.113 22.9515C103.951 22.7091 104.763 22.3824 105.537 21.9763C105.537 21.9763 106.41 21.6009 106.41 18.0755C106.41 17.1247 105.091 17.0418 104.674 16.0178C104.257 14.9938 103.583 13.0922 102.628 12.7021C101.377 12.2145 101.658 11.4587 101.658 10.7517C101.658 9.55218 103.113 10.2641 103.113 10.2641V4.41284H114.749V10.2641C114.749 10.2641 116.204 9.21086 116.204 10.2641C116.204 11.1905 116.407 12.7119 114.749 12.7119Z" fill="white"/>
<path fill-rule="evenodd" clip-rule="evenodd" d="M112.325 28.8028H109.416C109.416 28.8028 109.086 17.8366 109.416 17.5879C110.798 16.5347 112.708 13.3214 112.81 10.7615C112.945 7.30434 110.87 4.42261 110.87 4.42261H114.749V10.2738C114.749 10.2738 116.204 9.22062 116.204 10.2738C116.204 11.1905 116.407 12.7119 114.749 12.7119C114.128 12.7119 114.361 15.4668 112.834 16.442C112.242 16.8175 111.355 17.4611 111.355 18.0755C111.355 22.0153 112.325 21.9763 112.325 21.9763C113.098 22.3824 113.911 22.7091 114.749 22.9515C116.019 23.3172 117.527 23.4391 118.628 24.4143C120.082 25.687 120.082 28.8028 120.082 28.8028H112.325Z" fill="#F1EEE9"/>
<path fill-rule="evenodd" clip-rule="evenodd" d="M114.749 9.78626C114.749 10.0544 114.642 10.308 114.909 10.308C115.211 10.1902 115.486 10.0128 115.719 9.78626C116.057 9.01956 116.223 8.18695 116.204 7.34824C116.155 6.93866 116.688 7.15808 116.688 6.86064C116.688 5.43684 116.335 6.72899 116.204 6.37304C116.015 5.86105 115.884 4.91023 115.719 4.42262C114.899 2.05287 113.779 2.57461 113.295 1.98461C113.091 1.7213 113.115 1.0094 112.325 1.0094C112.087 1.0094 112.325 1.98461 112.325 1.98461C112.325 1.98461 110.385 0.302375 105.537 1.497C102.948 2.13089 102.08 3.88626 101.794 5.10527C101.697 5.51485 101.173 4.87122 101.173 6.37304C101.173 6.5437 101.658 5.88543 101.658 5.88543C101.585 6.69646 101.585 7.51242 101.658 8.32345C101.716 8.83982 101.881 9.33818 102.143 9.78626C102.255 10.0106 102.444 10.0593 102.676 10.1471C102.788 10.1861 103.04 10.3568 103.113 10.2739C103.185 10.191 103.074 9.88866 103.113 9.78626C103.113 9.78626 103.316 9.8594 104.179 9.47419C104.941 9.13287 105.353 8.81105 106.022 8.81105C106.337 8.81105 107.588 8.27957 107.03 8.6794C106.604 8.98659 105.765 9.2694 106.022 9.29866C106.73 9.37667 108.247 8.99634 109.348 8.48436C110.036 8.16742 110.269 7.79684 110.953 7.45552C111.341 7.26047 111.714 7.54328 112.068 7.32874C112.975 6.77775 113.639 5.86593 113.779 5.86593C114.133 5.86593 113.881 6.60221 114.027 7.44089C114.191 8.24446 114.433 9.02998 114.749 9.78626Z" fill="#39322B"/>
<path fill-rule="evenodd" clip-rule="evenodd" d="M105.532 9.64966C105.031 9.58995 104.541 9.45689 104.078 9.2547C104.261 9.06158 104.494 8.92269 104.75 8.85306C105.006 8.78344 105.277 8.78575 105.532 8.85974C106.439 9.06941 107.656 9.34734 107.472 9.64966C107.316 9.87883 106.221 9.75693 105.532 9.64966Z" fill="#39322B"/>
<path fill-rule="evenodd" clip-rule="evenodd" d="M112.33 9.64966C112.831 9.58995 113.321 9.45689 113.784 9.2547C113.601 9.06158 113.368 8.92269 113.112 8.85306C112.855 8.78344 112.585 8.78575 112.33 8.85974C111.423 9.06941 110.206 9.34734 110.39 9.64966C110.545 9.87883 111.641 9.75693 112.33 9.64966Z" fill="#39322B"/>
<path fill-rule="evenodd" clip-rule="evenodd" d="M108.916 14.6623C109.886 14.6623 109.886 14.3795 109.886 14.3795V14.9061C109.886 14.9708 109.861 15.0328 109.815 15.0785C109.77 15.1242 109.708 15.1499 109.644 15.1499H108.189C108.125 15.1499 108.063 15.1242 108.018 15.0785C107.972 15.0328 107.947 14.9708 107.947 14.9061V14.3795C107.947 14.3795 107.942 14.6623 108.916 14.6623Z" fill="#F1EEE9"/>
<path fill-rule="evenodd" clip-rule="evenodd" d="M106.022 21.0011L108.446 22.9515H109.416L111.84 21.0011L113.295 22.4639L111.84 25.3895L109.901 23.4391H107.961L106.022 25.3895L104.567 22.4639L106.022 21.0011Z" fill="#009F90"/>
<path fill-rule="evenodd" clip-rule="evenodd" d="M107.961 23.4391L108.446 22.9515H109.416L109.901 23.4391V23.9267L109.416 24.4143L110.385 28.8028H107.476L108.446 24.4143L107.961 23.9267V23.4391Z" fill="#006C71"/>
</svg>
