<svg width="3" height="16" viewBox="0 0 3 16" fill="none" xmlns="http://www.w3.org/2000/svg">
<path d="M1.37202 3.2067C2.12983 3.2067 2.74414 2.58889 2.74414 1.82678C2.74414 1.06468 2.12983 0.446869 1.37202 0.446869C0.614222 0.446869 -9.15527e-05 1.06468 -9.15527e-05 1.82678C-9.15527e-05 2.58889 0.614222 3.2067 1.37202 3.2067Z" fill="#009F90"/>
<path d="M1.37202 9.54554C2.12983 9.54554 2.74414 8.92773 2.74414 8.16562C2.74414 7.40351 2.12983 6.78571 1.37202 6.78571C0.614222 6.78571 -9.15527e-05 7.40351 -9.15527e-05 8.16562C-9.15527e-05 8.92773 0.614222 9.54554 1.37202 9.54554Z" fill="#009F90"/>
<path d="M1.37202 15.8844C2.12983 15.8844 2.74414 15.2666 2.74414 14.5045C2.74414 13.7423 2.12983 13.1245 1.37202 13.1245C0.614222 13.1245 -9.15527e-05 13.7423 -9.15527e-05 14.5045C-9.15527e-05 15.2666 0.614222 15.8844 1.37202 15.8844Z" fill="#009F90"/>
</svg>
