<svg width="40" height="40" viewBox="0 0 40 40" fill="none" xmlns="http://www.w3.org/2000/svg">
<path d="M0 0V40H40V0H0Z" fill="#E75428"/>
<path d="M32.6506 38C33.8062 29.9017 32.2384 20.2014 25.7927 13.9747C19.3522 7.75273 9.37766 6.22506 1 7.33151V7.33622C9.08209 7.24989 16.3373 11.4971 22.402 17.3524C28.473 23.2126 32.7532 30.1822 32.6506 38Z" fill="white"/>
<path d="M6.23403 26H8.76986V19.6601H11V17H4V19.6601H6.23403V26Z" fill="white"/>
<path d="M10 31H12.1013V24.7154H12.1666L13.4038 31H15.4581L16.731 24.7154H16.7887V31H19V23H15.3489L14.547 27.3757H14.5023L13.6618 23H10V31Z" fill="white"/>
<path d="M25.0706 36H28L25.6375 31.752L27.7987 28H25.0058L23.4921 31.1468H23.456V28H21V36H23.456V32.6087H23.4921L25.0706 36Z" fill="white"/>
</svg>
