<svg width="39" height="38" viewBox="0 0 39 38" fill="none" xmlns="http://www.w3.org/2000/svg">
<path d="M22 7H28V12H22V7Z" fill="#009F90"/>
<path d="M22 15H28V20H22V15Z" fill="#009F90"/>
<path d="M15 7H20V12H15V7Z" fill="#009F90"/>
<path d="M15 15H20V20H15V15Z" fill="#009F90"/>
<path d="M33 7H39V12H33V7Z" fill="#009F90"/>
<path d="M33 15H39V20H33V15Z" fill="#009F90"/>
<path d="M26 7H31V12H26V7Z" fill="#009F90"/>
<path d="M26 15H31V20H26V15Z" fill="#009F90"/>
<path d="M12 32C13.1046 32 14 31.1046 14 30C14 28.8954 13.1046 28 12 28C10.8954 28 10 28.8954 10 30C10 31.1046 10.8954 32 12 32Z" fill="#009F90"/>
<path d="M19.4118 38H2.58824C1.902 37.9993 1.24407 37.7131 0.758834 37.2042C0.273594 36.6953 0.000685205 36.0054 0 35.2857V2.71429C0.000685205 1.99463 0.273594 1.30466 0.758834 0.795789C1.24407 0.286918 1.902 0.000718575 2.58824 0H19.4118V2.71429H2.58824V35.2857H19.4118V24.4286H22V35.2857C21.9993 36.0054 21.7264 36.6953 21.2412 37.2042C20.7559 37.7131 20.098 37.9993 19.4118 38Z" fill="#009F90"/>
</svg>
