<svg width="41" height="41" viewBox="0 0 41 41" fill="none" xmlns="http://www.w3.org/2000/svg">
<g clip-path="url(#clip0_351_639)">
<path d="M26.1545 14.8458C30.939 19.6352 30.8733 27.3138 26.1833 32.0297C26.1745 32.0393 26.1641 32.0497 26.1545 32.0593L20.7733 37.4406C16.027 42.1868 8.30519 42.1862 3.55967 37.4406C-1.18656 32.6952 -1.18656 24.9724 3.55967 20.227L6.53105 17.2556C7.31902 16.4677 8.67603 16.9914 8.71671 18.1049C8.7686 19.5241 9.02309 20.9499 9.49266 22.3267C9.6517 22.793 9.53807 23.3087 9.18973 23.657L8.14175 24.705C5.89748 26.9492 5.82709 30.6035 8.04926 32.8697C10.2934 35.1583 13.9819 35.1719 16.2433 32.9106L21.6245 27.5301C23.882 25.2726 23.8725 21.6238 21.6245 19.3758C21.3281 19.08 21.0296 18.8502 20.7964 18.6896C20.6314 18.5763 20.4952 18.4261 20.3987 18.2508C20.3021 18.0755 20.2478 17.8801 20.2401 17.6801C20.2084 16.834 20.5082 15.962 21.1769 15.2933L22.8628 13.6073C23.3049 13.1652 23.9985 13.1109 24.5112 13.4687C25.0983 13.8786 25.6482 14.3394 26.1545 14.8458ZM37.4403 3.55943C32.6948 -1.18615 24.973 -1.1868 20.2267 3.55943L14.8455 8.94067C14.8359 8.95028 14.8255 8.96068 14.8167 8.97029C10.1268 13.6862 10.0611 21.3648 14.8455 26.1542C15.3518 26.6605 15.9017 27.1213 16.4888 27.5312C17.0014 27.889 17.6951 27.8347 18.1371 27.3926L19.8231 25.7066C20.4917 25.0379 20.7915 24.166 20.7598 23.3198C20.7522 23.1198 20.6979 22.9244 20.6013 22.7491C20.5047 22.5739 20.3685 22.4236 20.2035 22.3103C19.9703 22.1498 19.6718 21.9199 19.3754 21.6241C17.1274 19.3761 17.1179 15.7273 19.3754 13.4698L24.7567 8.08936C27.018 5.82803 30.7065 5.84165 32.9507 8.1302C35.1728 10.3964 35.1025 14.0507 32.8582 16.2949L31.8102 17.3429C31.4619 17.6913 31.3482 18.207 31.5073 18.6732C31.9768 20.05 32.2313 21.4758 32.2832 22.895C32.324 24.0085 33.6809 24.5322 34.4689 23.7443L37.4403 20.7729C42.1866 16.0276 42.1866 8.30485 37.4403 3.55943Z" fill="#009F90"/>
</g>
<defs>
<clipPath id="clip0_351_639">
<rect width="41" height="41" fill="white" transform="translate(0 -0.000488281)"/>
</clipPath>
</defs>
</svg>
