<svg width="79" height="75" viewBox="0 0 79 75" fill="none" xmlns="http://www.w3.org/2000/svg">
<path d="M74.2943 10.2611H66.3588V15.174H73.6839V69.2163H5.31614V15.174H12.6413V10.2611H4.70571C4.13493 10.2707 3.57162 10.3933 3.04796 10.622C2.52429 10.8506 2.05053 11.1808 1.65373 11.5937C1.25693 12.0066 0.944867 12.4941 0.735365 13.0283C0.525863 13.5626 0.423025 14.1331 0.432726 14.7073V69.6831C0.423025 70.2573 0.525863 70.8278 0.735365 71.3621C0.944867 71.8963 1.25693 72.3838 1.65373 72.7967C2.05053 73.2095 2.52429 73.5397 3.04796 73.7684C3.57162 73.997 4.13493 74.1197 4.70571 74.1293H74.2943C74.8651 74.1197 75.4284 73.997 75.9521 73.7684C76.4758 73.5397 76.9495 73.2095 77.3463 72.7967C77.7431 72.3838 78.0552 71.8963 78.2647 71.3621C78.4742 70.8278 78.577 70.2573 78.5673 69.6831V14.7073C78.577 14.1331 78.4742 13.5626 78.2647 13.0283C78.0552 12.4941 77.7431 12.0066 77.3463 11.5937C76.9495 11.1808 76.4758 10.8506 75.9521 10.622C75.4284 10.3933 74.8651 10.2707 74.2943 10.2611Z" fill="currentColor"/>
<path d="M15.0829 29.9128H19.9663V34.8258H15.0829V29.9128Z" fill="currentColor"/>
<path d="M29.7332 29.9128H34.6166V34.8258H29.7332V29.9128Z" fill="currentColor"/>
<path d="M44.3834 29.9128H49.2668V34.8258H44.3834V29.9128Z" fill="currentColor"/>
<path d="M59.0336 29.9128H63.917V34.8258H59.0336V29.9128Z" fill="currentColor"/>
<path d="M15.0829 42.1953H19.9663V47.1082H15.0829V42.1953Z" fill="currentColor"/>
<path d="M29.7332 42.1953H34.6166V47.1082H29.7332V42.1953Z" fill="currentColor"/>
<path d="M44.3834 42.1953H49.2668V47.1082H44.3834V42.1953Z" fill="currentColor"/>
<path d="M59.0336 42.1953H63.917V47.1082H59.0336V42.1953Z" fill="currentColor"/>
<path d="M15.0829 54.4775H19.9663V59.3905H15.0829V54.4775Z" fill="currentColor"/>
<path d="M29.7332 54.4775H34.6166V59.3905H29.7332V54.4775Z" fill="currentColor"/>
<path d="M44.3834 54.4775H49.2668V59.3905H44.3834V54.4775Z" fill="currentColor"/>
<path d="M59.0336 54.4775H63.917V59.3905H59.0336V54.4775Z" fill="currentColor"/>
<path d="M19.9664 20.087C20.6139 20.087 21.235 19.8282 21.6929 19.3676C22.1508 18.9069 22.4081 18.2821 22.4081 17.6306V2.89177C22.4081 2.24027 22.1508 1.61546 21.6929 1.15479C21.235 0.694108 20.6139 0.435303 19.9664 0.435303C19.3188 0.435303 18.6977 0.694108 18.2398 1.15479C17.7819 1.61546 17.5247 2.24027 17.5247 2.89177V17.6306C17.5247 18.2821 17.7819 18.9069 18.2398 19.3676C18.6977 19.8282 19.3188 20.087 19.9664 20.087Z" fill="currentColor"/>
<path d="M59.0337 20.087C59.6812 20.087 60.3023 19.8282 60.7602 19.3676C61.2181 18.9069 61.4754 18.2821 61.4754 17.6306V2.89177C61.4754 2.24027 61.2181 1.61546 60.7602 1.15479C60.3023 0.694108 59.6812 0.435303 59.0337 0.435303C58.3861 0.435303 57.765 0.694108 57.3071 1.15479C56.8492 1.61546 56.5919 2.24027 56.5919 2.89177V17.6306C56.5919 18.2821 56.8492 18.9069 57.3071 19.3676C57.765 19.8282 58.3861 20.087 59.0337 20.087Z" fill="currentColor"/>
<path d="M27.2915 10.2611H51.7085V15.174H27.2915V10.2611Z" fill="currentColor"/>
</svg>
