<svg width="76" height="72" viewBox="0 0 76 72"  xmlns="http://www.w3.org/2000/svg">
<path d="M22 61C24.2091 61 26 59.2091 26 57C26 54.7909 24.2091 53 22 53C19.7909 53 18 54.7909 18 57C18 59.2091 19.7909 61 22 61Z"/>
<path d="M38.8235 72H5.17647C3.80401 71.9986 2.48815 71.4564 1.51767 70.4922C0.547188 69.528 0.00137041 68.2207 0 66.8571V5.14286C0.00137041 3.7793 0.547188 2.47199 1.51767 1.50781C2.48815 0.543634 3.80401 0.00136151 5.17647 0H38.8235V5.14286H5.17647V66.8571H38.8235V56.5714H44V66.8571C43.9986 68.2207 43.4528 69.528 42.4823 70.4922C41.5119 71.4564 40.196 71.9986 38.8235 72Z"/>
<path d="M49.9194 40.9114C48.7893 40.7832 47.6777 40.5204 46.6072 40.1282C46.6398 39.3416 46.6594 38.5218 46.6594 37.6685V37.4019V36.5454C47.67 37.0386 48.7686 37.3819 49.9194 37.5519V29.3364C49.9194 28.0105 50.4346 26.7389 51.3517 25.8013C52.2688 24.8638 53.5126 24.3371 54.8095 24.3371H62.8456C62.5856 22.4903 61.8961 20.7342 60.8349 19.2162C59.7738 17.6982 58.3719 16.4626 56.747 15.6131C55.1221 14.7635 53.3215 14.3249 51.4965 14.3339C49.6715 14.3429 47.8752 14.7994 46.2584 15.665C46.0005 14.5749 45.5758 13.5333 45 12.5787C47.1134 11.5003 49.4503 10.9595 51.8119 11.0024C54.1736 11.0452 56.4902 11.6704 58.5649 12.8248C60.6395 13.9792 62.4109 15.6287 63.7283 17.633C65.0457 19.6373 65.8702 21.9371 66.1318 24.3371H71.1099C72.4068 24.3371 73.6506 24.8638 74.5677 25.8013C75.4848 26.7389 76 28.0105 76 29.3364V46.0007C76 47.3266 75.4848 48.5982 74.5677 49.5357C73.6506 50.4733 72.4068 51 71.1099 51H54.8095C53.5126 51 52.2688 50.4733 51.3517 49.5357C50.4346 48.5982 49.9194 47.3266 49.9194 46.0007V40.9114ZM66.1318 27.6699C65.7614 31.0515 64.2777 34.2039 61.9242 36.6099C59.5707 39.0159 56.4872 40.5327 53.1795 40.9114V46.0007C53.1795 46.4427 53.3512 46.8665 53.6569 47.1791C53.9626 47.4916 54.3772 47.6671 54.8095 47.6671H71.1099C71.5422 47.6671 71.9568 47.4916 72.2625 47.1791C72.5682 46.8665 72.7399 46.4427 72.7399 46.0007V29.3364C72.7399 28.8944 72.5682 28.4705 72.2625 28.158C71.9568 27.8455 71.5422 27.6699 71.1099 27.6699H66.1318ZM62.8456 27.6699H54.8095C54.3772 27.6699 53.9626 27.8455 53.6569 28.158C53.3512 28.4705 53.1795 28.8944 53.1795 29.3364V37.5519C55.618 37.1916 57.877 36.0344 59.6192 34.2534C61.3613 32.4723 62.4932 30.1629 62.8456 27.6699Z"/>
<path d="M42.3337 29.5573C41.9925 28.289 41.44 27.0174 40.491 26.0416C42.025 24.5728 43 22.2334 43 19.4996C43 17.2095 42.5417 15.6356 41.713 14.3772C41.3453 13.8359 40.9203 13.3368 40.4455 12.8887C40.2635 12.7111 40.0794 12.5359 39.893 12.363C39.6948 12.1757 39.5128 12.0049 39.2755 11.765C38.788 11.2721 38.7327 10.8778 38.7327 10.6708C38.7333 10.5558 38.7519 10.4415 38.788 10.3324C38.9366 10.0075 38.9762 9.64248 38.9007 9.29278C38.8253 8.94307 38.6389 8.62784 38.37 8.39503C38.1011 8.16222 37.7644 8.02456 37.411 8.00299C37.0576 7.98142 36.7069 8.07712 36.4123 8.27553L36.4057 8.27882L36.396 8.28539L36.3668 8.3051L36.2692 8.37082C35.7817 8.72236 35.3121 9.09851 34.862 9.49783C34.0495 10.224 32.99 11.2984 32.2392 12.5799C31.5839 13.6422 31.0579 14.7808 30.6728 15.9708C30.2828 17.1503 30 18.4285 30 19.4996C30 22.2334 30.975 24.5696 32.509 26.0449C31.56 27.0174 31.0075 28.289 30.6663 29.5606C30 32.0315 30 35.0872 30 37.4497V37.5713C30 44.3333 31.2513 48.3485 32.6682 50.7373C33.38 51.9333 34.121 52.7054 34.7418 53.1917C35.0725 53.4525 35.4325 53.6731 35.8142 53.8489C36.035 53.9303 36.2657 53.9812 36.5 54C36.773 54 37.1858 53.8489 37.1858 53.8489C37.5675 53.6731 37.9275 53.4525 38.2582 53.1917C38.8757 52.7054 39.6233 51.9333 40.3317 50.7373C41.7487 48.3518 43 44.3333 43 37.5713V37.453C43 35.0872 43 32.0348 42.3337 29.5573ZM34.8327 28.3416C35.2 27.967 35.6908 27.714 36.5 27.714C37.3125 27.714 37.8 27.9703 38.1672 28.3383C38.5767 28.7556 38.931 29.4325 39.1975 30.4215C39.737 32.4291 39.75 35.0642 39.75 37.5713C39.75 43.9522 38.5638 47.3299 37.5433 49.0484C37.1533 49.7055 36.786 50.1294 36.5 50.3955C36.0914 49.9983 35.7402 49.5448 35.4567 49.0484C34.4362 47.3266 33.25 43.9522 33.25 37.5713C33.25 35.0642 33.263 32.4291 33.8025 30.4215C34.069 29.4357 34.4232 28.7556 34.8327 28.3383V28.3416ZM36.5 24.4283C35.2488 24.4283 33.25 23.022 33.25 19.4996C33.25 18.9312 33.419 18.0309 33.757 17.0123C34.065 16.0507 34.4897 15.1314 35.0213 14.2753C35.304 13.7923 35.6713 13.3224 36.0678 12.892C36.292 13.2929 36.5878 13.697 36.9778 14.0913C37.215 14.3312 37.5237 14.6203 37.787 14.87L38.19 15.2512C38.5312 15.5863 38.7945 15.8788 39.0057 16.204C39.3958 16.7922 39.75 17.6826 39.75 19.4996C39.75 23.022 37.7512 24.4283 36.5 24.4283Z"/>
</svg>
