<svg width="74" height="74" viewBox="0 0 74 74"  xmlns="http://www.w3.org/2000/svg">
<g clip-path="url(#clip0_103_5511)">
<path d="M74 60.8462V56.3846H69.3478C69.0622 54.9882 68.5119 53.6604 67.7269 52.4741L71.0262 49.1502L67.8952 45.9959L64.5959 49.3198C63.4184 48.529 62.1004 47.9745 60.7143 47.6868V43H56.2857V47.6868C54.8996 47.9745 53.5816 48.529 52.4041 49.3198L49.1048 45.9959L45.9738 49.1502L49.2731 52.4741C48.4881 53.6604 47.9378 54.9882 47.6522 56.3846H43V60.8462H47.6522C47.9378 62.2426 48.4881 63.5704 49.2731 64.7567L45.9738 68.0805L49.1048 71.2348L52.4041 67.911C53.5816 68.7018 54.8996 69.2562 56.2857 69.5439V74.2308H60.7143V69.5439C62.1004 69.2562 63.4184 68.7018 64.5959 67.911L67.8952 71.2348L71.0262 68.0805L67.7269 64.7567C68.5119 63.5704 69.0622 62.2426 69.3478 60.8462H74ZM58.5 65.3077C57.1862 65.3077 55.9018 64.9152 54.8094 64.1798C53.717 63.4445 52.8656 62.3993 52.3628 61.1764C51.86 59.9536 51.7285 58.608 51.9848 57.3098C52.2411 56.0116 52.8738 54.8191 53.8028 53.8832C54.7318 52.9473 55.9155 52.3099 57.204 52.0517C58.4926 51.7934 59.8283 51.926 61.0421 52.4325C62.2559 52.939 63.2934 53.7968 64.0233 54.8973C64.7533 55.9979 65.1429 57.2918 65.1429 58.6154C65.1411 60.3898 64.4407 62.0909 63.1953 63.3456C61.9499 64.6003 60.2613 65.3059 58.5 65.3077Z" />
<path d="M67.5714 0H4.42857C3.2544 0.00118114 2.12866 0.471615 1.29839 1.30806C0.468129 2.1445 0.00117241 3.27863 0 4.46154V69.0769C0.00117241 70.2598 0.468129 71.394 1.29839 72.2304C2.12866 73.0669 3.2544 73.5373 4.42857 73.5385H40.5714V69.0769H4.42857L4.42857 17.8462H67.5714V39.5385H72V4.46154C71.9988 3.27863 71.5319 2.1445 70.7016 1.30806C69.8713 0.471615 68.7456 0.00118114 67.5714 0ZM67.5714 13.3846H4.42857V4.46154H67.5714V13.3846Z" />
<path d="M49.8571 11.1539C51.0801 11.1539 52.0714 10.1552 52.0714 8.92315C52.0714 7.69113 51.0801 6.69238 49.8571 6.69238C48.6342 6.69238 47.6429 7.69113 47.6429 8.92315C47.6429 10.1552 48.6342 11.1539 49.8571 11.1539Z" />
<path d="M56.5 11.1539C57.7229 11.1539 58.7143 10.1552 58.7143 8.92315C58.7143 7.69113 57.7229 6.69238 56.5 6.69238C55.2771 6.69238 54.2857 7.69113 54.2857 8.92315C54.2857 10.1552 55.2771 11.1539 56.5 11.1539Z" />
<path d="M63.1429 11.1539C64.3658 11.1539 65.3571 10.1552 65.3571 8.92315C65.3571 7.69113 64.3658 6.69238 63.1429 6.69238C61.9199 6.69238 60.9286 7.69113 60.9286 8.92315C60.9286 10.1552 61.9199 11.1539 63.1429 11.1539Z" />
</g>
<defs>
<clipPath id="clip0_103_5511">
<rect width="74" height="74" fill="white"/>
</clipPath>
</defs>
</svg>
