<svg width="76" height="72" viewBox="0 0 76 72"  xmlns="http://www.w3.org/2000/svg">
<path d="M61 39H66V46H61V39Z"/>
<path d="M51 16H56V46H51V16Z"/>
<path d="M71 9H76V46H71V9Z"/>
<path d="M40 33H46V46H40V33Z"/>
<path d="M30 23H35V46H30V23Z"/>
<path d="M20 39H25V46H20V39Z"/>
<path d="M22 61C24.2091 61 26 59.2091 26 57C26 54.7909 24.2091 53 22 53C19.7909 53 18 54.7909 18 57C18 59.2091 19.7909 61 22 61Z" />
<path d="M38.8235 72H5.17647C3.80401 71.9986 2.48815 71.4564 1.51767 70.4922C0.547188 69.528 0.00137041 68.2207 0 66.8571V5.14286C0.00137041 3.7793 0.547188 2.47199 1.51767 1.50781C2.48815 0.543634 3.80401 0.00136151 5.17647 0H38.8235V5.14286H5.17647V66.8571H38.8235V56.5714H44V66.8571C43.9986 68.2207 43.4528 69.528 42.4823 70.4922C41.5119 71.4564 40.196 71.9986 38.8235 72Z"/>
</svg>
