<svg width="74" height="74" viewBox="0 0 74 74"  xmlns="http://www.w3.org/2000/svg">
<mask id="path-1-inside-1_49_3376" fill="white">
<path d="M37 74C16.5649 74 0 57.4351 0 37C0 16.5649 16.5649 0 37 0C57.4351 0 74 16.5649 74 37C74 57.4351 57.4351 74 37 74ZM23.4173 38.1248C23.2693 41.2698 23.5542 44.4037 23.8539 47.5376C23.8724 47.7596 23.9538 47.8114 24.1499 47.8336C25.6521 48.0334 27.158 48.211 28.6713 48.3035C32.2381 48.5292 35.8049 48.8178 39.3865 48.618C41.4215 48.507 43.4565 48.4404 45.4841 48.2665C48.3774 48.0462 51.2558 47.6608 54.1051 47.1121C57.6497 46.3943 61.161 45.5396 64.4651 43.9856C65.9673 43.2826 67.3881 42.4501 68.5869 41.2624C69.4675 40.3929 70.0965 39.3865 70.1039 38.0804C70.1096 36.9189 70.0541 35.758 69.9374 34.6024C69.6804 31.8504 69.0826 29.141 68.1577 26.5364C65.9969 20.5498 62.5707 15.4771 57.7015 11.4774C53.5854 8.05161 48.6936 5.68509 43.4528 4.5843C41.6028 4.1958 39.7306 4.0515 37.851 3.9183C35.7309 3.7666 33.9142 4.3623 32.3454 5.8201C30.5139 7.511 29.2485 9.6089 28.194 11.8622C25.7261 17.1421 24.5939 22.792 23.8798 28.5418C23.4532 31.7172 23.2985 34.9231 23.4173 38.1248V38.1248ZM36.6263 19.5138C40.1746 19.6248 43.1753 20.7126 45.8541 22.681C49.0981 25 51.3596 28.4464 52.1959 32.3454C52.4475 33.4702 52.5548 34.6098 52.577 35.7568C52.5955 36.5301 52.17 37.0962 51.6076 37.5698C50.4717 38.5244 49.1286 39.0535 47.7226 39.4494C44.9846 40.2153 42.1874 40.6556 39.3421 40.8036C37.4921 40.8998 35.6421 40.9331 33.7921 40.8406C33.0817 40.8036 32.3676 40.7518 31.6572 40.7222C31.4352 40.7148 31.3612 40.6482 31.3464 40.4225C31.2613 38.8167 31.1355 37.2109 31.1614 35.6051C31.2206 31.8089 31.5092 28.0386 32.6303 24.3793C33.0003 23.162 33.4554 21.9743 34.1843 20.9161C34.8244 19.9911 35.5829 19.2992 36.6263 19.5101V19.5138Z"/>
</mask>
<path d="M37 74C16.5649 74 0 57.4351 0 37C0 16.5649 16.5649 0 37 0C57.4351 0 74 16.5649 74 37C74 57.4351 57.4351 74 37 74ZM23.4173 38.1248C23.2693 41.2698 23.5542 44.4037 23.8539 47.5376C23.8724 47.7596 23.9538 47.8114 24.1499 47.8336C25.6521 48.0334 27.158 48.211 28.6713 48.3035C32.2381 48.5292 35.8049 48.8178 39.3865 48.618C41.4215 48.507 43.4565 48.4404 45.4841 48.2665C48.3774 48.0462 51.2558 47.6608 54.1051 47.1121C57.6497 46.3943 61.161 45.5396 64.4651 43.9856C65.9673 43.2826 67.3881 42.4501 68.5869 41.2624C69.4675 40.3929 70.0965 39.3865 70.1039 38.0804C70.1096 36.9189 70.0541 35.758 69.9374 34.6024C69.6804 31.8504 69.0826 29.141 68.1577 26.5364C65.9969 20.5498 62.5707 15.4771 57.7015 11.4774C53.5854 8.05161 48.6936 5.68509 43.4528 4.5843C41.6028 4.1958 39.7306 4.0515 37.851 3.9183C35.7309 3.7666 33.9142 4.3623 32.3454 5.8201C30.5139 7.511 29.2485 9.6089 28.194 11.8622C25.7261 17.1421 24.5939 22.792 23.8798 28.5418C23.4532 31.7172 23.2985 34.9231 23.4173 38.1248V38.1248ZM36.6263 19.5138C40.1746 19.6248 43.1753 20.7126 45.8541 22.681C49.0981 25 51.3596 28.4464 52.1959 32.3454C52.4475 33.4702 52.5548 34.6098 52.577 35.7568C52.5955 36.5301 52.17 37.0962 51.6076 37.5698C50.4717 38.5244 49.1286 39.0535 47.7226 39.4494C44.9846 40.2153 42.1874 40.6556 39.3421 40.8036C37.4921 40.8998 35.6421 40.9331 33.7921 40.8406C33.0817 40.8036 32.3676 40.7518 31.6572 40.7222C31.4352 40.7148 31.3612 40.6482 31.3464 40.4225C31.2613 38.8167 31.1355 37.2109 31.1614 35.6051C31.2206 31.8089 31.5092 28.0386 32.6303 24.3793C33.0003 23.162 33.4554 21.9743 34.1843 20.9161C34.8244 19.9911 35.5829 19.2992 36.6263 19.5101V19.5138Z" stroke="#A1B0C7" stroke-width="1" mask="url(#path-1-inside-1_49_3376)"/>
</svg>
