<svg width="78" height="74" viewBox="0 0 78 74"  xmlns="http://www.w3.org/2000/svg">
<path d="M72.4286 34.1538V51.2308H5.57143V5.69231H39V0H5.57143C4.09379 0 2.67668 0.599723 1.63183 1.66724C0.586988 2.73475 0 4.18261 0 5.69231V51.2308C0 52.7405 0.586988 54.1883 1.63183 55.2558C2.67668 56.3233 4.09379 56.9231 5.57143 56.9231H27.8571V68.3077H16.7143V74H61.2857V68.3077H50.1429V56.9231H72.4286C73.9062 56.9231 75.3233 56.3233 76.3682 55.2558C77.413 54.1883 78 52.7405 78 51.2308V34.1538H72.4286ZM44.5714 68.3077H33.4286V56.9231H44.5714V68.3077Z" />
<path d="M52.9286 31.3077L39 17.1908L43.4293 12.7223L52.9286 22.3423L73.5707 1.42307L78 5.91999L52.9286 31.3077Z" />
</svg>
