<svg width="76" height="68" viewBox="0 0 76 68"  xmlns="http://www.w3.org/2000/svg">
<path d="M53.7736 27.4894H70.9811C72.3118 27.4878 73.5874 26.9538 74.5283 26.0045C75.4692 25.0552 75.9985 23.7681 76 22.4255V5.06383C75.9985 3.72129 75.4692 2.43417 74.5283 1.48485C73.5874 0.535533 72.3118 0.00153171 70.9811 0H53.7736C52.443 0.00153171 51.1673 0.535533 50.2264 1.48485C49.2855 2.43417 48.7562 3.72129 48.7547 5.06383V11.5745H45.1698C42.3185 11.5777 39.5848 12.722 37.5686 14.7563C35.5524 16.7905 34.4183 19.5486 34.4151 22.4255V31.8298H24.3774V26.766C24.3758 25.4234 23.8466 24.1363 22.9057 23.187C21.9648 22.2377 20.6891 21.7037 19.3585 21.7021H5.01887C3.68825 21.7037 2.41256 22.2377 1.47167 23.187C0.530778 24.1363 0.00151811 25.4234 0 26.766V41.234C0.00151811 42.5766 0.530778 43.8637 1.47167 44.813C2.41256 45.7623 3.68825 46.2963 5.01887 46.2979H19.3585C20.6891 46.2963 21.9648 45.7623 22.9057 44.813C23.8466 43.8637 24.3758 42.5766 24.3774 41.234V36.1702H34.4151V45.5745C34.4183 48.4513 35.5524 51.2095 37.5686 53.2437C39.5848 55.278 42.3185 56.4223 45.1698 56.4255H48.7547V62.9362C48.7562 64.2787 49.2855 65.5658 50.2264 66.5151C51.1673 67.4645 52.443 67.9985 53.7736 68H70.9811C72.3118 67.9985 73.5874 67.4645 74.5283 66.5151C75.4692 65.5658 75.9985 64.2787 76 62.9362V45.5745C75.9985 44.2319 75.4692 42.9448 74.5283 41.9955C73.5874 41.0462 72.3118 40.5122 70.9811 40.5106H53.7736C52.443 40.5122 51.1673 41.0462 50.2264 41.9955C49.2855 42.9448 48.7562 44.2319 48.7547 45.5745V52.0851H45.1698C43.459 52.0832 41.8188 51.3966 40.6091 50.1761C39.3993 48.9555 38.7189 47.3006 38.717 45.5745V22.4255C38.7189 20.6994 39.3993 19.0445 40.6091 17.8239C41.8188 16.6034 43.459 15.9168 45.1698 15.9149H48.7547V22.4255C48.7562 23.7681 49.2855 25.0552 50.2264 26.0045C51.1673 26.9538 52.443 27.4878 53.7736 27.4894V27.4894ZM20.0755 41.234C20.0752 41.4258 19.9996 41.6096 19.8652 41.7452C19.7308 41.8808 19.5486 41.9572 19.3585 41.9574H5.01887C4.8288 41.9572 4.6466 41.8808 4.5122 41.7452C4.3778 41.6096 4.30217 41.4258 4.30189 41.234V26.766C4.30217 26.5742 4.3778 26.3904 4.5122 26.2547C4.6466 26.1191 4.8288 26.0428 5.01887 26.0426H19.3585C19.5486 26.0428 19.7308 26.1191 19.8652 26.2547C19.9996 26.3904 20.0752 26.5742 20.0755 26.766V41.234ZM53.0566 45.5745C53.0569 45.3827 53.1325 45.1989 53.2669 45.0633C53.4013 44.9277 53.5835 44.8513 53.7736 44.8511H70.9811C71.1712 44.8513 71.3534 44.9277 71.4878 45.0633C71.6222 45.1989 71.6978 45.3827 71.6981 45.5745V62.9362C71.6978 63.1279 71.6222 63.3118 71.4878 63.4474C71.3534 63.583 71.1712 63.6593 70.9811 63.6596H53.7736C53.5835 63.6593 53.4013 63.583 53.2669 63.4474C53.1325 63.3118 53.0569 63.1279 53.0566 62.9362V45.5745ZM53.0566 5.06383C53.0569 4.87206 53.1325 4.68822 53.2669 4.55262C53.4013 4.41702 53.5835 4.34071 53.7736 4.34043H70.9811C71.1712 4.34071 71.3534 4.41702 71.4878 4.55262C71.6222 4.68822 71.6978 4.87206 71.6981 5.06383V22.4255C71.6978 22.6173 71.6222 22.8011 71.4878 22.9367C71.3534 23.0723 71.1712 23.1486 70.9811 23.1489H53.7736C53.5835 23.1486 53.4013 23.0723 53.2669 22.9367C53.1325 22.8011 53.0569 22.6173 53.0566 22.4255V5.06383Z" />
</svg>
