<svg width="76" height="68" viewBox="0 0 76 68" xmlns="http://www.w3.org/2000/svg">
<path d="M67.5 0H8.5C6.24566 0 4.08365 0.895533 2.48959 2.48959C0.895533 4.08365 0 6.24566 0 8.5V59.5C0 61.7543 0.895533 63.9163 2.48959 65.5104C4.08365 67.1045 6.24566 68 8.5 68H67.5C69.7543 68 71.9163 67.1045 73.5104 65.5104C75.1045 63.9163 76 61.7543 76 59.5V8.5C76 6.24566 75.1045 4.08365 73.5104 2.48959C71.9163 0.895533 69.7543 0 67.5 0ZM46.25 62.5H5.5V26.75H46.25V62.5ZM70.5 62.5H52.75V26.75H70.5V62.5ZM70.5 21.25H5.5V5.5H70.5V21.25Z" />
<path d="M32.5506 34H26.345C26.1521 33.9999 25.967 34.0761 25.8301 34.212L13.424 46.6151C13.1524 46.888 12.9999 47.2574 12.9999 47.6424C12.9999 48.0274 13.1524 48.3968 13.424 48.6697L19.3302 54.5759C19.6032 54.8475 19.9727 55 20.3578 55C20.7429 55 21.1123 54.8475 21.3853 54.5759L33.7879 42.1779C33.9238 42.041 34.0001 41.8559 33.9999 41.663V35.4538C34.0009 35.263 33.964 35.0739 33.8916 34.8974C33.8191 34.7209 33.7125 34.5605 33.5778 34.4254C33.4431 34.2902 33.283 34.1831 33.1067 34.1101C32.9304 34.0371 32.7414 33.9997 32.5506 34V34Z"  stroke-width="3" stroke-linecap="round" stroke-linejoin="round"/>
<mask id="path-3-inside-1_55_1267" fill="white">
<path d="M29.5 40C29.2033 40 28.9133 39.912 28.6666 39.7472C28.42 39.5824 28.2277 39.3481 28.1142 39.074C28.0006 38.7999 27.9709 38.4983 28.0288 38.2074C28.0867 37.9164 28.2296 37.6491 28.4393 37.4393C28.6491 37.2296 28.9164 37.0867 29.2074 37.0288C29.4983 36.9709 29.7999 37.0006 30.074 37.1142C30.3481 37.2277 30.5824 37.42 30.7472 37.6666C30.912 37.9133 31 38.2033 31 38.5C31 38.8978 30.842 39.2794 30.5607 39.5607C30.2794 39.842 29.8978 40 29.5 40Z"/>
</mask>
<path d="M29.5 40C29.2033 40 28.9133 39.912 28.6666 39.7472C28.42 39.5824 28.2277 39.3481 28.1142 39.074C28.0006 38.7999 27.9709 38.4983 28.0288 38.2074C28.0867 37.9164 28.2296 37.6491 28.4393 37.4393C28.6491 37.2296 28.9164 37.0867 29.2074 37.0288C29.4983 36.9709 29.7999 37.0006 30.074 37.1142C30.3481 37.2277 30.5824 37.42 30.7472 37.6666C30.912 37.9133 31 38.2033 31 38.5C31 38.8978 30.842 39.2794 30.5607 39.5607C30.2794 39.842 29.8978 40 29.5 40Z"  stroke-width="4" mask="url(#path-3-inside-1_55_1267)"/>
<path d="M25 58L37.8044 44.9C37.868 44.8343 37.9181 44.7562 37.9517 44.6703C37.9853 44.5844 38.0017 44.4925 37.9999 44.4V38"  stroke-width="2" stroke-linecap="round" stroke-linejoin="round"/>
</svg>
