<svg width="80" height="80" viewBox="0 0 80 80" fill="none" xmlns="http://www.w3.org/2000/svg">
<path d="M15 3.2V49.976H9V3.2C9 2.35131 9.31607 1.53737 9.87868 0.937258C10.4413 0.337142 11.2043 0 12 0C12.7956 0 13.5587 0.337142 14.1213 0.937258C14.6839 1.53737 15 2.35131 15 3.2Z" fill="#009F90"/>
<path d="M9 76.8V71.024H15V76.8C15 77.6487 14.6839 78.4626 14.1213 79.0627C13.5587 79.6629 12.7956 80 12 80C11.2043 80 10.4413 79.6629 9.87868 79.0627C9.31607 78.4626 9 77.6487 9 76.8Z" fill="#009F90"/>
<circle cx="12" cy="60" r="10" stroke="#009F90" stroke-width="4"/>
<path d="M43 76.8V30.024H37V76.8C37 77.6487 37.3161 78.4626 37.8787 79.0627C38.4413 79.6629 39.2043 80 40 80C40.7956 80 41.5587 79.6629 42.1213 79.0627C42.6839 78.4626 43 77.6487 43 76.8Z" fill="#009F90"/>
<path d="M37 3.2V8.97601H43V3.2C43 2.3513 42.6839 1.53737 42.1213 0.937256C41.5587 0.337143 40.7956 0 40 0C39.2043 0 38.4413 0.337143 37.8787 0.937256C37.3161 1.53737 37 2.3513 37 3.2Z" fill="#009F90"/>
<circle r="10" transform="matrix(1 0 0 -1 40 20)" stroke="#009F90" stroke-width="4"/>
<path d="M71 3.2V49.976H65V3.2C65 2.35131 65.3161 1.53737 65.8787 0.937258C66.4413 0.337142 67.2043 0 68 0C68.7956 0 69.5587 0.337142 70.1213 0.937258C70.6839 1.53737 71 2.35131 71 3.2Z" fill="#009F90"/>
<path d="M65 76.8V71.024H71V76.8C71 77.6487 70.6839 78.4626 70.1213 79.0627C69.5587 79.6629 68.7956 80 68 80C67.2043 80 66.4413 79.6629 65.8787 79.0627C65.3161 78.4626 65 77.6487 65 76.8Z" fill="#009F90"/>
<circle cx="68" cy="60" r="10" stroke="#009F90" stroke-width="4"/>
</svg>
