<svg width="78" height="78" viewBox="0 0 78 78" fill="none" xmlns="http://www.w3.org/2000/svg">
<path d="M70 36C70 27.2479 66.4705 18.8542 60.1881 12.6655C53.9056 6.47678 47.3848 4 38.5 4C29.6152 4 23.0944 6.47678 16.8119 12.6655C10.5295 18.8542 7 27.2479 7 36" stroke="#009F90" stroke-width="4" stroke-linecap="round" stroke-linejoin="round"/>
<path d="M2 52.0185V44.9805C2.00025 43.3073 2.55951 41.6823 3.58889 40.3635C4.61827 39.0448 6.0587 38.1082 7.68125 37.7024L14.2062 36.0667C14.5378 35.9841 14.8838 35.9781 15.218 36.0492C15.5522 36.1203 15.8659 36.2667 16.1352 36.4771C16.4044 36.6876 16.6222 36.9566 16.7721 37.2638C16.9219 37.571 16.9999 37.9083 17 38.2502V58.7452C17.0006 59.0877 16.923 59.4259 16.7732 59.7339C16.6234 60.0419 16.4053 60.3117 16.1355 60.5226C15.8657 60.7336 15.5513 60.8801 15.2163 60.9511C14.8814 61.0221 14.5346 61.0157 14.2025 60.9323L7.6775 59.3004C6.05565 58.8939 4.61606 57.957 3.58741 56.6383C2.55877 55.3197 2.00004 53.695 2 52.0223V52.0185Z" stroke="#009F90" stroke-width="4"/>
<path d="M76 52.0191V44.9809C75.9997 43.3076 75.4405 41.6825 74.4111 40.3637C73.3817 39.0449 71.9413 38.1082 70.3188 37.7025L63.7938 36.0667C63.4622 35.9841 63.1162 35.9781 62.782 36.0492C62.4477 36.1204 62.1341 36.2667 61.8648 36.4771C61.5956 36.6876 61.3778 36.9566 61.2279 37.2638C61.0781 37.5711 61.0001 37.9084 61 38.2502V58.746C60.9996 59.0882 61.0771 59.4259 61.2267 59.7336C61.3763 60.0413 61.594 60.3109 61.8634 60.5217C62.1327 60.7326 62.4466 60.8793 62.781 60.9506C63.1155 61.0219 63.4619 61.016 63.7938 60.9333L70.3188 59.3013C71.9413 58.8955 73.3817 57.9588 74.4111 56.64C75.4405 55.3213 75.9997 53.6961 76 52.0229V52.0191Z" stroke="#009F90" stroke-width="4"/>
<path d="M68 61V62.8C68 64.7096 67.2338 66.5409 65.8699 67.8912C64.506 69.2414 62.6561 70 60.7273 70H48" stroke="#009F90" stroke-width="4"/>
<path d="M44.5 76H33.5C32.0413 76 30.6424 75.4205 29.6109 74.3891C28.5795 73.3576 28 71.9587 28 70.5C28 69.0413 28.5795 67.6424 29.6109 66.6109C30.6424 65.5795 32.0413 65 33.5 65H44.5C45.9587 65 47.3576 65.5795 48.3891 66.6109C49.4205 67.6424 50 69.0413 50 70.5C50 71.9587 49.4205 73.3576 48.3891 74.3891C47.3576 75.4205 45.9587 76 44.5 76Z" stroke="#009F90" stroke-width="4"/>
</svg>
