<svg width="79" height="75" viewBox="0 0 79 75" fill="none" xmlns="http://www.w3.org/2000/svg">
<path d="M3.76251 7.5C3.76251 6.50544 4.15885 5.55161 4.86435 4.84835C5.56984 4.14509 6.5267 3.75 7.52442 3.75H30.0958L39.5006 15H71.4768C72.4745 15 73.4314 15.3951 74.1369 16.0984C74.8424 16.8016 75.2387 17.7554 75.2387 18.75V67.5C75.2387 68.4946 74.8424 69.4484 74.1369 70.1517C73.4314 70.8549 72.4745 71.25 71.4768 71.25H7.52442C6.5267 71.25 5.56984 70.8549 4.86435 70.1517C4.15885 69.4484 3.76251 68.4946 3.76251 67.5V7.5Z" stroke="#009F90" stroke-width="5" stroke-linejoin="round"/>
<path d="M20.6911 33.75L30.0959 43.125L20.6911 52.5" stroke="#009F90" stroke-width="4" stroke-linecap="round" stroke-linejoin="round"/>
<path d="M43.2625 52.5H58.3101" stroke="#009F90" stroke-width="4" stroke-linecap="round"/>
<path d="M42.4738 44.312C42.4738 44.774 42.1378 45.068 41.5498 45.068C40.8638 45.068 40.0098 44.746 39.4498 44.032L38.1758 45.558C38.6518 46.608 40.1778 47.168 41.4938 47.168C43.3838 47.168 44.8538 45.992 44.8538 44.284C44.8538 41.092 40.7658 41.484 40.7658 39.86C40.7658 39.412 41.1298 39.132 41.7458 39.132C42.4738 39.132 42.7958 39.384 43.2298 39.79L44.4338 38.11C43.8178 37.452 42.8098 37.032 41.5498 37.032C39.5898 37.032 38.3858 38.348 38.3858 39.86C38.3858 43.024 42.4738 42.842 42.4738 44.312ZM46.6688 47H52.6188V44.9H48.9088V43.122H52.0588V41.022H48.9088V39.3H52.4788V37.2H46.6688V47ZM54.0215 42.1C54.0215 45.222 56.2475 47.168 59.2295 47.168C62.2115 47.168 64.4375 45.068 64.4375 42.1C64.4375 38.978 62.2115 37.032 59.2295 37.032C56.1075 37.032 54.0215 39.258 54.0215 42.1ZM56.4015 42.1C56.4015 40.308 57.6055 39.132 59.2295 39.132C60.8115 39.132 62.0575 40.308 62.0575 42.1C62.0575 43.752 61.0915 45.068 59.2295 45.068C57.6615 45.068 56.4015 43.78 56.4015 42.1Z" fill="#009F90"/>
</svg>
