<svg width="80" height="80" viewBox="0 0 80 80" fill="none" xmlns="http://www.w3.org/2000/svg">
<path d="M5.62337 71.0184L7.05204 68.2644C7.09069 68.1857 7.15359 68.1188 7.23314 68.0719C7.31269 68.025 7.40548 68 7.50031 68C7.59513 68 7.68792 68.025 7.76747 68.0719C7.84702 68.1188 7.90992 68.1857 7.94857 68.2644L9.37861 71.0184L12.5728 71.4635C12.9826 71.5197 13.1448 71.9998 12.8478 72.2748L10.5378 74.4163L11.0823 77.4428C11.1524 77.8316 10.7248 78.1279 10.3576 77.9441L7.50031 76.5152L4.64297 77.9441C4.27584 78.1279 3.8482 77.8316 3.91833 77.4441L4.46284 74.4163L2.15277 72.2748C1.85439 71.9998 2.01802 71.5197 2.42778 71.4622L5.62337 71.0184Z" stroke="#009F90" stroke-width="3" stroke-linecap="round" stroke-linejoin="round"/>
<path d="M21.6234 71.0184L23.052 68.2644C23.0907 68.1857 23.1536 68.1188 23.2331 68.0719C23.3127 68.025 23.4055 68 23.5003 68C23.5951 68 23.6879 68.025 23.7675 68.0719C23.847 68.1188 23.9099 68.1857 23.9486 68.2644L25.3786 71.0184L28.5728 71.4635C28.9826 71.5197 29.1448 71.9998 28.8478 72.2748L26.5378 74.4163L27.0823 77.4428C27.1524 77.8316 26.7248 78.1279 26.3576 77.9441L23.5003 76.5152L20.643 77.9441C20.2758 78.1279 19.8482 77.8316 19.9183 77.4441L20.4628 74.4163L18.1528 72.2748C17.8544 71.9998 18.018 71.5197 18.4278 71.4622L21.6234 71.0184Z" stroke="#009F90" stroke-width="3" stroke-linecap="round" stroke-linejoin="round"/>
<path d="M37.6234 71.0184L39.052 68.2644C39.0907 68.1857 39.1536 68.1188 39.2331 68.0719C39.3127 68.025 39.4055 68 39.5003 68C39.5951 68 39.6879 68.025 39.7675 68.0719C39.847 68.1188 39.9099 68.1857 39.9486 68.2644L41.3786 71.0184L44.5728 71.4635C44.9826 71.5197 45.1448 71.9998 44.8478 72.2748L42.5378 74.4163L43.0823 77.4428C43.1524 77.8316 42.7248 78.1279 42.3576 77.9441L39.5003 76.5152L36.643 77.9441C36.2758 78.1279 35.8482 77.8316 35.9183 77.4441L36.4628 74.4163L34.1528 72.2748C33.8544 71.9998 34.018 71.5197 34.4278 71.4622L37.6234 71.0184Z" stroke="#009F90" stroke-width="3" stroke-linecap="round" stroke-linejoin="round"/>
<path d="M53.9528 71.0184L55.5113 68.2644C55.5535 68.1857 55.6221 68.1188 55.7089 68.0719C55.7957 68.025 55.8969 68 56.0003 68C56.1038 68 56.205 68.025 56.2918 68.0719C56.3786 68.1188 56.4472 68.1857 56.4893 68.2644L58.0494 71.0184L61.534 71.4635C61.981 71.5197 62.158 71.9998 61.834 72.2748L59.3139 74.4163L59.9079 77.4428C59.9844 77.8316 59.5179 78.1279 59.1174 77.9441L56.0003 76.5152L52.8832 77.9441C52.4827 78.1279 52.0162 77.8316 52.0927 77.4441L52.6867 74.4163L50.1667 72.2748C49.8412 71.9998 50.0197 71.5197 50.4667 71.4622L53.9528 71.0184Z" stroke="#009F90" stroke-width="3" stroke-linecap="round" stroke-linejoin="round"/>
<path d="M70.6234 71.0184L72.052 68.2644C72.0907 68.1857 72.1536 68.1188 72.2331 68.0719C72.3127 68.025 72.4055 68 72.5003 68C72.5951 68 72.6879 68.025 72.7675 68.0719C72.847 68.1188 72.9099 68.1857 72.9486 68.2644L74.3786 71.0184L77.5728 71.4635C77.9826 71.5197 78.1448 71.9998 77.8478 72.2748L75.5378 74.4163L76.0823 77.4428C76.1524 77.8316 75.7248 78.1279 75.3576 77.9441L72.5003 76.5152L69.643 77.9441C69.2758 78.1279 68.8482 77.8316 68.9183 77.4441L69.4628 74.4163L67.1528 72.2748C66.8544 71.9998 67.018 71.5197 67.4278 71.4622L70.6234 71.0184Z" stroke="#009F90" stroke-width="3" stroke-linecap="round" stroke-linejoin="round"/>
<path d="M42.8572 11.4286H31.4286V17.1429H48.5714V0H42.8572V11.4286Z" fill="#009F90"/>
<path d="M11.4286 42.8573H0V48.5716H17.1429V31.4287H11.4286V42.8573Z" fill="#009F90"/>
<path d="M42.8572 42.8573H31.4286V48.5716H48.5714V31.4287H42.8572V42.8573Z" fill="#009F90"/>
<path d="M74.2857 42.8573H62.8571V48.5716H80V31.4287H74.2857V42.8573Z" fill="#009F90"/>
</svg>
