<svg width="80" height="80" viewBox="0 0 80 80" fill="none" xmlns="http://www.w3.org/2000/svg">
<g clip-path="url(#clip0_26_75)">
<path d="M50.6667 77.3333H48C48 77.8286 48.1379 78.314 48.3983 78.7353C48.6586 79.1566 49.0311 79.497 49.4741 79.7185C49.917 79.9399 50.4129 80.0337 50.9062 79.9892C51.3994 79.9448 51.8705 79.7638 52.2667 79.4667L50.6667 77.3333ZM61.3333 69.3333L62.9333 67.2C62.4717 66.8538 61.9103 66.6667 61.3333 66.6667C60.7563 66.6667 60.1949 66.8538 59.7333 67.2L61.3333 69.3333ZM72 77.3333L70.4 79.4667C70.7962 79.7638 71.2673 79.9448 71.7605 79.9892C72.2538 80.0337 72.7496 79.9399 73.1926 79.7185C73.6355 79.497 74.008 79.1566 74.2684 78.7353C74.5288 78.314 74.6667 77.8286 74.6667 77.3333H72ZM61.3333 58.6667C57.7971 58.6667 54.4057 57.2619 51.9052 54.7614C49.4048 52.2609 48 48.8696 48 45.3333H42.6667C42.6667 50.284 44.6333 55.032 48.134 58.5327C51.6347 62.0333 56.3826 64 61.3333 64V58.6667ZM74.6667 45.3333C74.6667 48.8696 73.2619 52.2609 70.7614 54.7614C68.2609 57.2619 64.8696 58.6667 61.3333 58.6667V64C66.284 64 71.032 62.0333 74.5327 58.5327C78.0333 55.032 80 50.284 80 45.3333H74.6667ZM61.3333 32C64.8696 32 68.2609 33.4048 70.7614 35.9052C73.2619 38.4057 74.6667 41.7971 74.6667 45.3333H80C80 40.3826 78.0333 35.6347 74.5327 32.134C71.032 28.6333 66.284 26.6667 61.3333 26.6667V32ZM61.3333 26.6667C56.3826 26.6667 51.6347 28.6333 48.134 32.134C44.6333 35.6347 42.6667 40.3826 42.6667 45.3333H48C48 41.7971 49.4048 38.4057 51.9052 35.9052C54.4057 33.4048 57.7971 32 61.3333 32V26.6667ZM48 56V77.3333H53.3333V56H48ZM52.2667 79.4667L62.9333 71.4667L59.7333 67.2L49.0667 75.2L52.2667 79.4667ZM59.7333 71.4667L70.4 79.4667L73.6 75.2L62.9333 67.2L59.7333 71.4667ZM74.6667 77.3333V56H69.3333V77.3333H74.6667ZM80 26.6667V8H74.6667V26.6667H80ZM72 0H8V5.33333H72V0ZM0 8V72H5.33333V8H0ZM8 80H42.6667V74.6667H8V80ZM0 72C0 74.1217 0.842855 76.1566 2.34315 77.6569C3.84344 79.1572 5.87827 80 8 80V74.6667C7.29276 74.6667 6.61448 74.3857 6.11438 73.8856C5.61428 73.3855 5.33333 72.7072 5.33333 72H0ZM8 0C5.87827 0 3.84344 0.842855 2.34315 2.34315C0.842855 3.84344 0 5.87827 0 8H5.33333C5.33333 7.29276 5.61428 6.61448 6.11438 6.11438C6.61448 5.61428 7.29276 5.33333 8 5.33333V0ZM80 8C80 5.87827 79.1572 3.84344 77.6569 2.34315C76.1566 0.842855 74.1217 0 72 0V5.33333C72.7072 5.33333 73.3855 5.61428 73.8856 6.11438C74.3857 6.61448 74.6667 7.29276 74.6667 8H80ZM16 26.6667H42.6667V21.3333H16V26.6667ZM16 42.6667H32V37.3333H16V42.6667Z" fill="#009F90"/>
</g>
<defs>
<clipPath id="clip0_26_75">
<rect width="80" height="80" fill="white"/>
</clipPath>
</defs>
</svg>
