<svg width="643" height="130" viewBox="0 0 643 130" fill="none" xmlns="http://www.w3.org/2000/svg">
<g clip-path="url(#clip0_204_8)">
<path fill-rule="evenodd" clip-rule="evenodd" d="M142.21 61.7154L125.713 -0.000244141H105.245V85.5462H116.777V11.6096L136.558 85.5462H141.064H141.905H147.785L167.566 11.6096V85.5462H179.175V-0.000244141H158.631L142.21 61.7154Z" fill="white"/>
<path fill-rule="evenodd" clip-rule="evenodd" d="M294.654 61.7154L278.157 -0.000244141H257.689V85.5462H269.221V11.6096L289.002 85.5462H293.509H294.349H300.23L320.011 11.6096V85.5462H331.543V-0.000244141H311.075L294.654 61.7154Z" fill="white"/>
<path fill-rule="evenodd" clip-rule="evenodd" d="M209.344 -0.000244141L206.518 11.5332L191.09 73.9363H185.133L186.584 99.3711H196.665V85.5462H219.349H240.657V99.4475H250.739L252.19 74.0127H246.233L229.659 -0.000244141H209.344ZM220.341 11.5332L234.318 73.9363H219.272H202.928L218.279 11.5332H219.272H220.341Z" fill="white"/>
<path fill-rule="evenodd" clip-rule="evenodd" d="M574.11 -0.000244141V11.5332H593.738V85.5462H605.271V11.5332H624.899V-0.000244141H574.11Z" fill="white"/>
<path fill-rule="evenodd" clip-rule="evenodd" d="M398.524 -0.000244141L375.993 85.5462H387.832L406.925 14.283L426.095 85.5462H437.857L415.403 -0.000244141H398.524Z" fill="white"/>
<path fill-rule="evenodd" clip-rule="evenodd" d="M554.023 -0.000244141L523.321 60.035V-0.000244141H511.788V85.5462H523.168H523.321V85.2406L553.947 25.5109V85.5462H565.479V-0.000244141H554.023Z" fill="white"/>
<path fill-rule="evenodd" clip-rule="evenodd" d="M466.498 -0.000244141L442.44 85.5462H454.43L460.311 64.6942H487.959L493.84 85.5462H505.831L481.773 -0.000244141H466.498ZM474.135 15.5814L484.675 53.0844H463.595L474.135 15.5814Z" fill="white"/>
<path fill-rule="evenodd" clip-rule="evenodd" d="M108.147 129.618V114.113H112.882V129.618H115.784V111.745H105.321V129.618H108.147ZM118.992 129.618H121.818V122.591H123.269C124.949 122.591 126.171 122.438 126.935 122.056C127.699 121.674 128.386 121.063 128.844 120.223C129.303 119.383 129.532 118.39 129.532 117.168C129.532 115.869 129.226 114.8 128.692 113.883C128.081 112.967 127.393 112.356 126.553 112.127C125.713 111.898 124.567 111.745 123.193 111.745H118.916V129.618H118.992ZM123.269 114.036C124.109 114.036 124.72 114.113 125.102 114.189C125.484 114.342 125.866 114.647 126.171 115.106C126.477 115.64 126.63 116.251 126.63 117.091C126.63 118.161 126.4 119.001 125.866 119.459C125.408 119.918 124.491 120.223 123.269 120.223H121.818V113.96H123.269V114.036ZM142.134 113.731C141.064 112.203 139.537 111.363 137.551 111.363C135.489 111.363 133.961 112.127 132.892 113.731C131.823 115.335 131.288 117.626 131.288 120.681C131.288 123.737 131.823 126.028 132.892 127.632C133.961 129.16 135.489 130 137.551 130C139.537 130 141.064 129.236 142.134 127.632C143.203 126.104 143.737 123.737 143.737 120.681C143.661 117.626 143.203 115.335 142.134 113.731ZM139.995 125.723C139.537 126.945 138.697 127.556 137.551 127.556C136.329 127.556 135.489 126.945 135.031 125.723C134.572 124.5 134.343 122.82 134.343 120.758C134.343 118.619 134.572 116.939 135.031 115.717C135.489 114.495 136.329 113.883 137.551 113.883C138.773 113.883 139.613 114.495 140.071 115.717C140.53 116.939 140.759 118.619 140.759 120.758C140.682 122.82 140.453 124.5 139.995 125.723ZM151.757 130.153H154.124V127.938C158.096 127.326 160.005 124.882 160.005 120.681C160.005 118.619 159.471 116.939 158.478 115.64C157.485 114.342 156.034 113.578 154.124 113.349V111.134H151.757V113.349C150 113.502 148.549 114.265 147.48 115.487C146.411 116.786 145.876 118.466 145.876 120.681C145.876 122.591 146.334 124.271 147.327 125.57C148.32 126.868 149.771 127.632 151.757 127.861V130.153ZM151.757 125.799C149.695 125.264 148.702 123.584 148.702 120.758C148.702 117.779 149.695 116.022 151.757 115.487V125.799ZM154.201 115.564C156.263 116.099 157.256 117.779 157.256 120.605C157.256 123.584 156.263 125.341 154.201 125.799V115.564ZM162.831 129.618H172.836V127.174H165.733V121.598H171.232V119.23H165.733V114.113H172.76V111.745H162.831V129.618ZM182.536 126.486C182.078 127.174 181.467 127.479 180.55 127.479C178.335 127.479 177.266 125.264 177.266 120.911C177.266 116.175 178.335 113.807 180.55 113.807C182.23 113.807 183.147 115.182 183.452 117.855L186.126 117.473C185.591 113.425 183.682 111.363 180.55 111.363C178.488 111.363 176.961 112.203 175.815 113.807C174.746 115.411 174.211 117.703 174.211 120.758C174.211 123.584 174.746 125.799 175.739 127.479C176.731 129.16 178.335 130 180.397 130C183.605 130 185.515 128.014 186.049 124.042L183.376 123.66C183.3 124.882 182.994 125.875 182.536 126.486ZM196.283 126.486C195.825 127.174 195.214 127.479 194.298 127.479C192.083 127.479 191.014 125.264 191.014 120.911C191.014 116.175 192.083 113.807 194.298 113.807C195.978 113.807 196.894 115.182 197.2 117.855L199.873 117.473C199.338 113.425 197.429 111.363 194.298 111.363C192.236 111.363 190.708 112.203 189.562 113.807C188.493 115.411 187.959 117.703 187.959 120.758C187.959 123.584 188.493 125.799 189.486 127.479C190.479 129.16 192.083 130 194.145 130C197.353 130 199.262 128.014 199.797 124.042L197.124 123.66C197.047 124.882 196.742 125.875 196.283 126.486ZM209.114 120.605C209.725 119.383 210.26 118.314 210.642 117.244C210.565 119.23 210.565 120.223 210.565 120.299V129.618H213.391V111.745H210.565V113.502L206.518 120.987C205.907 122.209 205.372 123.278 205.066 124.348C205.143 122.82 205.143 121.98 205.143 121.903V111.821H202.317V129.694H205.143V128.09L209.114 120.605ZM226.986 113.731C225.917 112.203 224.389 111.363 222.404 111.363C220.341 111.363 218.814 112.127 217.745 113.731C216.675 115.335 216.141 117.626 216.141 120.681C216.141 123.737 216.675 126.028 217.745 127.632C218.814 129.16 220.341 130 222.404 130C224.389 130 225.917 129.236 226.986 127.632C228.055 126.104 228.59 123.737 228.59 120.681C228.59 117.626 228.055 115.335 226.986 113.731ZM224.848 125.723C224.389 126.945 223.549 127.556 222.404 127.556C221.182 127.556 220.341 126.945 219.883 125.723C219.425 124.5 219.196 122.82 219.196 120.758C219.196 118.619 219.425 116.939 219.883 115.717C220.341 114.495 221.182 113.883 222.404 113.883C223.626 113.883 224.389 114.495 224.924 115.717C225.382 116.939 225.611 118.619 225.611 120.758C225.611 122.82 225.382 124.5 224.848 125.723ZM231.339 129.618H234.165V121.674H239.282V129.618H242.108V111.745H239.282V119.154H234.165V111.745H231.339V129.618ZM243.712 129.618H246.462L247.531 125.111H252.572L253.641 129.618H256.543L251.884 111.745H248.677L243.712 129.618ZM248.066 122.82L250.051 114.647L252.037 122.82H248.066ZM263.646 114.8L267.083 129.694H270.138L265.708 111.821H262.195L257.536 129.694H260.209L263.646 114.8ZM277.164 129.618C278.845 129.618 280.067 129.083 280.83 128.09C281.594 127.097 282.052 125.723 282.052 124.119C282.052 122.896 281.823 121.827 281.365 120.911C280.907 119.994 280.372 119.459 279.608 119.154C278.921 118.848 277.928 118.695 276.63 118.695H274.186V111.745H271.36V129.618H277.164ZM274.186 121.063H276.935C277.546 121.063 278.081 121.292 278.539 121.751C278.997 122.209 279.226 122.973 279.226 124.119C279.226 125.188 278.997 126.028 278.615 126.486C278.157 126.945 277.623 127.174 277.012 127.174H274.186V121.063ZM284.344 129.618H287.169V121.674H292.287V129.618H295.112V111.745H292.287V119.154H287.169V111.745H284.344V129.618ZM304.277 129.618C305.958 129.618 307.18 129.083 307.943 128.09C308.707 127.097 309.165 125.723 309.165 124.119C309.165 122.896 308.936 121.827 308.478 120.911C308.02 119.994 307.485 119.459 306.721 119.154C306.034 118.848 305.041 118.695 303.743 118.695H301.375V111.745H298.549V129.618H304.277ZM301.299 121.063H304.048C304.659 121.063 305.194 121.292 305.652 121.751C306.11 122.209 306.34 122.973 306.34 124.119C306.34 125.188 306.11 126.028 305.729 126.486C305.27 126.945 304.736 127.174 304.125 127.174H301.375V121.063H301.299ZM310.54 129.618H313.366V111.745H310.54V129.618ZM316.727 129.618H326.732V127.174H319.552V121.598H325.051V119.23H319.552V114.113H326.579V111.745H316.65V129.618H316.727ZM343.763 113.731C342.694 112.203 341.166 111.363 339.181 111.363C337.119 111.363 335.591 112.127 334.522 113.731C333.453 115.335 332.918 117.626 332.918 120.681C332.918 123.737 333.453 126.028 334.522 127.632C335.591 129.16 337.119 130 339.181 130C341.166 130 342.694 129.236 343.763 127.632C344.832 126.104 345.367 123.737 345.367 120.681C345.367 117.626 344.832 115.335 343.763 113.731ZM341.625 125.723C341.166 126.945 340.326 127.556 339.181 127.556C337.959 127.556 337.119 126.945 336.66 125.723C336.202 124.5 335.973 122.82 335.973 120.758C335.973 118.619 336.202 116.939 336.66 115.717C337.119 114.495 337.959 113.883 339.181 113.883C340.403 113.883 341.243 114.495 341.701 115.717C342.159 116.939 342.388 118.619 342.388 120.758C342.388 122.82 342.159 124.5 341.625 125.723ZM355.907 126.486C355.449 127.174 354.838 127.479 353.921 127.479C351.706 127.479 350.637 125.264 350.637 120.911C350.637 116.175 351.706 113.807 353.921 113.807C355.601 113.807 356.518 115.182 356.823 117.855L359.496 117.473C358.962 113.425 357.052 111.363 353.921 111.363C351.859 111.363 350.331 112.203 349.186 113.807C348.117 115.411 347.582 117.703 347.582 120.758C347.582 123.584 348.117 125.799 349.109 127.479C350.102 129.16 351.706 130 353.768 130C356.976 130 358.885 128.014 359.42 124.042L356.747 123.66C356.594 124.882 356.289 125.875 355.907 126.486ZM361.788 129.618H367.134C369.425 129.618 371.029 129.16 371.793 128.167C372.633 127.174 373.015 126.028 373.015 124.73C373.015 122.438 371.946 120.911 369.883 120.223C371.564 119.612 372.48 118.314 372.48 116.328C372.48 115.258 372.251 114.342 371.793 113.578C371.335 112.814 370.724 112.356 370.036 112.127C369.349 111.898 368.356 111.821 367.058 111.821H361.788V129.618ZM364.614 114.036H366.676C367.669 114.036 368.356 114.265 368.814 114.647C369.272 115.029 369.502 115.717 369.502 116.557C369.502 117.321 369.272 117.932 368.891 118.466C368.509 118.925 367.669 119.23 366.37 119.23H364.537V114.036H364.614ZM364.614 121.445H366.676C368.05 121.445 368.967 121.751 369.425 122.362C369.883 122.973 370.113 123.66 370.113 124.348C370.113 126.257 369.043 127.25 366.981 127.25H364.69V121.445H364.614ZM375.917 129.618H385.922V127.174H378.819V121.598H384.318V119.23H378.819V114.113H385.846V111.745H375.917V129.618ZM387.144 114.265H390.963V129.618H393.789V114.265H397.684V111.745H387.144V114.265ZM405.78 120.605C406.391 119.383 406.925 118.314 407.307 117.244C407.231 119.23 407.231 120.223 407.231 120.299V129.618H410.057V111.745H407.231V113.502L403.183 120.987C402.572 122.209 402.037 123.278 401.655 124.348C401.732 122.82 401.732 121.98 401.732 121.903V111.821H398.829V129.694H401.732V128.09L405.78 120.605ZM411.355 114.265H415.174V129.618H418.076V114.265H421.971V111.745H411.431V114.265H411.355ZM423.117 129.618H433.122V127.174H425.943V121.598H431.442V119.23H425.943V114.113H432.969V111.745H423.04V129.618H423.117ZM440.53 114.8L443.967 129.694H447.022L442.592 111.821H439.079L434.42 129.694H437.093L440.53 114.8ZM453.972 129.618C455.652 129.618 456.874 129.083 457.638 128.09C458.402 127.097 458.86 125.723 458.86 124.119C458.86 122.896 458.631 121.827 458.173 120.911C457.715 119.994 457.18 119.459 456.416 119.154C455.729 118.848 454.736 118.695 453.438 118.695H451.07V111.745H448.168V129.618H453.972ZM451.07 121.063H453.819C454.43 121.063 454.965 121.292 455.423 121.751C455.882 122.209 456.111 122.973 456.111 124.119C456.111 125.188 455.882 126.028 455.5 126.486C455.041 126.945 454.507 127.174 453.896 127.174H451.146V121.063H451.07ZM461.151 129.618H463.977V121.674H469.094V129.618H471.92V111.745H469.094V119.154H463.977V111.745H461.151V129.618ZM481.085 129.618C482.765 129.618 483.987 129.083 484.751 128.09C485.515 127.097 485.973 125.723 485.973 124.119C485.973 122.896 485.744 121.827 485.286 120.911C484.828 119.994 484.293 119.459 483.529 119.154C482.842 118.848 481.849 118.695 480.551 118.695H478.183V111.745H475.357V129.618H481.085ZM478.183 121.063H480.932C481.543 121.063 482.078 121.292 482.536 121.751C482.995 122.209 483.224 122.973 483.224 124.119C483.224 125.188 482.995 126.028 482.613 126.486C482.154 126.945 481.62 127.174 481.009 127.174H478.259V121.063H478.183ZM487.424 129.618H490.25V111.745H487.424V129.618ZM493.611 129.618H503.616V127.174H496.437V121.598H501.936V119.23H496.437V114.113H503.463V111.745H493.534V129.618H493.611ZM510.413 129.618H513.315V122.591H514.766C516.447 122.591 517.669 122.438 518.433 122.056C519.196 121.674 519.884 121.063 520.342 120.223C520.8 119.383 521.029 118.39 521.029 117.168C521.029 115.869 520.724 114.8 520.189 113.883C519.578 112.967 518.891 112.356 518.051 112.127C517.211 111.898 516.065 111.745 514.69 111.745H510.413V129.618ZM514.69 114.036C515.53 114.036 516.141 114.113 516.523 114.189C516.905 114.342 517.287 114.647 517.592 115.106C517.898 115.64 518.051 116.251 518.051 117.091C518.051 118.161 517.822 119.001 517.287 119.459C516.829 119.918 515.912 120.223 514.69 120.223H513.239V113.96H514.69V114.036ZM523.168 129.618H533.173V127.174H525.994V121.598H531.493V119.23H525.994V114.113H533.02V111.745H523.091V129.618H523.168ZM552.037 129.618V111.745H549.135V127.174H545.011V111.745H542.109V127.174H537.984V111.745H535.082V129.618H552.037ZM555.322 129.618H565.327V127.174H558.147V121.598H563.646V119.23H558.147V114.113H565.174V111.745H555.245V129.618H555.322ZM567.236 129.618H570.062V121.674H575.179V129.618H578.005V111.745H575.179V119.154H570.062V111.745H567.236V129.618ZM588.316 120.605C588.927 119.383 589.461 118.314 589.843 117.244C589.767 119.23 589.767 120.223 589.767 120.299V129.618H592.592V111.745H589.767V113.502L585.719 120.987C585.108 122.209 584.573 123.278 584.268 124.348C584.344 122.82 584.344 121.98 584.344 121.903V111.821H581.518V129.694H584.344V128.09L588.316 120.605ZM606.264 129.618H603.361V122.133H600.688L598.015 129.618H594.96L598.244 121.522C596.488 120.605 595.571 119.077 595.571 116.862C595.571 115.182 596.029 113.96 596.946 113.043C597.862 112.127 599.237 111.745 601.146 111.745H606.34V129.618H606.264ZM601.223 114.036C599.314 114.036 598.397 114.953 598.397 116.862C598.397 117.779 598.626 118.466 599.084 119.077C599.543 119.612 600.23 119.918 601.223 119.918H603.438V114.113H601.223V114.036Z" fill="white"/>
<path fill-rule="evenodd" clip-rule="evenodd" d="M634.751 9.16532V2.9021H637.501C638.036 2.9021 638.494 2.97848 638.723 3.05486C639.028 3.13124 639.258 3.36038 639.41 3.66591C639.563 3.97143 639.639 4.27695 639.639 4.58248C639.639 5.04076 639.487 5.42266 639.181 5.72819C638.876 6.03371 638.494 6.26285 637.883 6.33923C638.112 6.41561 638.265 6.56837 638.341 6.64476C638.57 6.8739 638.799 7.17942 639.028 7.48494L640.098 9.16532H639.105L638.265 7.86685C638.036 7.48494 637.807 7.17942 637.654 7.02666C637.501 6.79752 637.348 6.72114 637.272 6.64476C637.119 6.56837 637.043 6.49199 636.89 6.49199C636.814 6.49199 636.661 6.49199 636.432 6.49199H635.515V9.16532H634.751ZM635.515 5.65181H637.272C637.654 5.65181 637.959 5.57543 638.112 5.49904C638.341 5.42266 638.494 5.2699 638.57 5.11714C638.647 4.96438 638.723 4.73524 638.723 4.58248C638.723 4.27695 638.647 4.04781 638.418 3.81867C638.188 3.66591 637.883 3.51315 637.425 3.51315H635.515V5.65181Z" fill="white"/>
<path fill-rule="evenodd" clip-rule="evenodd" d="M643 6.18659C643 2.82584 640.327 -0.000244141 636.966 -0.000244141C633.682 -0.000244141 631.009 2.74946 631.009 6.18659C631.009 9.54735 633.682 12.3734 636.966 12.3734C640.327 12.2971 643 9.54735 643 6.18659ZM642.236 6.18659C642.236 9.16544 639.869 11.5332 636.966 11.5332C634.064 11.5332 631.697 9.08906 631.697 6.18659C631.697 3.20775 634.064 0.839944 636.966 0.839944C639.869 0.763563 642.236 3.20775 642.236 6.18659Z" fill="white"/>
<path fill-rule="evenodd" clip-rule="evenodd" d="M341.014 51.7859H375.764L378.285 41.3218H341.014V51.7859Z" fill="white"/>
<path fill-rule="evenodd" clip-rule="evenodd" d="M532.486 -0.000244141V23.2959L543.331 -0.000244141H532.486Z" fill="#FFE500"/>
<path fill-rule="evenodd" clip-rule="evenodd" d="M0 0.0761719H85.2343V17.8729C50.6365 19.2477 21.5377 32.9199 0 60.4933V0.0761719ZM85.2343 32.0033V85.3171H0V67.5204C13.5184 52.397 46.1304 28.4898 85.2343 32.0033Z" fill="#FFE500"/>
</g>
<defs>
<clipPath id="clip0_204_8">
<rect width="643" height="130" fill="white" transform="translate(0 -0.000244141)"/>
</clipPath>
</defs>
</svg>
