<svg width="20" height="21" viewBox="0 0 20 21" fill="none" xmlns="http://www.w3.org/2000/svg">
<path d="M19.4141 14.6406C19.8047 14.7969 20 15.0833 20 15.5C20 15.5781 19.987 15.6432 19.9609 15.6953L19.0234 19.7578C18.9193 20.2526 18.6198 20.5 18.125 20.5C13.125 20.5 8.85417 18.7292 5.3125 15.1875C1.77083 11.6458 0 7.375 0 2.375C0 1.88021 0.247396 1.58073 0.742188 1.47656L4.80469 0.539062C4.85677 0.513021 4.92188 0.5 5 0.5C5.41667 0.5 5.70312 0.695312 5.85938 1.08594L7.73438 5.46094C7.78646 5.5651 7.8125 5.68229 7.8125 5.8125C7.8125 6.09896 7.69531 6.34635 7.46094 6.55469L5.11719 8.46875C6.57552 11.6198 8.88021 13.9245 12.0312 15.3828L13.9453 13.0391C14.1536 12.8047 14.401 12.6875 14.6875 12.6875C14.8177 12.6875 14.9349 12.7135 15.0391 12.7656L19.4141 14.6406Z" fill="#009F90"/>
</svg>
