<svg width="76" height="76" viewBox="0 0 76 76" fill="none" xmlns="http://www.w3.org/2000/svg">
<path d="M22.5714 10H12.2857C9.55777 10 6.94156 10.8429 5.01262 12.3431C3.08367 13.8434 2 15.8783 2 18V66C2 68.1217 3.08367 70.1566 5.01262 71.6569C6.94156 73.1571 9.55777 74 12.2857 74H63.7143C66.4422 74 69.0584 73.1571 70.9874 71.6569C72.9163 70.1566 74 68.1217 74 66V18C74 15.8783 72.9163 13.8434 70.9874 12.3431C69.0584 10.8429 66.4422 10 63.7143 10H53.4286" stroke="#009F90" stroke-width="3" stroke-linecap="round" stroke-linejoin="round"/>
<path d="M43 2H33C27.4772 2 23 5.58172 23 10C23 14.4183 27.4772 18 33 18H43C48.5228 18 53 14.4183 53 10C53 5.58172 48.5228 2 43 2Z" stroke="#009F90" stroke-width="3" stroke-linecap="round" stroke-linejoin="round"/>
<path d="M33 58V38" stroke="#009F90" stroke-width="3" stroke-linecap="round" stroke-linejoin="round"/>
<path d="M13 58V38" stroke="#009F90" stroke-width="3" stroke-linecap="round" stroke-linejoin="round"/>
<path d="M13 58V38" stroke="#009F90" stroke-width="3" stroke-linecap="round" stroke-linejoin="round"/>
<path d="M48 58V54" stroke="#009F90" stroke-width="3" stroke-linecap="round" stroke-linejoin="round"/>
<path d="M28 58V54" stroke="#009F90" stroke-width="3" stroke-linecap="round" stroke-linejoin="round"/>
<path d="M63 58V46" stroke="#009F90" stroke-width="3" stroke-linecap="round" stroke-linejoin="round"/>
<path d="M43 58V46" stroke="#009F90" stroke-width="3" stroke-linecap="round" stroke-linejoin="round"/>
<path d="M23 58V46" stroke="#009F90" stroke-width="3" stroke-linecap="round" stroke-linejoin="round"/>
</svg>
