<svg width="40" height="40" viewBox="0 0 40 40" fill="none" xmlns="http://www.w3.org/2000/svg">
<path d="M3 27C7.82806 27 11.4486 22 11.4486 22C11.4486 22 15.0692 27 19.8972 27C24.7233 27 29.5514 22 29.5514 22C29.5514 22 34.3794 27 38 27" stroke="#009F90" stroke-width="4" stroke-linecap="round" stroke-linejoin="round"/>
<path d="M3 37C7.82806 37 11.4486 32 11.4486 32C11.4486 32 15.0692 37 19.8972 37C24.7233 37 29.5514 32 29.5514 32C29.5514 32 34.3794 37 38 37" stroke="#009F90" stroke-width="4" stroke-linecap="round" stroke-linejoin="round"/>
<path d="M32 14C32 12.5555 31.7155 11.1251 31.1627 9.79048C30.6099 8.4559 29.7996 7.24327 28.7782 6.22183C27.7567 5.20038 26.5441 4.39013 25.2095 3.83732C23.8749 3.28452 22.4445 3 21 3C19.5555 3 18.1251 3.28452 16.7905 3.83732C15.4559 4.39013 14.2433 5.20038 13.2218 6.22183C12.2004 7.24327 11.3901 8.4559 10.8373 9.79048C10.2845 11.1251 10 12.5555 10 14" stroke="#009F90" stroke-width="4" stroke-linecap="round" stroke-linejoin="round"/>
</svg>
