<svg width="40" height="37" viewBox="0 0 40 37" fill="none" xmlns="http://www.w3.org/2000/svg">
<path d="M20.5 12.3333C21.3784 12.3334 22.2246 12.6729 22.8708 13.2844C23.5169 13.8959 23.9157 14.7348 23.988 15.6346L24 15.9306V33.4028C23.9999 34.3059 23.6693 35.1759 23.0739 35.8401C22.4785 36.5042 21.6618 36.9139 20.786 36.9877L20.5 37H3.5C2.6213 36.9999 1.77478 36.6602 1.12858 36.0482C0.482388 35.4362 0.0838022 34.5968 0.0120001 33.6967L0 33.4028V15.9306C3.28092e-05 15.0278 0.330342 14.158 0.92536 13.4939C1.52038 12.8298 2.3366 12.42 3.212 12.3457L3.5 12.3333H20.5ZM11 15.4146H3.5C3.38708 15.4149 3.27759 15.4545 3.18934 15.5269C3.10109 15.5993 3.03929 15.7003 3.014 15.8134L3 15.9306V33.4028C3.00019 33.5186 3.03841 33.6309 3.10847 33.7215C3.17853 33.8122 3.27632 33.8759 3.386 33.9023L3.5 33.9167H11V15.4146ZM20.5 15.4146H13V33.9167H20.5C20.6126 33.9165 20.7219 33.8772 20.8101 33.8052C20.8983 33.7332 20.9603 33.6327 20.986 33.5199L21 33.4028V15.9306C21.0003 15.8144 20.9622 15.7016 20.8922 15.6106C20.8221 15.5195 20.724 15.4555 20.614 15.429L20.5 15.4167V15.4146ZM17.25 28.7778C17.63 28.7779 17.9959 28.9263 18.2736 29.1929C18.5513 29.4596 18.7201 29.8247 18.7461 30.2144C18.772 30.6041 18.653 30.9893 18.4131 31.2923C18.1733 31.5953 17.8305 31.7935 17.454 31.8467L17.25 31.8611H16.25C15.87 31.861 15.5041 31.7126 15.2264 31.4459C14.9487 31.1793 14.7799 30.8142 14.7539 30.4245C14.728 30.0348 14.847 29.6496 15.0869 29.3466C15.3267 29.0435 15.6695 28.8454 16.046 28.7922L16.25 28.7778H17.25ZM7.75 28.7778C8.13005 28.7779 8.49588 28.9263 8.77358 29.1929C9.05128 29.4596 9.22015 29.8247 9.24605 30.2144C9.27196 30.6041 9.15297 30.9893 8.91313 31.2923C8.6733 31.5953 8.3305 31.7935 7.954 31.8467L7.75 31.8611H6.75C6.36995 31.861 6.00412 31.7126 5.72642 31.4459C5.44872 31.1793 5.27985 30.8142 5.25395 30.4245C5.22804 30.0348 5.34703 29.6496 5.58687 29.3466C5.8267 29.0435 6.1695 28.8454 6.546 28.7922L6.75 28.7778H7.75ZM35.5 3.49418e-08C36.6403 -0.000143934 37.738 0.444607 38.5715 1.24437C39.405 2.04413 39.912 3.13927 39.99 4.30844L40 4.625V22.0972C40.0001 23.2691 39.5674 24.3974 38.7893 25.254C38.0111 26.1107 36.9456 26.6317 35.808 26.7119L35.5 26.7222H26V22.6389H34.5C34.8625 22.6389 35.2127 22.504 35.4859 22.2591C35.759 22.0142 35.9367 21.676 35.986 21.3069L36 21.0972V5.625C36 5.21612 35.842 4.824 35.5607 4.53488C35.2794 4.24576 34.8978 4.08333 34.5 4.08333H13.5C13.1375 4.08335 12.7873 4.21827 12.5141 4.46313C12.241 4.708 12.0633 5.04625 12.014 5.41533L12 5.625V10.2778H8V4.625C7.99986 3.45307 8.43259 2.32479 9.21074 1.46817C9.98889 0.611557 11.0544 0.0904899 12.192 0.010278L12.5 3.49418e-08H35.5ZM28.5 17.5C28.8978 17.5 29.2794 17.6624 29.5607 17.9515C29.842 18.2407 30 18.6328 30 19.0417C30 19.4505 29.842 19.8427 29.5607 20.1318C29.2794 20.4209 28.8978 20.5833 28.5 20.5833H26V17.5H28.5Z" fill="#009F90"/>
</svg>
