<svg width="40" height="37" viewBox="0 0 40 37" fill="none" xmlns="http://www.w3.org/2000/svg">
<g clip-path="url(#clip0_51_636)">
<path d="M3.80951 35.0526C5.99427 27.2242 7.58665 19.4211 7.61903 11.6842H19.0476C19.08 19.4211 20.6724 27.2242 22.8571 35.0526" stroke="#009F90" stroke-width="4" stroke-linecap="round" stroke-linejoin="round"/>
<path d="M20 19.4736H28.5714C28.619 24.5602 30.2743 29.7869 32.381 35.0526" stroke="#009F90" stroke-width="4" stroke-linecap="round" stroke-linejoin="round"/>
<path d="M13.3333 3.8948C13.766 3.27848 14.339 2.77911 15.0027 2.43982C15.6664 2.10054 16.401 1.93155 17.1429 1.94744C17.8848 1.93155 18.6193 2.10054 19.283 2.43982C19.9467 2.77911 20.5197 3.27848 20.9524 3.8948C21.3851 4.51113 21.9581 5.0105 22.6218 5.34978C23.2855 5.68907 24.02 5.85806 24.7619 5.84217C25.5038 5.85806 26.2383 5.68907 26.9021 5.34978C27.5658 5.0105 28.1387 4.51113 28.5714 3.8948C29.0041 3.27848 29.5771 2.77911 30.2408 2.43982C30.9045 2.10054 31.6391 1.93155 32.381 1.94744C33.1229 1.93155 33.8574 2.10054 34.5211 2.43982C35.1848 2.77911 35.7578 3.27848 36.1905 3.8948" stroke="#009F90" stroke-width="4" stroke-linecap="round" stroke-linejoin="round"/>
<path d="M1.90479 35.0526H38.0953" stroke="#009F90" stroke-width="4" stroke-linecap="round" stroke-linejoin="round"/>
</g>
<defs>
<clipPath id="clip0_51_636">
<rect width="40" height="37" fill="white"/>
</clipPath>
</defs>
</svg>
