<svg width="43" height="39" viewBox="0 0 43 39" fill="none" xmlns="http://www.w3.org/2000/svg">
<path d="M43 6.5V4.33333C43 3.7587 42.7483 3.2076 42.3003 2.80127C41.8523 2.39494 41.2447 2.16667 40.6111 2.16667H16.7222V0H9.55556V2.16667H7.16667V6.5H9.55556V26H7.16667V21.6667H2.38889V26H0V30.3333H2.38889V39H7.16667V30.3333H19.1111V39H23.8889V30.3333H26.2778V26H23.8889V21.6667H19.1111V26H16.7222V6.5H35.8333V16.51C34.7106 16.8783 33.8983 17.8317 33.8983 18.98C33.8983 19.9333 34.4717 20.8 35.3556 21.2767V23.8333H36.8367C37.6489 23.8333 38.2939 24.44 38.2939 25.1767C38.2939 25.9133 37.6489 26.52 36.8367 26.52C36.3111 26.52 35.8333 26.26 35.5706 25.8483C35.3715 25.5464 35.0498 25.3273 34.6746 25.2382C34.2994 25.1491 33.9006 25.197 33.5639 25.3717C32.8472 25.7183 32.6083 26.5417 33.0144 27.1917C33.8028 28.405 35.26 29.185 36.8367 29.185C39.2494 29.185 41.2322 27.3867 41.2322 25.1767C41.2322 23.4867 40.0378 21.97 38.2939 21.4067V21.2767C39.2017 20.8 39.775 19.9333 39.775 18.98C39.775 17.9833 39.13 17.1383 38.2222 16.6833V6.5H43ZM14.3333 23.0967L11.9444 25.2633V22.1867L14.3333 20.02V23.0967ZM14.3333 16.705L11.9444 18.8717V15.795L14.3333 13.6283V16.705ZM11.9444 12.3717V9.295L14.3333 7.12833V10.205L11.9444 12.3717Z" fill="#009F90"/>
</svg>
