<svg width="40" height="38" viewBox="0 0 40 38" fill="none" xmlns="http://www.w3.org/2000/svg">
<path d="M3.5 0C3.10218 0 2.72065 0.158035 2.43934 0.43934C2.15804 0.720644 2 1.10218 2 2.5C2 2.89782 2.15804 4.27936 2.43934 4.56066C2.72065 4.84196 3.10218 5 3.5 5H5.584L0.110002 18.434C0.0370778 18.6138 -0.00027908 18.806 1.56964e-06 19C1.55594e-06 19.9193 0.181062 20.8295 0.532845 21.6788C0.884628 22.5281 1.40024 23.2997 2.05025 23.9497C2.70026 24.5998 3.47194 25.1154 4.32122 25.4672C5.1705 25.8189 6.08075 26 7 26C7.91925 26 8.82951 25.8189 9.67879 25.4672C10.5281 25.1154 11.2997 24.5998 11.9497 23.9497C12.5998 23.2997 13.1154 22.5281 13.4672 21.6788C13.8189 20.8295 14 19.9193 14 19C14.0003 18.806 13.9629 18.6138 13.89 18.434L8.416 5H18.5V33H10.506C9.31253 33 8.16793 33.4741 7.32402 34.318C6.48011 35.1619 6.006 34.3065 6.006 35.5C6.006 36.6935 6.48011 35.8381 7.32402 36.682C8.16793 37.5259 9.31253 38 10.506 38H29.5C30.6935 38 31.8381 37.5259 32.682 36.682C33.5259 35.8381 34 36.6935 34 35.5C34 34.3065 33.5259 35.1619 32.682 34.318C31.8381 33.4741 30.6935 33 29.5 33H21.5V5H31.584L26.11 18.434C26.0371 18.6138 25.9997 18.806 26 19C26 20.8565 26.7375 22.637 28.0503 23.9497C29.363 25.2625 31.1435 26 33 26C34.8565 26 36.637 25.2625 37.9497 23.9497C39.2625 22.637 40 20.8565 40 19C40.0003 18.806 39.9629 18.6138 39.89 18.434L34.416 5H36.5C36.8978 5 37.2794 4.84196 37.5607 4.56066C37.842 4.27936 38 2.89782 38 2.5C38 1.10218 37.842 0.720644 37.5607 0.43934C37.2794 0.158035 36.8978 0 36.5 0H3.5ZM7 9.476L10.27 17.5H3.73L7 9.476ZM29.73 17.5L33 9.476L36.27 17.5H29.73Z" fill="#009F90"/>
</svg>
