<svg width="41" height="42" viewBox="0 0 41 42" fill="none" xmlns="http://www.w3.org/2000/svg">
<path d="M5.90625 6.89453C9.89844 2.90234 14.7109 0.90625 20.3438 0.90625C25.9766 0.90625 30.7617 2.90234 34.6992 6.89453C38.6914 10.832 40.6875 15.6172 40.6875 21.25C40.6875 26.8828 38.6914 31.6953 34.6992 35.6875C30.7617 39.625 25.9766 41.5938 20.3438 41.5938C14.7109 41.5938 9.89844 39.625 5.90625 35.6875C1.96875 31.6953 0 26.8828 0 21.25C0 15.6172 1.96875 10.832 5.90625 6.89453ZM25.4297 10.9141C24.0078 9.49219 22.3125 8.78125 20.3438 8.78125C18.375 8.78125 16.6797 9.49219 15.2578 10.9141C13.8359 12.3359 13.125 14.0312 13.125 16C13.125 17.9688 13.8359 19.6641 15.2578 21.0859C16.6797 22.5078 18.375 23.2188 20.3438 23.2188C22.3125 23.2188 24.0078 22.5078 25.4297 21.0859C26.8516 19.6641 27.5625 17.9688 27.5625 16C27.5625 14.0312 26.8516 12.3359 25.4297 10.9141ZM8.36719 31.4219C11.4844 35.1406 15.4766 37 20.3438 37C25.2109 37 29.2031 35.1406 32.3203 31.4219C31.5547 29.9453 30.4609 28.7695 29.0391 27.8945C27.6172 26.9648 26.0312 26.5 24.2812 26.5C24.1172 26.5 23.9258 26.5273 23.707 26.582C22.5586 26.9648 21.4375 27.1562 20.3438 27.1562C19.25 27.1562 18.1289 26.9648 16.9805 26.582C16.7617 26.5273 16.5703 26.5 16.4062 26.5C14.6562 26.5 13.0703 26.9648 11.6484 27.8945C10.2266 28.7695 9.13281 29.9453 8.36719 31.4219Z" fill="#009F90"/>
</svg>
