<svg width="40" height="40" viewBox="0 0 40 40" fill="none" xmlns="http://www.w3.org/2000/svg">
<g clip-path="url(#clip0_225_4065)">
<path d="M2 0.129883H12C12.5304 0.129883 13.0391 0.340596 13.4142 0.715669C13.7893 1.09074 14 1.59945 14 2.12988V38.1299C14 38.6603 13.7893 39.169 13.4142 39.5441C13.0391 39.9192 12.5304 40.1299 12 40.1299H2C1.46957 40.1299 0.960859 39.9192 0.585786 39.5441C0.210714 39.169 0 38.6603 0 38.1299V2.12988C0 1.59945 0.210714 1.09074 0.585786 0.715669C0.960859 0.340596 1.46957 0.129883 2 0.129883ZM2 30.1299V34.1299H6V30.1299H2ZM20 6.12988H36C37.0609 6.12988 38.0783 6.55131 38.8284 7.30146C39.5786 8.0516 40 9.06902 40 10.1299V22.1299C40 23.1907 39.5786 24.2082 38.8284 24.9583C38.0783 25.7085 37.0609 26.1299 36 26.1299H20C18.9391 26.1299 17.9217 25.7085 17.1716 24.9583C16.4214 24.2082 16 23.1907 16 22.1299V10.1299C16 9.06902 16.4214 8.0516 17.1716 7.30146C17.9217 6.55131 18.9391 6.12988 20 6.12988ZM24 28.1299H32C32.5304 28.1299 33.0391 28.3406 33.4142 28.7157C33.7893 29.0907 34 29.5994 34 30.1299C34 30.6603 33.7893 31.169 33.4142 31.5441C33.0391 31.9192 32.5304 32.1299 32 32.1299H24C23.4696 32.1299 22.9609 31.9192 22.5858 31.5441C22.2107 31.169 22 30.6603 22 30.1299C22 29.5994 22.2107 29.0907 22.5858 28.7157C22.9609 28.3406 23.4696 28.1299 24 28.1299Z" fill="#009F90"/>
</g>
<defs>
<clipPath id="clip0_225_4065">
<rect width="40" height="40" fill="white"/>
</clipPath>
</defs>
</svg>
