<svg width="40" height="40" viewBox="0 0 40 40" fill="none" xmlns="http://www.w3.org/2000/svg">
<path d="M14.9695 5.45C14.2209 7.32325 13.6599 9.26608 13.2945 11.25H26.7045C26.3391 9.2661 25.778 7.32328 25.0295 5.45C24.277 3.6175 23.4095 2.215 22.5095 1.2925C21.6145 0.3725 20.767 0 19.9995 0C19.232 0 18.3845 0.3725 17.4895 1.2925C16.5895 2.2175 15.7245 3.6175 14.9695 5.45ZM14.7245 0.7025C13.9395 1.7675 13.2495 3.055 12.6545 4.4975C11.8545 6.4475 11.2045 8.7325 10.7495 11.25H2.00951C3.25826 8.68929 5.0384 6.42411 7.2313 4.60538C9.42421 2.78665 11.9795 1.45614 14.727 0.7025H14.7245ZM27.3395 4.4975C26.8056 3.1539 26.1114 1.87968 25.272 0.7025C28.0195 1.45614 30.5748 2.78665 32.7677 4.60538C34.9606 6.42411 36.7408 8.68929 37.9895 11.25H29.247C28.792 8.7325 28.147 6.445 27.342 4.5L27.3395 4.4975ZM39.0045 13.75H29.6245C29.8695 15.7375 29.9995 17.835 29.9995 20C29.9995 22.165 29.8695 24.2625 29.6245 26.25H39.0045C39.6662 24.2328 40.0021 22.123 39.9995 20C40.0021 17.877 39.6662 15.7672 39.0045 13.75ZM29.247 28.75H37.9895C36.741 31.3104 34.9613 33.5755 32.7688 35.3942C30.5764 37.2129 28.0215 38.5435 25.2745 39.2975C26.057 38.2325 26.7495 36.945 27.342 35.5025C28.1445 33.5525 28.792 31.2675 29.247 28.75ZM18.9045 29.85C19.0745 29.4925 19.227 29.125 19.3595 28.75H26.7045C26.3391 30.7339 25.778 32.6767 25.0295 34.55C24.8744 34.93 24.7077 35.3052 24.5295 35.675C24.3595 35.3723 24.1483 35.0947 23.902 34.85L18.902 29.85H18.9045ZM19.9295 26.25H27.1045C27.3595 24.285 27.4995 22.1875 27.4995 20C27.4995 17.8125 27.3595 15.7125 27.1045 13.75H12.8945L12.802 14.5C15.1214 15.3959 17.0789 17.0346 18.3688 19.1603C19.6587 21.286 20.2084 23.779 19.932 26.25H19.9295ZM10.3745 13.75L10.3595 13.865C9.82625 13.7885 9.28823 13.7501 8.74951 13.75H10.3745ZM0.994511 13.75H8.74951C7.10438 13.7487 5.47907 14.1089 3.98862 14.8054C2.49816 15.5018 1.179 16.5173 0.124511 17.78C0.277011 16.39 0.574511 15.04 0.999511 13.75H0.994511ZM8.74951 33.75C10.7145 33.75 12.5295 33.1 13.9895 32.0075L20.3645 38.3825C20.4806 38.4987 20.6184 38.5909 20.7701 38.6539C20.9218 38.7169 21.0844 38.7493 21.2486 38.7494C21.4129 38.7496 21.5755 38.7173 21.7273 38.6546C21.8791 38.5918 22.017 38.4998 22.1333 38.3838C22.2495 38.2677 22.3417 38.1299 22.4047 37.9782C22.4676 37.8265 22.5001 37.6639 22.5002 37.4996C22.5003 37.3354 22.4681 37.1727 22.4053 37.0209C22.3426 36.8692 22.2506 36.7312 22.1345 36.615L15.7595 30.24C16.9395 28.6619 17.5524 26.7318 17.4988 24.762C17.4452 22.7923 16.7283 20.8983 15.4642 19.3868C14.2002 17.8752 12.4629 16.8345 10.5337 16.4333C8.60451 16.0321 6.59637 16.2938 4.83444 17.176C3.0725 18.0582 1.65993 19.5093 0.825434 21.2944C-0.00905926 23.0794 -0.216614 25.0939 0.236378 27.0115C0.68937 28.9292 1.77639 30.6379 3.32142 31.8608C4.86645 33.0838 6.77904 33.7494 8.74951 33.75ZM8.74951 31.25C7.09191 31.25 5.5022 30.5915 4.33009 29.4194C3.15799 28.2473 2.49951 26.6576 2.49951 25C2.49951 23.3424 3.15799 21.7527 4.33009 20.5806C5.5022 19.4085 7.09191 18.75 8.74951 18.75C10.4071 18.75 11.9968 19.4085 13.1689 20.5806C14.341 21.7527 14.9995 23.3424 14.9995 25C14.9995 26.6576 14.341 28.2473 13.1689 29.4194C11.9968 30.5915 10.4071 31.25 8.74951 31.25Z" fill="#009F90"/>
</svg>
