<svg width="35" height="32" viewBox="0 0 35 32" fill="none" xmlns="http://www.w3.org/2000/svg">
<g opacity="0.5">
<path d="M33.4 28.9231V16.6154C33.4 15.7993 33.0629 15.0167 32.4627 14.4397C31.8626 13.8626 31.0487 13.5385 30.2 13.5385H22.2V12H19V21.2308H22.2V19.6923H27V28.9231H25.4V32H35V28.9231H33.4ZM30.8 28.9231H29.6V17.1538H22.2V16.0769H29.2C29.6243 16.0769 30.0313 16.239 30.3314 16.5275C30.6314 16.816 30.8 17.2074 30.8 17.6154V28.9231Z" fill="white"/>
<path d="M13.6 10.7692V12.3077H8.5V3.07692H10.2V0H0V3.07692H1.7V15.3846C1.7 16.2007 2.05821 16.9833 2.69584 17.5603C3.33346 18.1374 4.19826 18.4615 5.1 18.4615H13.6V20H17V10.7692H13.6ZM13.6 15.9231H6.1C5.64913 15.9231 5.21673 15.761 4.89792 15.4725C4.57911 15.184 4.4 14.7926 4.4 14.3846V3.07692H5.8V14.8462H13.6V15.9231Z" fill="white"/>
</g>
</svg>
