<?xml version="1.0" encoding="utf-8"?><svg viewBox="0 0 512 512" xmlns="http://www.w3.org/2000/svg" xmlns:xlink="http://www.w3.org/1999/xlink"><style>:root>svg{display:none}:root>svg:target{display:block}</style><svg fill="none" viewBox="0 0 40 40" id="app-p-icon" xmlns="http://www.w3.org/2000/svg"><path d="M0 0v40h40V0H0z" fill="#E75428"/><path d="M32.65 38c1.156-8.098-.412-17.799-6.857-24.025C19.353 7.753 9.378 6.225 1 7.332v.004c8.082-.086 15.337 4.161 21.402 10.016 6.071 5.86 10.351 12.83 10.249 20.648z" fill="#fff"/><path d="M6.234 26H8.77v-6.34H11V17H4v2.66h2.234V26zM10 31h2.101v-6.285h.066L13.404 31h2.054l1.273-6.285h.058V31H19v-8h-3.651l-.802 4.376h-.045L13.662 23H10v8zM25.07 36H28l-2.363-4.248L27.8 28h-2.793l-1.514 3.147h-.036V28H21v8h2.456v-3.391h.036L25.071 36z" fill="#fff"/></svg><svg fill="none" viewBox="0 0 39 38" id="app-p-icon-1" xmlns="http://www.w3.org/2000/svg"><path d="M22 7h6v5h-6V7zM22 15h6v5h-6v-5zM15 7h5v5h-5V7zM15 15h5v5h-5v-5zM33 7h6v5h-6V7zM33 15h6v5h-6v-5z" fill="#009F90"/><path d="M26 7h5v5h-5V7zM26 15h5v5h-5v-5zM12 32a2 2 0 100-4 2 2 0 000 4z" fill="#009F90"/><path d="M19.412 38H2.588a2.531 2.531 0 01-1.83-.796A2.785 2.785 0 010 35.286V2.714c0-.72.274-1.41.759-1.918A2.531 2.531 0 012.589 0h16.823v2.714H2.588v32.572h16.824V24.429H22v10.857c0 .72-.274 1.41-.759 1.918a2.531 2.531 0 01-1.83.796z" fill="#009F90"/></svg><svg viewBox="0 0 10 19" id="fb-icon" xmlns="http://www.w3.org/2000/svg"><path d="M9.184 10.375H6.547v7.875H3.03v-7.875H.184v-3.27H3.03v-2.46c0-1.407.387-2.485 1.16-3.235C4.965.637 5.996.25 7.285.25c.375 0 .774.023 1.195.07.422.024.75.059.985.106l.351.035v2.777H8.41c-.656 0-1.137.176-1.441.528-.282.328-.422.738-.422 1.23v2.11h3.129l-.492 3.269z"/></svg><svg viewBox="0 0 76 68" id="h-icon-01" xmlns="http://www.w3.org/2000/svg"><path d="M53.774 27.49H70.98a5.002 5.002 0 003.547-1.485A5.093 5.093 0 0076 22.425V5.064a5.093 5.093 0 00-1.472-3.58A5.002 5.002 0 0070.981 0H53.774a5.002 5.002 0 00-3.548 1.485 5.093 5.093 0 00-1.471 3.579v6.51H45.17a10.719 10.719 0 00-7.601 3.182 10.912 10.912 0 00-3.154 7.67v9.404H24.377v-5.064a5.093 5.093 0 00-1.471-3.579 5.003 5.003 0 00-3.547-1.485H5.018a5.003 5.003 0 00-3.547 1.485A5.093 5.093 0 000 26.766v14.468a5.093 5.093 0 001.472 3.579 5.003 5.003 0 003.547 1.485h14.34a5.003 5.003 0 003.547-1.485 5.093 5.093 0 001.471-3.579V36.17h10.038v9.404a10.913 10.913 0 003.154 7.67 10.719 10.719 0 007.6 3.181h3.586v6.511a5.092 5.092 0 001.471 3.58A5.002 5.002 0 0053.774 68H70.98a5.002 5.002 0 003.547-1.485A5.092 5.092 0 0076 62.936V45.575a5.093 5.093 0 00-1.472-3.58 5.002 5.002 0 00-3.547-1.484H53.774a5.003 5.003 0 00-3.548 1.484 5.093 5.093 0 00-1.471 3.58v6.51H45.17a6.431 6.431 0 01-4.56-1.909 6.547 6.547 0 01-1.893-4.602V22.427a6.547 6.547 0 011.892-4.602 6.431 6.431 0 014.56-1.91h3.586v6.511a5.093 5.093 0 001.471 3.58 5.003 5.003 0 003.548 1.484zM20.076 41.233a.728.728 0 01-.21.511.715.715 0 01-.508.212H5.018a.715.715 0 01-.506-.212.728.728 0 01-.21-.511V26.766c0-.192.076-.376.21-.511a.714.714 0 01.507-.212h14.34c.19 0 .372.076.506.212.135.135.21.32.21.511v14.468zm32.98 4.34c0-.191.077-.375.21-.51a.715.715 0 01.508-.213H70.98c.19 0 .372.077.507.212.134.136.21.32.21.511v17.362a.728.728 0 01-.21.511.715.715 0 01-.507.213H53.774a.715.715 0 01-.507-.213.728.728 0 01-.21-.51V45.574zm0-40.51c0-.192.077-.376.21-.511a.715.715 0 01.508-.213H70.98c.19 0 .372.077.507.213.134.135.21.32.21.51v17.363a.728.728 0 01-.21.51.715.715 0 01-.507.213H53.774a.715.715 0 01-.507-.212.728.728 0 01-.21-.512V5.064z"/></svg><svg viewBox="0 0 76 72" id="h-icon-010" xmlns="http://www.w3.org/2000/svg"><path d="M61 39h5v7h-5v-7zM51 16h5v30h-5V16zM71 9h5v37h-5V9zM40 33h6v13h-6V33zM30 23h5v23h-5V23zM20 39h5v7h-5v-7zM22 61a4 4 0 100-8 4 4 0 000 8z"/><path d="M38.824 72H5.175a5.199 5.199 0 01-3.658-1.508A5.131 5.131 0 010 66.857V5.143a5.131 5.131 0 011.518-3.635A5.199 5.199 0 015.176 0h33.648v5.143H5.175v61.714h33.648V56.571H44v10.286a5.131 5.131 0 01-1.518 3.635A5.199 5.199 0 0138.824 72z"/></svg><svg viewBox="0 0 76 72" id="h-icon-011" xmlns="http://www.w3.org/2000/svg"><path d="M22 61a4 4 0 100-8 4 4 0 000 8z"/><path d="M38.824 72H5.175a5.199 5.199 0 01-3.658-1.508A5.131 5.131 0 010 66.857V5.143a5.131 5.131 0 011.518-3.635A5.199 5.199 0 015.176 0h33.648v5.143H5.175v61.714h33.648V56.571H44v10.286a5.131 5.131 0 01-1.518 3.635A5.199 5.199 0 0138.824 72z"/><path d="M75.424 18.935a1.964 1.964 0 000-2.78l-5.58-5.579a1.964 1.964 0 00-2.779 0l-8.85 8.851-7.669-7.668a3.95 3.95 0 00-5.578 0l-3.746 3.746a3.95 3.95 0 000 5.578l7.668 7.669-8.89 8.89V46h8.358l8.91-8.91 7.668 7.668c1.873 1.873 4.396 1.183 5.58 0l3.744-3.745a3.95 3.95 0 000-5.579l-7.668-7.668 8.832-8.831zM43 18.285l4.5-4.785 3.204 3-2.78 2.888 2.78 2.78L53.5 19l3 2.5-5 5-8.5-8.216zM67 32.5l-3 2.934 2.592 2.642L69.5 35l3 3.075-5 4.982-8-8.557 5-4.5 2.5 2.5zM46.722 43.057L43 43l-.057-3.722 18.943-18.944L65.666 24l-1 1.114-17.944 17.943zM65 17l3.5-3.5 4 4L69 21l-4-4z"/></svg><svg viewBox="0 0 76 72" id="h-icon-012" xmlns="http://www.w3.org/2000/svg"><path d="M22 61a4 4 0 100-8 4 4 0 000 8z"/><path d="M38.824 72H5.175a5.199 5.199 0 01-3.658-1.508A5.131 5.131 0 010 66.857V5.143a5.131 5.131 0 011.518-3.635A5.199 5.199 0 015.176 0h33.648v5.143H5.175v61.714h33.648V56.571H44v10.286a5.131 5.131 0 01-1.518 3.635A5.199 5.199 0 0138.824 72zM49.92 40.911a14.319 14.319 0 01-3.313-.783 59.31 59.31 0 00.052-2.46v-1.123c1.011.494 2.11.837 3.26 1.007v-8.216c0-1.325.516-2.597 1.433-3.535a4.837 4.837 0 013.458-1.464h8.036a11.813 11.813 0 00-2.011-5.12 11.485 11.485 0 00-4.088-3.604 11.208 11.208 0 00-5.25-1.28 11.21 11.21 0 00-5.239 1.332A10.781 10.781 0 0045 12.579a14.405 14.405 0 016.812-1.577c2.362.043 4.678.668 6.753 1.823a14.794 14.794 0 015.163 4.808 15.208 15.208 0 012.404 6.704h4.978c1.297 0 2.54.527 3.458 1.464A5.057 5.057 0 0176 29.336v16.665a5.056 5.056 0 01-1.432 3.535A4.836 4.836 0 0171.11 51h-16.3a4.836 4.836 0 01-3.458-1.464A5.056 5.056 0 0149.919 46v-5.09zM66.131 27.67a15.141 15.141 0 01-4.208 8.94 14.55 14.55 0 01-8.745 4.301v5.09c0 .442.172.866.478 1.178.306.313.72.488 1.153.488h16.3c.432 0 .847-.175 1.153-.488.305-.313.477-.736.477-1.178V29.336c0-.442-.172-.865-.477-1.178a1.612 1.612 0 00-1.153-.488h-4.978zm-3.286 0H54.81c-.433 0-.847.175-1.153.488a1.685 1.685 0 00-.477 1.178v8.216a11.327 11.327 0 006.44-3.299 11.77 11.77 0 003.226-6.583z"/><path d="M42.334 29.557c-.342-1.268-.894-2.54-1.843-3.515C42.025 24.572 43 22.233 43 19.5c0-2.29-.458-3.864-1.287-5.123a9.001 9.001 0 00-1.267-1.488 30.115 30.115 0 00-.553-.526c-.198-.187-.38-.358-.617-.598-.488-.493-.543-.887-.543-1.094 0-.115.019-.23.055-.339a1.659 1.659 0 00-.418-1.937 1.615 1.615 0 00-1.958-.12l-.006.004-.01.006-.03.02-.097.066c-.487.351-.957.728-1.407 1.127-.813.726-1.872 1.8-2.623 3.082a15.618 15.618 0 00-1.566 3.39c-.39 1.18-.673 2.458-.673 3.53 0 2.733.975 5.07 2.509 6.545-.949.972-1.502 2.244-1.843 3.516C30 32.03 30 35.087 30 37.45v.121c0 6.762 1.251 10.778 2.668 13.166.712 1.196 1.453 1.968 2.074 2.455.33.26.69.481 1.072.657.221.081.452.132.686.151.273 0 .686-.151.686-.151a5.338 5.338 0 001.072-.657c.618-.487 1.365-1.259 2.074-2.455C41.749 48.352 43 44.333 43 37.571v-.118c0-2.366 0-5.418-.666-7.896zm-7.501-1.215c.367-.375.858-.628 1.667-.628.813 0 1.3.256 1.667.624.41.418.764 1.095 1.03 2.084.54 2.007.553 4.642.553 7.15 0 6.38-1.186 9.758-2.207 11.476-.39.657-.757 1.081-1.043 1.347a6.092 6.092 0 01-1.043-1.347c-1.02-1.721-2.207-5.096-2.207-11.477 0-2.507.013-5.142.553-7.15.266-.985.62-1.665 1.03-2.083v.004zm1.667-3.914c-1.251 0-3.25-1.406-3.25-4.928 0-.569.169-1.47.507-2.488.308-.961.733-1.88 1.264-2.737a8.21 8.21 0 011.047-1.383c.224.4.52.805.91 1.2.237.24.546.528.809.778l.403.381c.341.335.605.628.816.953.39.588.744 1.479.744 3.296 0 3.522-1.999 4.928-3.25 4.928z"/></svg><svg viewBox="0 0 76 72" id="h-icon-013" xmlns="http://www.w3.org/2000/svg"><path d="M22 61a4 4 0 100-8 4 4 0 000 8z"/><path d="M38.824 72H5.175a5.199 5.199 0 01-3.658-1.508A5.131 5.131 0 010 66.857V5.143a5.131 5.131 0 011.518-3.635A5.199 5.199 0 015.176 0h33.648v5.143H5.175v61.714h33.648V56.571H44v10.286a5.131 5.131 0 01-1.518 3.635A5.199 5.199 0 0138.824 72z"/><path d="M37.907 9l-2.313 2.326 3.442 3.465 2.31-2.326L37.906 9h.001zm30.188 0l-3.442 3.465 2.311 2.326 3.44-3.463L68.093 9h.002zM53 10.033a14.96 14.96 0 00-1.643.105c-.016 0-.033-.003-.05 0-6.663.77-11.966 6.192-12.887 12.873-.736 5.377 1.465 10.253 5.134 13.394a8.68 8.68 0 012.875 5.013v9.927h3.745C50.746 52.333 51.79 53 53 53c1.21 0 2.254-.667 2.826-1.655h3.745v-6.618h.155v-1.965c0-2.426 1.252-4.871 3.286-6.773 2.72-2.743 4.774-6.64 4.774-11.115 0-8.174-6.68-14.918-14.786-14.841zm0 3.309c6.35-.09 11.5 5.145 11.5 11.532 0 3.465-1.594 6.516-3.8 8.736l.053.053a12.923 12.923 0 00-4.009 7.757h-7.186c-.361-2.836-1.569-5.581-3.85-7.55-2.904-2.482-4.633-6.221-4.055-10.444.718-5.212 4.917-9.403 10.062-9.977.425-.06.853-.095 1.282-.106l.003-.001zM30 24.874v3.31h4.929v-3.31H30zm41.071 0v3.31H76v-3.31h-4.929zM39.036 38.266l-3.44 3.463 2.311 2.328 3.437-3.465-2.308-2.326zm27.928 0l-2.31 2.326 3.439 3.465 2.311-2.328-3.44-3.463zm-17.25 6.463h6.572v3.309h-6.572v-3.31z"/></svg><svg viewBox="0 0 74 74" id="h-icon-02" xmlns="http://www.w3.org/2000/svg"><mask id="aia" fill="#fff"><path d="M37 74C16.565 74 0 57.435 0 37S16.565 0 37 0s37 16.565 37 37-16.565 37-37 37zM23.417 38.125c-.148 3.145.137 6.279.437 9.413.018.222.1.273.296.296 1.502.2 3.008.377 4.521.47 3.567.225 7.134.514 10.715.314 2.035-.111 4.07-.178 6.098-.352a76.173 76.173 0 008.621-1.154c3.545-.718 7.056-1.572 10.36-3.126 1.502-.703 2.923-1.536 4.122-2.724.88-.87 1.51-1.876 1.517-3.182a33.003 33.003 0 00-.167-3.478 33.379 33.379 0 00-1.78-8.066c-2.16-5.986-5.586-11.059-10.455-15.059a32.82 32.82 0 00-14.25-6.893c-1.85-.388-3.721-.532-5.601-.666-2.12-.151-3.937.444-5.506 1.902-1.831 1.691-3.096 3.789-4.151 6.042-2.468 5.28-3.6 10.93-4.314 16.68a56.294 56.294 0 00-.463 9.583zm13.21-18.611c3.548.11 6.548 1.199 9.227 3.167a16.006 16.006 0 016.342 9.664c.252 1.125.359 2.265.381 3.412.019.773-.407 1.34-.97 1.813-1.135.954-2.478 1.483-3.884 1.88a38.424 38.424 0 01-8.38 1.354c-1.85.096-3.7.13-5.55.037-.711-.037-1.425-.09-2.136-.119-.222-.007-.296-.074-.31-.3-.086-1.605-.212-3.211-.186-4.817.06-3.796.348-7.566 1.47-11.226.37-1.217.824-2.405 1.553-3.463.64-.925 1.399-1.617 2.442-1.406v.004z"/></mask><path d="M37 74C16.565 74 0 57.435 0 37S16.565 0 37 0s37 16.565 37 37-16.565 37-37 37zM23.417 38.125c-.148 3.145.137 6.279.437 9.413.018.222.1.273.296.296 1.502.2 3.008.377 4.521.47 3.567.225 7.134.514 10.715.314 2.035-.111 4.07-.178 6.098-.352a76.173 76.173 0 008.621-1.154c3.545-.718 7.056-1.572 10.36-3.126 1.502-.703 2.923-1.536 4.122-2.724.88-.87 1.51-1.876 1.517-3.182a33.003 33.003 0 00-.167-3.478 33.379 33.379 0 00-1.78-8.066c-2.16-5.986-5.586-11.059-10.455-15.059a32.82 32.82 0 00-14.25-6.893c-1.85-.388-3.721-.532-5.601-.666-2.12-.151-3.937.444-5.506 1.902-1.831 1.691-3.096 3.789-4.151 6.042-2.468 5.28-3.6 10.93-4.314 16.68a56.294 56.294 0 00-.463 9.583v0zm13.21-18.611c3.548.11 6.548 1.199 9.227 3.167a16.006 16.006 0 016.342 9.664c.252 1.125.359 2.265.381 3.412.019.773-.407 1.34-.97 1.813-1.135.954-2.478 1.483-3.884 1.88a38.424 38.424 0 01-8.38 1.354c-1.85.096-3.7.13-5.55.037-.711-.037-1.425-.09-2.136-.119-.222-.007-.296-.074-.31-.3-.086-1.605-.212-3.211-.186-4.817.06-3.796.348-7.566 1.47-11.226.37-1.217.824-2.405 1.553-3.463.64-.925 1.399-1.617 2.442-1.406v.004z" stroke="#A1B0C7" mask="url(#aia)"/></svg><svg viewBox="0 0 78 74" id="h-icon-03" xmlns="http://www.w3.org/2000/svg"><path d="M72.429 34.154V51.23H5.57V5.692H39V0H5.571c-1.477 0-2.894.6-3.94 1.667A5.756 5.756 0 000 5.692v45.539c0 1.51.587 2.957 1.632 4.025a5.512 5.512 0 003.94 1.667h22.285v11.385H16.714V74h44.572v-5.692H50.143V56.923h22.286c1.477 0 2.894-.6 3.94-1.667A5.756 5.756 0 0078 51.23V34.154h-5.571zM44.57 68.308H33.43V56.923H44.57v11.385z"/><path d="M52.929 31.308L39 17.19l4.43-4.469 9.499 9.62L73.57 1.423 78 5.92 52.929 31.308z"/></svg><svg viewBox="0 0 76 68" id="h-icon-04" xmlns="http://www.w3.org/2000/svg"><path d="M67.5 0h-59A8.5 8.5 0 000 8.5v51A8.5 8.5 0 008.5 68h59a8.5 8.5 0 008.5-8.5v-51A8.5 8.5 0 0067.5 0zM46.25 62.5H5.5V26.75h40.75V62.5zm24.25 0H52.75V26.75H70.5V62.5zm0-41.25h-65V5.5h65v15.75z"/><path d="M32.55 34h-6.205a.73.73 0 00-.515.212L13.424 46.615a1.456 1.456 0 000 2.055l5.906 5.906a1.457 1.457 0 002.055 0l12.403-12.398a.73.73 0 00.212-.515v-6.21A1.446 1.446 0 0032.55 34z"/><mask id="aka" fill="#fff"><path d="M29.5 40a1.5 1.5 0 110-3 1.5 1.5 0 010 3z"/></mask><path d="M29.5 40a1.5 1.5 0 110-3 1.5 1.5 0 010 3z" mask="url(#aka)"/><path d="M25 58l12.804-13.1a.693.693 0 00.196-.5V38"/></svg><svg viewBox="0 0 76 68" id="h-icon-05" xmlns="http://www.w3.org/2000/svg"><g clip-path="url(#alclip0_55_1278)"><path d="M49 13v5h-6v-5h6zM49 23v20h-6V23h6zM36 13v5h-6v-5h6zM23 13v5h-5v-5h5z"/><path d="M10.071 5.182h53.25v7.772h-7.607v31.091h7.607v7.773H43.036V57H63.32a5.017 5.017 0 003.587-1.518 5.24 5.24 0 001.485-3.664v-7.773h2.536a5.017 5.017 0 003.586-1.517A5.24 5.24 0 0076 38.864V18.136a5.24 5.24 0 00-1.485-3.664 5.017 5.017 0 00-3.586-1.518h-2.536V5.182a5.24 5.24 0 00-1.486-3.664A5.017 5.017 0 0063.322 0h-53.25a5.017 5.017 0 00-3.586 1.518A5.24 5.24 0 005 5.182V28.5h5.071V5.182zM70.93 18.136v20.728H60.786V18.136h10.143z"/><path d="M33.448 33.067h-6.209a17.853 17.853 0 016.47 6.557 17.51 17.51 0 012.29 8.86 17.518 17.518 0 01-2.5 8.805 17.87 17.87 0 01-6.624 6.407A18.22 18.22 0 0117.889 66a18.216 18.216 0 01-8.956-2.413 17.862 17.862 0 01-6.543-6.486A17.513 17.513 0 010 48.267h5.146a12.519 12.519 0 001.807 6.49 12.779 12.779 0 004.929 4.663 13.029 13.029 0 006.658 1.52 13.005 13.005 0 006.51-2.054 12.732 12.732 0 004.521-5.047 12.5 12.5 0 00-1.102-12.931 12.827 12.827 0 00-5.313-4.234V43.2H18.01V28h15.438v5.067z"/></g><defs><clipPath id="alclip0_55_1278"><path fill="#fff" d="M0 0h76v68H0z"/></clipPath></defs></svg><svg viewBox="0 0 78 74" id="h-icon-06" xmlns="http://www.w3.org/2000/svg"><g clip-path="url(#amclip0_55_1257)"><path d="M13 59h27v5H13v-5zM19 70h16v5H19v-5zM45.957 38a25.755 25.755 0 01-5.063 5.715C37.996 46.36 35 49.093 35 54h5.412c0-2.453 1.424-3.867 4.154-6.363A26.682 26.682 0 0052 38h-6.043zM27.15 5.402A21.612 21.612 0 0138 8.326V2.27A27.205 27.205 0 0012.287 4.4a27.016 27.016 0 00-9.006 9.754A26.87 26.87 0 00.027 27.001 24.686 24.686 0 002.23 38.408a24.801 24.801 0 007.182 9.155c2.745 2.525 4.177 3.956 4.177 6.437h5.425c0-4.968-3.011-7.738-5.93-10.422a19.415 19.415 0 01-5.895-7.34 19.321 19.321 0 01-1.737-9.237 21.576 21.576 0 016.363-15.265 21.777 21.777 0 0115.336-6.334zM52.929 31.308L39 17.19l4.43-4.469 9.499 9.62L73.57 1.423 78 5.92 52.929 31.308z"/></g><defs><clipPath id="amclip0_55_1257"><path fill="#fff" d="M0 0h78v74H0z"/></clipPath></defs></svg><svg fill="none" viewBox="0 0 76 72" id="h-icon-07" xmlns="http://www.w3.org/2000/svg"><path clip-rule="evenodd" d="M12.286 2.143h51.428A10.286 10.286 0 0174 12.428v47.143a10.286 10.286 0 01-10.286 10.286H12.286A10.286 10.286 0 012 59.571V12.43A10.286 10.286 0 0112.286 2.143z" stroke="#009F90" stroke-width="4" stroke-linecap="round" stroke-linejoin="round"/><path clip-rule="evenodd" d="M53.429 15.429h5.142a5.143 5.143 0 015.143 5.143v5.142a5.143 5.143 0 01-5.143 5.143H53.43a5.143 5.143 0 01-5.143-5.143v-5.142a5.143 5.143 0 015.143-5.143v0z" stroke="#009F90" stroke-width="4" stroke-linecap="round" stroke-linejoin="round"/><path d="M12.286 18.143H38M12.286 45H63M12.286 56H63M12.286 28.429H38" stroke="#009F90" stroke-width="4" stroke-linecap="round" stroke-linejoin="round"/></svg><svg viewBox="0 0 74 74" id="h-icon-08" xmlns="http://www.w3.org/2000/svg"><g clip-path="url(#aoclip0_103_5511)"><path d="M74 60.846v-4.461h-4.652a11.126 11.126 0 00-1.621-3.91l3.3-3.325-3.132-3.154-3.3 3.324a10.956 10.956 0 00-3.88-1.633V43h-4.43v4.687a10.956 10.956 0 00-3.88 1.633l-3.3-3.324-3.131 3.154 3.3 3.324a11.126 11.126 0 00-1.622 3.91H43v4.462h4.652a11.126 11.126 0 001.621 3.91l-3.3 3.325 3.132 3.154 3.3-3.324a10.956 10.956 0 003.88 1.633v4.687h4.43v-4.687a10.956 10.956 0 003.88-1.633l3.3 3.324 3.131-3.154-3.3-3.324a11.126 11.126 0 001.622-3.91H74zm-15.5 4.462a6.608 6.608 0 01-3.69-1.128 6.681 6.681 0 01-2.447-3.004 6.738 6.738 0 01-.378-3.866 6.708 6.708 0 011.818-3.427 6.628 6.628 0 013.401-1.831 6.597 6.597 0 013.838.38 6.654 6.654 0 012.981 2.465 6.728 6.728 0 01-.828 8.449 6.625 6.625 0 01-4.695 1.962z"/><path d="M67.571 0H4.43a4.417 4.417 0 00-3.13 1.308A4.483 4.483 0 000 4.462v64.615a4.483 4.483 0 001.298 3.153 4.416 4.416 0 003.13 1.308h36.143v-4.461H4.43v-51.23H67.57v21.691H72V4.462a4.483 4.483 0 00-1.298-3.154A4.417 4.417 0 0067.572 0zm0 13.385H4.43V4.462H67.57v8.923z"/><path d="M49.857 11.154a2.222 2.222 0 002.214-2.23c0-1.233-.99-2.232-2.214-2.232a2.223 2.223 0 00-2.214 2.231c0 1.232.991 2.23 2.214 2.23zM56.5 11.154a2.223 2.223 0 002.214-2.23c0-1.233-.991-2.232-2.214-2.232a2.223 2.223 0 00-2.214 2.231c0 1.232.991 2.23 2.214 2.23zM63.143 11.154a2.222 2.222 0 002.214-2.23c0-1.233-.991-2.232-2.214-2.232a2.223 2.223 0 00-2.214 2.231c0 1.232.99 2.23 2.214 2.23z"/></g><defs><clipPath id="aoclip0_103_5511"><path fill="#fff" d="M0 0h74v74H0z"/></clipPath></defs></svg><svg viewBox="0 0 74 74" id="h-icon-09" xmlns="http://www.w3.org/2000/svg"><path d="M25.438 23.125a6.938 6.938 0 00-6.938 6.938v13.875a6.938 6.938 0 006.938 6.937h18.768c1.85 0 3.649-.634 5.087-1.804l8.26-6.678a6.938 6.938 0 000-10.786l-8.26-6.678a8.094 8.094 0 00-5.087-1.804H25.437zm-2.313 6.938a2.312 2.312 0 012.313-2.313h18.768a3.47 3.47 0 012.178.772l8.26 6.679a2.313 2.313 0 010 3.598l-8.26 6.679a3.47 3.47 0 01-2.178.772H25.437a2.312 2.312 0 01-2.312-2.313V30.063zM37 0a37 37 0 100 74 37 37 0 000-74zM4.625 37a32.375 32.375 0 1164.75 0 32.375 32.375 0 01-64.75 0z"/></svg><svg fill="none" viewBox="0 0 80 80" id="hero-icon-01" xmlns="http://www.w3.org/2000/svg"><g clip-path="url(#aqclip0_322_33)"><path d="M80 40c0 3.758-1.094 7.431-3.145 10.556a18.742 18.742 0 01-8.377 6.998 18.363 18.363 0 01-10.786 1.081 18.568 18.568 0 01-9.557-5.2 2.984 2.984 0 01-.11-.12L28.04 30.348a13.26 13.26 0 00-6.83-3.67 13.117 13.117 0 00-7.682.799 13.389 13.389 0 00-5.958 5A13.745 13.745 0 005.334 40c0 2.678.778 5.295 2.237 7.523a13.389 13.389 0 005.958 5 13.117 13.117 0 007.683.8 13.26 13.26 0 006.829-3.671l2.84-3.264c.232-.267.513-.486.828-.642a2.629 2.629 0 012.939.407c.262.236.476.523.63.844a2.751 2.751 0 01-.405 2.99l-2.896 3.328c-.035.041-.072.081-.11.12a18.568 18.568 0 01-9.558 5.2 18.362 18.362 0 01-10.785-1.081 18.742 18.742 0 01-8.377-6.998A19.242 19.242 0 010 40c0-3.758 1.095-7.431 3.146-10.556a18.743 18.743 0 018.377-6.998 18.362 18.362 0 0110.785-1.08 18.568 18.568 0 019.558 5.199c.038.039.075.079.11.12l19.984 22.967a13.26 13.26 0 006.829 3.67c2.582.511 5.255.233 7.682-.799a13.389 13.389 0 005.959-5A13.745 13.745 0 0074.667 40c0-2.677-.778-5.295-2.236-7.523a13.389 13.389 0 00-5.959-5 13.117 13.117 0 00-7.682-.799 13.26 13.26 0 00-6.83 3.67l-2.839 3.264a2.65 2.65 0 01-1.834.907 2.638 2.638 0 01-1.928-.678 2.733 2.733 0 01-.893-1.866 2.744 2.744 0 01.663-1.963l2.895-3.327c.036-.041.072-.081.11-.12a18.567 18.567 0 019.558-5.2 18.362 18.362 0 0110.786 1.081 18.742 18.742 0 018.377 6.998A19.242 19.242 0 0180 40z" fill="#009F90"/></g><g clip-path="url(#aqclip1_322_33)" fill="#009F90"><path d="M29.445 76.854A19.242 19.242 0 0040 80c3.757 0 7.43-1.095 10.555-3.146a18.741 18.741 0 006.998-8.377l-5.03-2.006a13.389 13.389 0 01-5 5.96 13.745 13.745 0 01-7.523 2.236c-2.678 0-5.295-.779-7.524-2.237a13.389 13.389 0 01-5-5.959l-5.03 2.006a18.741 18.741 0 006.998 8.377zM47.524 7.57a13.389 13.389 0 015 5.959l5.03-2.006a18.742 18.742 0 00-6.998-8.377A19.242 19.242 0 0040.001 0a19.242 19.242 0 00-10.556 3.146 18.742 18.742 0 00-6.998 8.377l5.03 2.006a13.389 13.389 0 015-5.96 13.745 13.745 0 017.524-2.236c2.677 0 5.295.779 7.523 2.237z"/></g><defs><clipPath id="aqclip0_322_33"><path fill="#fff" transform="translate(0 21)" d="M0 0h80v38H0z"/></clipPath><clipPath id="aqclip1_322_33"><path fill="#fff" transform="rotate(90 29.5 29.5)" d="M0 0h80v38H0z"/></clipPath></defs></svg><svg fill="none" viewBox="0 0 80 80" id="hero-icon-010" xmlns="http://www.w3.org/2000/svg"><path d="M5.623 71.018l1.429-2.754a.461.461 0 01.181-.192.527.527 0 01.534 0c.08.047.143.114.182.192l1.43 2.754 3.194.445c.41.057.572.537.275.812l-2.31 2.141.544 3.027c.07.389-.357.685-.724.501L7.5 76.515l-2.857 1.43c-.367.183-.795-.113-.725-.5l.545-3.029-2.31-2.141c-.299-.275-.135-.755.275-.813l3.195-.444zM21.623 71.018l1.429-2.754a.462.462 0 01.181-.192.528.528 0 01.534 0c.08.047.143.114.182.192l1.43 2.754 3.194.445c.41.057.572.537.275.812l-2.31 2.141.544 3.027c.07.389-.357.685-.724.501L23.5 76.515l-2.857 1.43c-.367.183-.795-.113-.725-.5l.545-3.029-2.31-2.141c-.299-.275-.135-.755.275-.813l3.195-.444zM37.623 71.018l1.429-2.754a.462.462 0 01.181-.192.528.528 0 01.535 0c.079.047.142.114.18.192l1.43 2.754 3.195.445c.41.057.572.537.275.812l-2.31 2.141.544 3.027c.07.389-.357.685-.724.501L39.5 76.515l-2.857 1.43c-.367.183-.795-.113-.725-.5l.545-3.029-2.31-2.141c-.299-.275-.135-.755.275-.813l3.195-.444zM53.953 71.018l1.558-2.754a.48.48 0 01.198-.192A.616.616 0 0156 68c.104 0 .205.025.292.072a.48.48 0 01.197.192l1.56 2.754 3.485.445c.447.057.624.537.3.812l-2.52 2.141.594 3.027c.076.389-.39.685-.79.501L56 76.515l-3.117 1.43c-.4.183-.867-.113-.79-.5l.594-3.029-2.52-2.141c-.326-.275-.147-.755.3-.813l3.486-.444zM70.623 71.018l1.429-2.754a.462.462 0 01.181-.192.528.528 0 01.534 0c.08.047.143.114.182.192l1.43 2.754 3.194.445c.41.057.572.537.275.812l-2.31 2.141.544 3.027c.07.389-.357.685-.724.501L72.5 76.515l-2.857 1.43c-.367.183-.795-.113-.725-.5l.545-3.029-2.31-2.141c-.299-.275-.135-.755.275-.813l3.195-.444z" stroke="#009F90" stroke-width="3" stroke-linecap="round" stroke-linejoin="round"/><path d="M42.857 11.429H31.43v5.714H48.57V0h-5.714v11.429zM11.429 42.857H0v5.715h17.143V31.429h-5.714v11.428zM42.857 42.857H31.43v5.715H48.57V31.429h-5.714v11.428zM74.286 42.857H62.857v5.715H80V31.429h-5.714v11.428z" fill="#009F90"/></svg><svg fill="none" viewBox="0 0 78 78" id="hero-icon-011" xmlns="http://www.w3.org/2000/svg"><path d="M70 36c0-8.752-3.53-17.146-9.812-23.334C53.906 6.476 47.385 4 38.5 4c-8.885 0-15.406 2.477-21.688 8.665C10.529 18.855 7 27.248 7 36" stroke="#009F90" stroke-width="4" stroke-linecap="round" stroke-linejoin="round"/><path d="M2 52.019V44.98a7.505 7.505 0 015.681-7.279l6.525-1.635A2.25 2.25 0 0117 38.25v20.495a2.252 2.252 0 01-2.797 2.187L7.678 59.3A7.5 7.5 0 012 52.022v-.003zM76 52.02v-7.04a7.506 7.506 0 00-5.681-7.277l-6.525-1.636A2.25 2.25 0 0061 38.25v20.496a2.252 2.252 0 002.794 2.187l6.525-1.632A7.5 7.5 0 0076 52.023v-.004zM68 61v1.8c0 1.91-.766 3.74-2.13 5.091A7.31 7.31 0 0160.727 70H48" stroke="#009F90" stroke-width="4"/><path d="M44.5 76h-11a5.5 5.5 0 010-11h11a5.5 5.5 0 010 11z" stroke="#009F90" stroke-width="4"/></svg><svg fill="none" viewBox="0 0 80 80" id="hero-icon-012" xmlns="http://www.w3.org/2000/svg"><path d="M15 3.2v46.776H9V3.2c0-.849.316-1.663.879-2.263A2.908 2.908 0 0112 0c.796 0 1.559.337 2.121.937.563.6.879 1.414.879 2.263zM9 76.8v-5.776h6V76.8c0 .849-.316 1.663-.879 2.263-.562.6-1.325.937-2.121.937a2.908 2.908 0 01-2.121-.937A3.311 3.311 0 019 76.8z" fill="#009F90"/><circle cx="12" cy="60" r="10" stroke="#009F90" stroke-width="4"/><path d="M43 76.8V30.024h-6V76.8c0 .849.316 1.663.879 2.263.562.6 1.325.937 2.121.937s1.559-.337 2.121-.937c.563-.6.879-1.414.879-2.263zM37 3.2v5.776h6V3.2c0-.849-.316-1.663-.879-2.263A2.908 2.908 0 0040 0c-.796 0-1.559.337-2.121.937A3.312 3.312 0 0037 3.2z" fill="#009F90"/><circle r="10" transform="matrix(1 0 0 -1 40 20)" stroke="#009F90" stroke-width="4"/><path d="M71 3.2v46.776h-6V3.2c0-.849.316-1.663.879-2.263A2.908 2.908 0 0168 0c.796 0 1.559.337 2.121.937.563.6.879 1.414.879 2.263zM65 76.8v-5.776h6V76.8c0 .849-.316 1.663-.879 2.263-.562.6-1.325.937-2.121.937a2.908 2.908 0 01-2.121-.937A3.311 3.311 0 0165 76.8z" fill="#009F90"/><circle cx="68" cy="60" r="10" stroke="#009F90" stroke-width="4"/></svg><svg fill="none" viewBox="0 0 79 75" id="hero-icon-02" xmlns="http://www.w3.org/2000/svg"><path d="M3.763 7.5c0-.995.396-1.948 1.101-2.652a3.768 3.768 0 012.66-1.098h22.572L39.5 15h31.976c.998 0 1.954.395 2.66 1.098a3.744 3.744 0 011.102 2.652V67.5c0 .995-.397 1.948-1.102 2.652a3.768 3.768 0 01-2.66 1.098H7.524a3.768 3.768 0 01-2.66-1.098A3.744 3.744 0 013.763 67.5v-60z" stroke="#009F90" stroke-width="5" stroke-linejoin="round"/><path d="M20.691 33.75l9.405 9.375L20.69 52.5" stroke="#009F90" stroke-width="4" stroke-linecap="round" stroke-linejoin="round"/><path d="M43.263 52.5H58.31" stroke="#009F90" stroke-width="4" stroke-linecap="round"/><path d="M42.474 44.312c0 .462-.336.756-.924.756-.686 0-1.54-.322-2.1-1.036l-1.274 1.526c.476 1.05 2.002 1.61 3.318 1.61 1.89 0 3.36-1.176 3.36-2.884 0-3.192-4.088-2.8-4.088-4.424 0-.448.364-.728.98-.728.728 0 1.05.252 1.484.658l1.204-1.68c-.616-.658-1.624-1.078-2.884-1.078-1.96 0-3.164 1.316-3.164 2.828 0 3.164 4.088 2.982 4.088 4.452zM46.669 47h5.95v-2.1h-3.71v-1.778h3.15v-2.1h-3.15V39.3h3.57v-2.1h-5.81V47zm7.353-4.9c0 3.122 2.226 5.068 5.208 5.068s5.208-2.1 5.208-5.068c0-3.122-2.227-5.068-5.209-5.068-3.121 0-5.207 2.226-5.207 5.068zm2.38 0c0-1.792 1.203-2.968 2.828-2.968 1.582 0 2.828 1.176 2.828 2.968 0 1.652-.966 2.968-2.828 2.968-1.569 0-2.828-1.288-2.828-2.968z" fill="#009F90"/></svg><svg fill="none" viewBox="0 0 80 80" id="hero-icon-03" xmlns="http://www.w3.org/2000/svg"><path d="M.265.526v6.222l11.384 13.515h6.892L6.35 5.79h66.105L46.806 37.76v26.15l-13.329 10.3h-.226V58.42h-5.278v21.053h7.69L52.084 66.09V39.607L78.473 6.713V.526H.265z" fill="#009F90"/><path d="M21.112 38.722l9.972-9.945-3.732-3.721L17.38 35l-9.972-9.944-3.732 3.721 9.972 9.945-9.972 9.944 3.732 3.722 9.972-9.945 9.972 9.945 3.732-3.722-9.972-9.944z" fill="#009F90"/></svg><svg fill="none" viewBox="0 0 80 80" id="hero-icon-04" xmlns="http://www.w3.org/2000/svg"><g clip-path="url(#awclip0_26_75)"><path d="M50.667 77.333H48a2.666 2.666 0 004.267 2.134l-1.6-2.134zm10.666-8l1.6-2.133a2.667 2.667 0 00-3.2 0l1.6 2.133zm10.667 8l-1.6 2.134a2.666 2.666 0 004.267-2.134H72zM61.333 58.667A13.333 13.333 0 0148 45.333h-5.333A18.667 18.667 0 0061.333 64v-5.333zm13.334-13.334a13.333 13.333 0 01-13.334 13.334V64A18.667 18.667 0 0080 45.333h-5.333zM61.333 32a13.334 13.334 0 0113.334 13.333H80a18.667 18.667 0 00-18.667-18.666V32zm0-5.333a18.667 18.667 0 00-18.666 18.666H48A13.334 13.334 0 0161.333 32v-5.333zM48 56v21.333h5.333V56H48zm4.267 23.467l10.666-8-3.2-4.267-10.666 8 3.2 4.267zm7.466-8l10.667 8 3.2-4.267-10.667-8-3.2 4.267zm14.934 5.866V56h-5.334v21.333h5.334zM80 26.667V8h-5.333v18.667H80zM72 0H8v5.333h64V0zM0 8v64h5.333V8H0zm8 72h34.667v-5.333H8V80zm-8-8a8 8 0 008 8v-5.333A2.667 2.667 0 015.333 72H0zM8 0a8 8 0 00-8 8h5.333A2.667 2.667 0 018 5.333V0zm72 8a8 8 0 00-8-8v5.333A2.667 2.667 0 0174.667 8H80zM16 26.667h26.667v-5.334H16v5.334zm0 16h16v-5.334H16v5.334z" fill="#009F90"/></g><defs><clipPath id="awclip0_26_75"><path fill="#fff" d="M0 0h80v80H0z"/></clipPath></defs></svg><svg fill="none" viewBox="0 0 82 82" id="hero-icon-05" xmlns="http://www.w3.org/2000/svg"><path d="M74.641 3.171H7.359c-2.322 0-4.205 1.894-4.205 4.229v50.286c0 2.335 1.883 4.228 4.205 4.228h67.282c2.322 0 4.205-1.893 4.205-4.228V7.4c0-2.335-1.883-4.229-4.205-4.229zM19.974 78.829h42.052M28.385 61.914v16.914M53.615 61.914v16.914M28.385 45V28.086M41 45v-4.228M53.615 45v-8.457" stroke="#009F90" stroke-width="5" stroke-linecap="round" stroke-linejoin="round"/></svg><svg fill="none" viewBox="0 0 78 79" id="hero-icon-06" xmlns="http://www.w3.org/2000/svg"><path d="M29.15 23.776A19.587 19.587 0 0139 21.181c8.084 0 14.902 4.696 17.036 11.12M21.273 52.953V36.577c0-1.8.354-3.527 1.01-5.13l-1.01 21.506zm35.454-7.06v-4.184 4.184zM46.09 56.483v-18.17c0-3.611-3.172-6.541-7.09-6.541-3.918 0-7.09 2.93-7.09 6.541v2.803m0 15.367v-7.685 7.685z" stroke="#009F90" stroke-width="5" stroke-linecap="round" stroke-linejoin="round"/><path d="M39 74.134c-19.581 0-35.455-15.804-35.455-35.302C3.545 19.335 19.42 3.53 39 3.53c19.582 0 35.455 15.805 35.455 35.302 0 3.69-.568 7.248-1.624 10.59M64.676 67.928l7.52 7.488m-15.04.003l7.524-7.487-7.524 7.487zm7.524-7.487l7.52-7.492-7.52 7.492zm0 0l-7.527-7.495 7.527 7.495z" stroke="#009F90" stroke-width="5" stroke-linecap="round" stroke-linejoin="round"/></svg><svg fill="none" viewBox="0 0 78 78" id="hero-icon-07" xmlns="http://www.w3.org/2000/svg"><g clip-path="url(#azclip0_103_1039)"><circle cx="39" cy="11" r="9" stroke="#009F90" stroke-width="4"/><circle cx="67" cy="11" r="9" stroke="#009F90" stroke-width="4"/><circle cx="11" cy="67" r="9" stroke="#009F90" stroke-width="4"/><path d="M45.581 60.326V73.49H32.418V60.326h13.163zm4.582-4.581H27.837V78.07h22.326V55.745z" fill="#009F90"/><path d="M67 54c-.297 0-.592.01-.884.03V39.79H13.882a3.582 3.582 0 01-3.581-3.582V20.254H1.928V1.928h18.327v18.326H11.881v17.954h52.234a3.582 3.582 0 013.582 3.582v12.228A13.223 13.223 0 0067 54zM4.51 2.51h-2v17.163h17.163V2.51H4.51zM76 67a9 9 0 11-18 0 9 9 0 0118 0z" stroke="#009F90" stroke-width="4"/></g><defs><clipPath id="azclip0_103_1039"><path fill="#fff" d="M0 0h78v78H0z"/></clipPath></defs></svg><svg fill="none" viewBox="0 0 80 80" id="hero-icon-08" xmlns="http://www.w3.org/2000/svg"><path d="M68.25 5.5c3.45 0 6.25 2.8 6.25 6.25v31.5c0 3.45-2.8 6.25-6.25 6.25H60V55h6.25A13.75 13.75 0 0080 41.25v-27.5A13.75 13.75 0 0066.25 0h-27.5A13.75 13.75 0 0025 13.75v27.5A13.75 13.75 0 0038.75 55h3.75v-5.5h-5.75c-3.45 0-6.25-2.8-6.25-6.25v-31.5c0-3.45 2.8-6.25 6.25-6.25h31.5zM55 38.75A13.75 13.75 0 0041.25 25h-5v5.5h7c3.45 0 6.25 2.8 6.25 6.25v31.5c0 3.45-2.8 6.25-6.25 6.25h-31.5c-3.45 0-6.25-2.8-6.25-6.25v-31.5c0-3.45 2.8-6.25 6.25-6.25h9.5V25h-7.5A13.75 13.75 0 000 38.75v27.5A13.75 13.75 0 0013.75 80h27.5A13.75 13.75 0 0055 66.25v-27.5z" fill="#009F90"/></svg><svg fill="none" viewBox="0 0 82 82" id="hero-icon-09" xmlns="http://www.w3.org/2000/svg"><path d="M30.934 22.724c-.021-3.525 1.614-6.181 4.917-8.14-1.847-2.584-4.642-4.005-8.326-4.279-3.488-.269-7.305 1.985-8.702 1.985-1.477 0-4.854-1.892-7.511-1.892C5.828 10.481 0 14.667 0 23.184c0 2.517.471 5.116 1.413 7.793 1.26 3.525 5.802 12.16 10.54 12.021 2.477-.056 4.229-1.715 7.452-1.715 3.128 0 4.748 1.715 7.511 1.715 4.78-.067 8.888-7.917 10.084-11.452-6.41-2.951-6.066-8.641-6.066-8.822zm-.561 13.799c-.757 1.028-1.52 1.84-2.218 2.361-.556.414-.985.59-1.27.6-.477-.005-.937-.119-1.837-.455a4.176 4.176 0 00-.222-.082l-.233-.088c-.921-.347-1.472-.533-2.176-.714a12.137 12.137 0 00-3.012-.382c-1.07 0-2.075.13-3.075.372-.736.181-1.355.383-2.26.713-.037.016-.43.16-.54.202l-.46.165c-.551.186-.9.264-1.213.269a.483.483 0 01-.095-.01 1.008 1.008 0 01-.217-.067c-.239-.093-.524-.264-.847-.507-.741-.563-1.557-1.447-2.388-2.579-1.455-1.995-2.831-4.64-3.493-6.496-.815-2.315-1.218-4.532-1.218-6.646 0-3.111.943-5.478 2.562-7.086a7.628 7.628 0 015.177-2.186c.313.005.768.078 1.345.233.455.119.953.279 1.625.511.2.073.894.316.979.347.408.144.715.248 1.016.34.964.3 1.71.466 2.52.466.82 0 1.524-.17 2.525-.507.376-.124 1.741-.62 1.985-.702 1.355-.47 2.355-.724 3.218-.786.254-.02.482-.02.699-.005 1.201.093 2.228.325 3.102.713-1.99 2.243-3.018 4.987-3.012 8.186-.016.76.047 1.639.27 2.677a12.622 12.622 0 002.006 4.6 13.331 13.331 0 002.895 2.987c-.608 1.225-1.355 2.491-2.138 3.556zM25.37 6.96c2.683-3.11 2.44-5.943 2.36-6.961-2.37.134-5.113 1.576-6.674 3.349-1.72 1.902-2.732 4.253-2.515 6.904 2.562.192 4.902-1.095 6.829-3.292z" fill="#009F90"/><path d="M45.356 51.186h.002a2.111 2.111 0 011.489.613 2.087 2.087 0 01.614 1.478V65.125a2.09 2.09 0 01-.615 1.48 2.112 2.112 0 01-2.98 0 2.09 2.09 0 01-.616-1.48V53.278c0-1.151.937-2.092 2.106-2.092zm21.219-10.842l.745.297.739.42c2.762 1.573 4.155 5.096 4.384 8.766H51.555c.231-3.67 1.624-7.194 4.385-8.762l.777-.442.708-.282a12.336 12.336 0 014.575-.87c1.632 0 3.175.315 4.575.873zm-.793 7.024l.048.003h.047a2.16 2.16 0 002.158-2.154 2.153 2.153 0 00-2.158-2.155h-.047l-.048.003a2.162 2.162 0 00-1.996 2.152 2.156 2.156 0 001.996 2.15zm-9.189-.638l.89-.879-.89.88a2.16 2.16 0 003.696-1.5 2.155 2.155 0 00-2.144-2.172 2.16 2.16 0 00-2.174 2.14c-.005.574.22 1.124.622 1.531zm-1.455 25.646v-1.25H52.35c-.256 0-.378-.05-.429-.08a.407.407 0 01-.156-.173c-.145-.262-.245-.755-.245-1.559V54.018h20.955v15.296c0 .804-.1 1.298-.246 1.56a.408.408 0 01-.156.173c-.051.029-.173.08-.428.08H68.856v7.528a2.097 2.097 0 01-2.11 2.092c-1.164 0-2.101-.937-2.101-2.092v-7.529H59.349v7.53a2.09 2.09 0 01-.615 1.479 2.111 2.111 0 01-2.981 0 2.09 2.09 0 01-.615-1.48v-6.279zm21.4-19.098c0-1.151.937-2.092 2.106-2.092 1.17 0 2.106.94 2.106 2.092v11.847a2.09 2.09 0 01-.615 1.48 2.112 2.112 0 01-2.981 0 2.09 2.09 0 01-.615-1.48V53.278z" stroke="#009F90" stroke-width="2.5"/><path d="M59.06 25.06a1.5 1.5 0 00-2.12-2.12l2.12 2.12zM22.94 56.94a1.5 1.5 0 002.12 2.12l-2.12-2.12zm34-34l-34 34 2.12 2.12 34-34-2.12-2.12z" fill="#009F90"/></svg><svg aria-hidden="true" data-prefix="fas" data-icon="at" class="bcsvg-inline--fa bcfa-at bcfa-w-16" viewBox="0 0 512 512" id="icon-email" xmlns="http://www.w3.org/2000/svg"><path d="M256 8C118.941 8 8 118.919 8 256c0 137.059 110.919 248 248 248 48.154 0 95.342-14.14 135.408-40.223 12.005-7.815 14.625-24.288 5.552-35.372l-10.177-12.433c-7.671-9.371-21.179-11.667-31.373-5.129C325.92 429.757 291.314 440 256 440c-101.458 0-184-82.542-184-184S154.542 72 256 72c100.139 0 184 57.619 184 160 0 38.786-21.093 79.742-58.17 83.693-17.349-.454-16.91-12.857-13.476-30.024l23.433-121.11C394.653 149.75 383.308 136 368.225 136h-44.981a13.518 13.518 0 00-13.432 11.993l-.01.092c-14.697-17.901-40.448-21.775-59.971-21.775-74.58 0-137.831 62.234-137.831 151.46 0 65.303 36.785 105.87 96 105.87 26.984 0 57.369-15.637 74.991-38.333 9.522 34.104 40.613 34.103 70.71 34.103C462.609 379.41 504 307.798 504 232 504 95.653 394.023 8 256 8zm-21.68 304.43c-22.249 0-36.07-15.623-36.07-40.771 0-44.993 30.779-72.729 58.63-72.729 22.292 0 35.601 15.241 35.601 40.77 0 45.061-33.875 72.73-58.161 72.73z"/></svg><svg fill="none" viewBox="0 0 20 21" id="icon-m-phone" xmlns="http://www.w3.org/2000/svg"><path d="M19.414 14.64c.39.157.586.443.586.86a.434.434 0 01-.04.195l-.937 4.063c-.104.495-.403.742-.898.742-5 0-9.27-1.77-12.813-5.313C1.772 11.646 0 7.375 0 2.376c0-.495.247-.794.742-.898L4.805.539A.435.435 0 015 .5c.417 0 .703.195.86.586L7.733 5.46a.775.775 0 01.079.351c0 .287-.118.534-.352.743L5.117 8.469c1.459 3.15 3.763 5.456 6.914 6.914l1.914-2.344c.209-.234.456-.351.742-.351.13 0 .248.025.352.078l4.375 1.875z" fill="#009F90"/></svg><svg aria-hidden="true" data-prefix="fas" data-icon="phone-alt" class="besvg-inline--fa befa-phone-alt befa-w-16" viewBox="0 0 512 512" id="icon-phone" xmlns="http://www.w3.org/2000/svg"><path d="M497.39 361.8l-112-48a24 24 0 00-28 6.9l-49.6 60.6A370.66 370.66 0 01130.6 204.11l60.6-49.6a23.94 23.94 0 006.9-28l-48-112A24.16 24.16 0 00122.6.61l-104 24A24 24 0 000 48c0 256.5 207.9 464 464 464a24 24 0 0023.4-18.6l24-104a24.29 24.29 0 00-14.01-27.6z"/></svg><svg fill="none" viewBox="0 0 20 21" id="mobile-phone" xmlns="http://www.w3.org/2000/svg"><path d="M19.414 14.64c.39.157.586.443.586.86a.434.434 0 01-.04.195l-.937 4.063c-.104.495-.403.742-.898.742-5 0-9.27-1.77-12.813-5.313C1.772 11.646 0 7.375 0 2.376c0-.495.247-.794.742-.898L4.805.539A.435.435 0 015 .5c.417 0 .703.195.86.586L7.733 5.46a.775.775 0 01.079.351c0 .287-.118.534-.352.743L5.117 8.469c1.459 3.15 3.763 5.456 6.914 6.914l1.914-2.344c.209-.234.456-.351.742-.351.13 0 .248.025.352.078l4.375 1.875z" fill="#009F90"/></svg><svg fill="none" viewBox="0 0 78 75" id="pr-01" xmlns="http://www.w3.org/2000/svg"><path d="M46 64h21v4H46v-4zM46 54h32v4H46v-4zM46 43h32v4H46v-4z" fill="#009F90"/><path d="M52.58 24.688L40.345 0 28.11 24.688.753 28.648 20.55 47.865 15.874 75l19.091-9.994v-5.053l-13.944 8.254 3.83-19.436.478-2.777-2.025-1.964-13.99-12.643 18.57-2.398 2.797-.404 1.254-2.526 8.41-16.955 8.41 16.955 1.253 2.526 2.797.404 19.05 2.906.766-4.306-20.04-2.9z" fill="#009F90"/></svg><svg fill="none" viewBox="0 0 76 76" id="pr-02" xmlns="http://www.w3.org/2000/svg"><path d="M22.571 10H12.286c-2.728 0-5.344.843-7.273 2.343C3.083 13.843 2 15.878 2 18v48c0 2.122 1.084 4.157 3.013 5.657C6.942 73.157 9.558 74 12.286 74h51.428c2.728 0 5.344-.843 7.273-2.343C72.917 70.157 74 68.122 74 66V18c0-2.122-1.084-4.157-3.013-5.657-1.929-1.5-4.545-2.343-7.273-2.343H53.43" stroke="#009F90" stroke-width="3" stroke-linecap="round" stroke-linejoin="round"/><path d="M43 2H33c-5.523 0-10 3.582-10 8s4.477 8 10 8h10c5.523 0 10-3.582 10-8s-4.477-8-10-8zM33 58V38M13 58V38M13 58V38M48 58v-4M28 58v-4M63 58V46M43 58V46M23 58V46" stroke="#009F90" stroke-width="3" stroke-linecap="round" stroke-linejoin="round"/></svg><svg fill="none" viewBox="0 0 69 76" id="pr-03" xmlns="http://www.w3.org/2000/svg"><path d="M27.278 9.222L34.5 2M20.056 53.944l28.888-28.888M34.5 74l7.222-7.222m9.028 0a9.028 9.028 0 100-18.056 9.028 9.028 0 000 18.056zm-32.5-39.5a9.028 9.028 0 100-18.056 9.028 9.028 0 000 18.056zM11.028 72a9.028 9.028 0 100-18.055 9.028 9.028 0 000 18.055zm46.944-46.944a9.028 9.028 0 100-18.056 9.028 9.028 0 000 18.056z" stroke="#009F90" stroke-width="3" stroke-linecap="round" stroke-linejoin="round"/></svg><svg fill="none" viewBox="0 0 40 40" id="sp-01" xmlns="http://www.w3.org/2000/svg"><path d="M2.498 5h1.249l6.322 23.281c.104.469.41.873.917 1.211.507.339 1.008.508 1.502.508H31.22c.599 0 1.119-.163 1.561-.488.442-.326.729-.736.859-1.23l6.166-14.688c.26-.964.22-1.804-.118-2.52-.338-.716-.871-1.074-1.6-1.074h-.741c-.494 0-.956.176-1.385.527-.43.352-.71.775-.84 1.27L29.973 25H13.736L7.064 1.758a2.443 2.443 0 00-.78-1.25C5.894.169 5.464 0 4.996 0H2.498A2.38 2.38 0 00.723.742 2.46 2.46 0 000 2.52c0 .69.24 1.276.722 1.757.48.482 1.073.723 1.775.723zm12.469 10c.689 0 1.28-.24 1.775-.723a2.362 2.362 0 00.742-1.757c0-.69-.248-1.283-.742-1.778A2.421 2.421 0 0014.966 10c-.689 0-1.274.247-1.756.742a2.46 2.46 0 00-.722 1.777c0 .69.241 1.277.722 1.758a2.39 2.39 0 001.756.723zm.019 5.02c0 .69.24 1.276.722 1.757a2.39 2.39 0 001.756.723c.69 0 1.281-.24 1.776-.723a2.362 2.362 0 00.741-1.758c0-.69-.247-1.282-.741-1.777a2.421 2.421 0 00-1.776-.742c-.69 0-1.275.247-1.756.742a2.459 2.459 0 00-.722 1.777zM19.962 7.5c.689 0 1.28-.24 1.775-.723a2.362 2.362 0 00.742-1.757c0-.69-.247-1.283-.742-1.778a2.421 2.421 0 00-1.775-.742c-.69 0-1.275.247-1.756.742a2.46 2.46 0 00-.722 1.778c0 .69.24 1.276.721 1.757a2.39 2.39 0 001.757.723zm.02 5.02c0 .69.24 1.276.721 1.757A2.389 2.389 0 0022.46 15c.69 0 1.282-.24 1.776-.723a2.362 2.362 0 00.741-1.757c0-.69-.247-1.283-.741-1.778A2.421 2.421 0 0022.459 10c-.69 0-1.275.247-1.756.742a2.46 2.46 0 00-.722 1.777zm2.497 7.5c0 .69.24 1.276.722 1.757a2.39 2.39 0 001.756.723c.69 0 1.281-.24 1.775-.723a2.362 2.362 0 00.742-1.758c0-.69-.247-1.282-.742-1.777a2.421 2.421 0 00-1.775-.742c-.69 0-1.275.247-1.756.742a2.459 2.459 0 00-.722 1.777zM27.454 7.5c.69 0 1.282-.24 1.776-.723a2.362 2.362 0 00.741-1.757c0-.69-.247-1.283-.741-1.778a2.421 2.421 0 00-1.776-.742c-.69 0-1.274.247-1.756.742a2.46 2.46 0 00-.722 1.778c0 .69.24 1.276.722 1.757a2.39 2.39 0 001.756.723zm.02 5.02c0 .69.24 1.276.722 1.757a2.389 2.389 0 001.756.723c.69 0 1.281-.24 1.775-.723a2.362 2.362 0 00.742-1.757c0-.69-.247-1.283-.742-1.778A2.421 2.421 0 0029.953 10c-.69 0-1.275.247-1.756.742a2.46 2.46 0 00-.722 1.777zm1.053 19.98c-1.04 0-1.925.365-2.653 1.094-.729.729-1.093 1.614-1.093 2.656s.364 1.927 1.093 2.656c.728.73 1.613 1.094 2.654 1.094 1.04 0 1.925-.365 2.653-1.094.729-.729 1.093-1.614 1.093-2.656s-.364-1.927-1.093-2.656c-.728-.73-1.613-1.094-2.654-1.094zm-12.468 0c-1.028 0-1.912.365-2.654 1.094a3.586 3.586 0 00-1.112 2.656c0 1.042.371 1.927 1.113 2.656.741.73 1.625 1.094 2.653 1.094a3.588 3.588 0 002.634-1.094c.729-.729 1.093-1.614 1.093-2.656s-.364-1.927-1.093-2.656A3.588 3.588 0 0016.06 32.5z" fill="#009F90"/></svg><svg fill="none" viewBox="0 0 40 38" id="sp-02" xmlns="http://www.w3.org/2000/svg"><g clip-path="url(#bkclip0_51_613)" fill="#009F90"><path d="M18.889 21.235v-3.912c0-.444.175-.87.488-1.185a1.662 1.662 0 012.357 0c.313.314.488.74.488 1.185v3.912h3.89c.441 0 .865.177 1.178.491a1.681 1.681 0 010 2.371 1.662 1.662 0 01-1.179.491h-3.889V28.5c0 .445-.175.871-.488 1.185a1.662 1.662 0 01-2.357 0 1.681 1.681 0 01-.488-1.185v-3.912H15c-.442 0-.866-.176-1.178-.49a1.681 1.681 0 010-2.372 1.662 1.662 0 011.178-.49h3.889z"/><path d="M12.778 0h14.444c.403 0 .792.147 1.096.413.303.266.5.634.555 1.035l.016.228v7.265h3.889c1.915 0 3.752.766 5.107 2.128A7.287 7.287 0 0140 16.206v14.53c0 1.926-.76 3.774-2.115 5.136A7.201 7.201 0 0132.778 38H7.222a7.2 7.2 0 01-5.107-2.128A7.286 7.286 0 010 30.735v-14.53c0-1.926.76-3.774 2.115-5.136a7.2 7.2 0 015.107-2.128h3.89V1.676c0-.405.145-.796.41-1.101.264-.306.63-.504 1.03-.56L12.777 0zm19 13.294H8.222c-1.031 0-2.02.412-2.75 1.146a3.924 3.924 0 00-1.139 2.766v12.53c0 2.159 1.743 3.911 3.89 3.911h23.555c1.031 0 2.02-.412 2.75-1.146a3.923 3.923 0 001.139-2.766v-12.53c0-1.037-.41-2.032-1.14-2.765a3.877 3.877 0 00-2.75-1.146zm-6.222-9.941H14.444V8.94h11.112V3.353z"/></g><defs><clipPath id="bkclip0_51_613"><path fill="#fff" d="M0 0h40v38H0z"/></clipPath></defs></svg><svg fill="none" viewBox="0 0 40 40" id="sp-03" xmlns="http://www.w3.org/2000/svg"><path d="M20 11.667a2.5 2.5 0 100-5 2.5 2.5 0 000 5zM21.483.492a2.5 2.5 0 00-2.966 0L2.683 12.167c-1.94 1.431-.928 4.511 1.484 4.511H5v12.07a5.417 5.417 0 00-3.333 5.002v2.5c0 .69.56 1.25 1.25 1.25h34.166a1.25 1.25 0 001.25-1.25v-2.5a5.417 5.417 0 00-3.333-5V16.678h.832c2.413 0 3.425-3.08 1.483-4.511L21.483.492zM7.5 27.333v-9.655h3.167v9.655H7.5zm25-9.655v9.655h-3.167v-9.655H32.5zm-6.667 0v9.655H22.25v-9.655h3.583zm-8.083 0v9.655h-3.583v-9.655h3.583zm-12.583-3.5L20 3.503l14.832 10.675H5.167zm-1 19.572a2.918 2.918 0 012.916-2.917h25.834a2.918 2.918 0 012.916 2.917V34H4.167v-.25z" fill="#009F90"/></svg><svg fill="none" viewBox="0 0 40 37" id="sp-04" xmlns="http://www.w3.org/2000/svg"><g clip-path="url(#bmclip0_51_636)" stroke="#009F90" stroke-width="4" stroke-linecap="round" stroke-linejoin="round"><path d="M3.81 35.053c2.184-7.829 3.777-15.632 3.809-23.369h11.429c.032 7.737 1.624 15.54 3.81 23.369"/><path d="M20 19.474h8.571c.048 5.086 1.703 10.313 3.81 15.579M13.333 3.895a4.6 4.6 0 011.67-1.455 4.489 4.489 0 012.14-.493 4.488 4.488 0 012.14.493 4.6 4.6 0 011.67 1.455 4.6 4.6 0 001.669 1.455c.663.34 1.398.508 2.14.492a4.489 4.489 0 002.14-.492 4.6 4.6 0 001.67-1.455A4.6 4.6 0 0130.24 2.44a4.489 4.489 0 012.14-.493 4.488 4.488 0 012.14.493 4.6 4.6 0 011.67 1.455M1.905 35.053h36.19"/></g><defs><clipPath id="bmclip0_51_636"><path fill="#fff" d="M0 0h40v37H0z"/></clipPath></defs></svg><svg fill="none" viewBox="0 0 40 37" id="sp-05" xmlns="http://www.w3.org/2000/svg"><path d="M20.5 12.333c.878 0 1.725.34 2.37.951a3.636 3.636 0 011.118 2.35l.012.297v17.472c0 .903-.33 1.773-.926 2.437a3.465 3.465 0 01-2.288 1.148L20.5 37h-17c-.879 0-1.725-.34-2.371-.952a3.636 3.636 0 01-1.117-2.351L0 33.403V15.93c0-.903.33-1.773.925-2.437a3.465 3.465 0 012.287-1.148l.288-.013h17zM11 15.415H3.5a.492.492 0 00-.31.112.516.516 0 00-.176.286L3 15.931v17.472c0 .116.038.228.108.319.07.09.168.154.278.18l.114.015H11V15.415zm9.5 0H13v18.502h7.5c.113 0 .222-.04.31-.112a.516.516 0 00.176-.285l.014-.117V15.93a.523.523 0 00-.108-.32.499.499 0 00-.278-.182l-.114-.012v-.002zm-3.25 13.363c.38 0 .746.148 1.024.415a1.57 1.57 0 01.14 2.1 1.49 1.49 0 01-.96.554l-.204.014h-1c-.38 0-.746-.148-1.024-.415a1.57 1.57 0 01-.14-2.1 1.49 1.49 0 01.96-.554l.204-.014h1zm-9.5 0c.38 0 .746.148 1.024.415a1.57 1.57 0 01.14 2.1 1.49 1.49 0 01-.96.554l-.204.014h-1c-.38 0-.746-.148-1.024-.415a1.57 1.57 0 01-.14-2.1 1.49 1.49 0 01.96-.554l.204-.014h1zM35.5 0c1.14 0 2.238.445 3.072 1.244.833.8 1.34 1.895 1.418 3.064l.01.317v17.472c0 1.172-.433 2.3-1.21 3.157a4.452 4.452 0 01-2.982 1.458l-.308.01H26V22.64h8.5c.362 0 .713-.135.986-.38s.45-.583.5-.952l.014-.21V5.625c0-.409-.158-.801-.44-1.09a1.48 1.48 0 00-1.06-.452h-21c-.363 0-.713.135-.986.38s-.45.583-.5.952l-.014.21v4.653H8V4.625c0-1.172.433-2.3 1.21-3.157A4.452 4.452 0 0112.193.01L12.5 0h23zm-7 17.5c.398 0 .78.162 1.06.451.282.29.44.682.44 1.09 0 .41-.158.802-.44 1.09a1.48 1.48 0 01-1.06.452H26V17.5h2.5z" fill="#009F90"/></svg><svg fill="none" viewBox="0 0 43 39" id="sp-06" xmlns="http://www.w3.org/2000/svg"><path d="M43 6.5V4.333a2.07 2.07 0 00-.7-1.532 2.519 2.519 0 00-1.689-.634H16.722V0H9.556v2.167h-2.39V6.5h2.39V26h-2.39v-4.333H2.39V26H0v4.333h2.389V39h4.778v-8.667H19.11V39h4.778v-8.667h2.389V26h-2.39v-4.333h-4.777V26h-2.389V6.5h19.111v10.01c-1.122.368-1.935 1.322-1.935 2.47 0 .953.574 1.82 1.458 2.297v2.556h1.48c.813 0 1.458.607 1.458 1.344 0 .736-.645 1.343-1.457 1.343-.526 0-1.004-.26-1.266-.672-.2-.302-.521-.52-.896-.61a1.615 1.615 0 00-1.111.134c-.717.346-.956 1.17-.55 1.82.789 1.213 2.246 1.993 3.823 1.993 2.412 0 4.395-1.798 4.395-4.008 0-1.69-1.194-3.207-2.938-3.77v-.13c.908-.477 1.481-1.344 1.481-2.297 0-.997-.645-1.842-1.553-2.297V6.5H43zM14.333 23.097l-2.389 2.166v-3.076l2.39-2.167v3.077zm0-6.392l-2.389 2.167v-3.077l2.39-2.167v3.077zm-2.389-4.333V9.295l2.39-2.167v3.077l-2.39 2.167z" fill="#009F90"/></svg><svg fill="none" viewBox="0 0 40 38" id="sp-07" xmlns="http://www.w3.org/2000/svg"><path d="M3.5 0a1.5 1.5 0 00-1.06.44C2.157.72 2 1.101 2 2.5c0 .398.158 1.78.44 2.06A1.5 1.5 0 003.5 5h2.084L.11 18.434A1.5 1.5 0 000 19a7 7 0 1014 0 1.5 1.5 0 00-.11-.566L8.416 5H18.5v28h-7.994a4.5 4.5 0 00-3.182 1.318c-.844.844-1.318-.011-1.318 1.182 0 1.194.474.338 1.318 1.182A4.5 4.5 0 0010.506 38H29.5a4.5 4.5 0 003.182-1.318c.844-.844 1.318.011 1.318-1.182 0-1.194-.474-.338-1.318-1.182A4.5 4.5 0 0029.5 33h-8V5h10.084L26.11 18.434A1.5 1.5 0 0026 19a7 7 0 1014 0 1.5 1.5 0 00-.11-.566L34.416 5H36.5a1.5 1.5 0 001.06-.44c.282-.28.44-1.662.44-2.06 0-1.398-.158-1.78-.44-2.06A1.5 1.5 0 0036.5 0h-33zM7 9.476l3.27 8.024H3.73L7 9.476zM29.73 17.5L33 9.476l3.27 8.024h-6.54z" fill="#009F90"/></svg><svg fill="none" viewBox="0 0 40 40" id="sp-08" xmlns="http://www.w3.org/2000/svg"><path d="M3 27c4.828 0 8.449-5 8.449-5s3.62 5 8.448 5c4.826 0 9.654-5 9.654-5S34.38 27 38 27M3 37c4.828 0 8.449-5 8.449-5s3.62 5 8.448 5c4.826 0 9.654-5 9.654-5S34.38 37 38 37M32 14a11 11 0 10-22 0" stroke="#009F90" stroke-width="4" stroke-linecap="round" stroke-linejoin="round"/></svg><svg fill="none" viewBox="0 0 21 18" id="tm-arrow" xmlns="http://www.w3.org/2000/svg"><path d="M15 17l5-5-5-5" stroke="#fff" stroke-width="2" stroke-linecap="round" stroke-linejoin="round" stroke-dasharray="3 3"/><path d="M18 12h-7.556C5.228 12 1 7.523 1 2V1" stroke="#fff" stroke-width="2" stroke-linecap="round" stroke-linejoin="round" stroke-dasharray="3 3"/></svg><svg fill="none" viewBox="0 0 40 33" id="tm-icon-01" xmlns="http://www.w3.org/2000/svg"><g opacity=".5" clip-path="url(#bsclip0_103_5689)"><path d="M39.754 18.167l-7.094-16.5A2.749 2.749 0 0030.124 0H9.874A2.762 2.762 0 007.34 1.667l-7.094 16.5a2.742 2.742 0 001.228 3.504c.402.216.851.329 1.308.329h14.84v8.25h-3.139c-.366 0-.716.145-.975.403A1.373 1.373 0 0014.482 33h11.035c.366 0 .716-.145.975-.403a1.373 1.373 0 00-.975-2.347h-3.138V22h8.655v5.5c0 .365.145.714.404.972a1.382 1.382 0 002.354-.972V22h3.426a2.765 2.765 0 002.303-1.236 2.745 2.745 0 00.233-2.597zM3.78 18.25l6.093-14.5h20.25l6.094 14.5H3.781z" fill="#fff"/></g><defs><clipPath id="bsclip0_103_5689"><path fill="#fff" d="M0 0h40v33H0z"/></clipPath></defs></svg><svg fill="none" viewBox="0 0 36 33" id="tm-icon-02" xmlns="http://www.w3.org/2000/svg"><g opacity=".5" stroke="#fff" stroke-linecap="round"><path d="M2 24.666c0-.961.213-1.916.777-2.694C4.436 19.68 8.937 15 18 15c9.064 0 13.564 4.68 15.223 6.972.564.778.777 1.733.777 2.694A6.333 6.333 0 0127.666 31H8.334A6.334 6.334 0 012 24.666z" stroke-width="3" stroke-linejoin="round"/><path d="M8 4v3M10 17v3M27 4v3M26 17v3M18 2v5M18 15v7" stroke-width="4"/><path d="M30 19c-2.417-2.446-6.4-5-12.5-5S7.417 16.553 5 19" stroke-width="3"/></g></svg><svg fill="none" viewBox="0 0 34 33" id="tm-icon-03" xmlns="http://www.w3.org/2000/svg"><g opacity=".5" fill="#fff"><path d="M0 4a4 4 0 014-4h24a4 4 0 014 4v6.292c-.603-.54-2.276-1.996-3-2.356V5a2 2 0 00-2-2H5a2 2 0 00-2 2v23a2 2 0 002 2h13.516c.152.226.314 1.446.484 1.658V33H4a4 4 0 01-4-4V4z"/><path d="M33 17.666a7.73 7.73 0 01-2.143 5.367v8.872c0 .203-.055.402-.16.575a1.08 1.08 0 01-.432.404 1.053 1.053 0 01-1.122-.103l-3-2.3a1.056 1.056 0 00-1.286 0l-3 2.3a1.057 1.057 0 01-1.554-.3 1.113 1.113 0 01-.16-.576v-8.872c-.861-.898-1.493-2-1.84-3.206a7.833 7.833 0 01-.148-3.713 7.74 7.74 0 011.578-3.348 7.51 7.51 0 012.932-2.197 7.35 7.35 0 017.017.733 7.612 7.612 0 012.436 2.759A7.804 7.804 0 0133 17.666zm-7.5 7.667c-1.15 0-2.24-.263-3.214-.738v4.572l2.663-1.635a1.054 1.054 0 011.102 0l2.663 1.634v-4.571a7.335 7.335 0 01-3.214.738zm0-2.19c1.42 0 2.783-.578 3.788-1.605a5.54 5.54 0 001.57-3.872 5.54 5.54 0 00-1.57-3.873A5.298 5.298 0 0025.5 12.19c-1.42 0-2.783.576-3.788 1.604a5.54 5.54 0 00-1.57 3.872 5.54 5.54 0 001.57 3.872 5.299 5.299 0 003.788 1.604zM6 7a1 1 0 011-1h18a1 1 0 110 2H7a1 1 0 01-1-1zM7 16a1 1 0 000 2h8a1 1 0 000-2H7zM7 21a1 1 0 000 2h8a1 1 0 000-2H7zM7 11a1 1 0 000 2h8a1 1 0 000-2H7z"/></g></svg><svg fill="none" viewBox="0 0 23 32" id="tm-icon-04" xmlns="http://www.w3.org/2000/svg"><g opacity=".5" clip-path="url(#bvclip0_107_5735)" fill="#fff"><path d="M10.35 5.714c0-.303.121-.594.337-.808.216-.214.508-.335.813-.335 1.525 0 2.95.746 3.977 1.763 1.023 1.02 1.773 2.436 1.773 3.952 0 .303-.121.594-.337.808a1.154 1.154 0 01-1.626 0 1.139 1.139 0 01-.337-.808c0-.77-.4-1.64-1.102-2.334-.699-.697-1.573-1.095-2.348-1.095-.305 0-.598-.12-.813-.335a1.14 1.14 0 01-.337-.808z"/><path d="M12.65 22.761c2.337-.393 4.483-1.936 6.072-3.918 1.868-2.322 3.128-5.426 3.128-8.557C21.85 5.179 17.977 0 11.5 0 5.023 0 1.15 5.18 1.15 10.286c0 3.131 1.26 6.235 3.128 8.557 1.59 1.982 3.735 3.525 6.072 3.918v.096c0 1.213.485 2.375 1.347 3.233a4.615 4.615 0 003.253 1.339h3.45c.61 0 1.195.24 1.626.669.432.429.674 1.01.674 1.616v1.143c0 .303.121.594.337.808a1.154 1.154 0 001.626 0 1.14 1.14 0 00.337-.808v-1.143a4.557 4.557 0 00-1.347-3.232 4.615 4.615 0 00-3.253-1.34h-3.45c-.61 0-1.195-.24-1.626-.669a2.278 2.278 0 01-.674-1.616v-.096zM11.5 3.286c5.023 0 7.05 2.963 7.05 7 0 2.548-1.04 5.159-2.622 7.131-1.605 1.993-2.606 2.154-4.428 2.154-1.824 0-2.825-.16-4.428-2.154-1.58-1.972-2.622-4.583-2.622-7.131 0-4.037 2.027-7 7.05-7z"/></g><defs><clipPath id="bvclip0_107_5735"><path fill="#fff" d="M0 0h23v32H0z"/></clipPath></defs></svg><svg fill="none" viewBox="0 0 29 32" id="tm-icon-05" xmlns="http://www.w3.org/2000/svg"><path d="M3.904 17.418L6.79 16.1l-2.85-1.394c-.895-.438-1.484-.965-1.856-1.547-.37-.579-.584-1.305-.584-2.243 0-1.164.402-2.144 1.26-3.012.858-.867 1.819-1.267 2.955-1.267.878 0 1.61.253 2.255.754l2.42 1.883V5.78c0-1.18.396-2.164 1.224-3.029.817-.852 1.751-1.25 2.886-1.25 1.135 0 2.07.398 2.886 1.25.828.865 1.224 1.85 1.224 3.03V9.14l2.378-1.718c.753-.544 1.509-.786 2.297-.786 1.136 0 2.097.4 2.955 1.267.858.868 1.26 1.848 1.26 3.012 0 .938-.215 1.664-.584 2.243-.372.582-.96 1.109-1.856 1.547L22.21 16.1l2.886 1.318c.88.402 1.455.905 1.82 1.476.365.572.584 1.314.584 2.297 0 1.163-.4 2.116-1.243 2.942-.854.836-1.82 1.23-2.972 1.23-.915 0-1.668-.24-2.315-.692l-2.36-1.652V26.328c0 1.179-.395 2.136-1.208 2.958-.812.822-1.751 1.214-2.902 1.214-1.15 0-2.09-.392-2.902-1.214-.814-.822-1.208-1.78-1.208-2.958V23.136l-2.317 1.506c-.756.491-1.532.72-2.358.72-1.152 0-2.118-.393-2.972-1.23C1.9 23.306 1.5 22.355 1.5 21.192c0-.983.22-1.725.584-2.297.365-.57.94-1.074 1.82-1.476zM14.5 8.774c-1.97 0-3.681.744-5.052 2.175-1.36 1.418-2.057 3.145-2.057 5.104 0 1.961.7 3.679 2.073 5.069 1.375 1.39 3.082 2.104 5.036 2.104 1.954 0 3.66-.714 5.035-2.104 1.375-1.39 2.075-3.108 2.075-5.069 0-1.959-.699-3.686-2.058-5.104-1.37-1.43-3.082-2.175-5.052-2.175z" stroke="#fff" stroke-width="3" opacity=".5"/></svg><svg fill="none" viewBox="0 0 35 32" id="tm-icon-06" xmlns="http://www.w3.org/2000/svg"><g opacity=".5" fill="#fff"><path d="M33.4 28.923V16.615c0-.816-.337-1.598-.937-2.175a3.266 3.266 0 00-2.263-.901h-8V12H19v9.23h3.2v-1.538H27v9.231h-1.6V32H35v-3.077h-1.6zm-2.6 0h-1.2v-11.77h-7.4v-1.076h7c.424 0 .831.162 1.131.45.3.289.469.68.469 1.088v11.308zM13.6 10.77v1.538H8.5V3.077h1.7V0H0v3.077h1.7v12.308c0 .816.358 1.598.996 2.175.637.577 1.502.902 2.404.902h8.5V20H17v-9.23h-3.4zm0 5.153H6.1c-.45 0-.883-.162-1.202-.45a1.468 1.468 0 01-.498-1.088V3.077h1.4v11.77h7.8v1.076z"/></g></svg><svg fill="none" viewBox="0 0 29 33" id="tm-icon-07" xmlns="http://www.w3.org/2000/svg"><g opacity=".5" stroke="#fff" stroke-width="3" stroke-linecap="round" stroke-linejoin="round"><path d="M22 18.675v-7.25 7.25zm0-7.25V10.7c0-4.101 0-6.152-1.255-7.426C19.489 2 17.469 2 13.429 2H10.57c-4.04 0-6.06 0-7.316 1.274C2 4.548 2 6.599 2 10.7V31h20v-5.075s5 0 5-4.35v-5.8c0-4.35-5-4.35-5-4.35zM7 16V3M12 16V3M17 16V3"/></g></svg><svg fill="none" viewBox="0 0 35 32" id="tm-icon-08" xmlns="http://www.w3.org/2000/svg"><path opacity=".5" d="M29.62 4.571l-3.613 3.673v.274l3.612 3.672H35v3.048h-6.61l-2.383-2.423v3.947h-1.499a2.973 2.973 0 01-2.12-.893 3.074 3.074 0 01-.878-2.155v-3.81h-9.706a5.719 5.719 0 01-.66 1.6l8.634 15.925h7.224c.795 0 1.558.32 2.12.892.562.572.878 1.347.878 2.155V32H.023v-1.524c0-.808.316-1.583.878-2.155a2.973 2.973 0 012.12-.892h9.907l-7.03-12.953a5.943 5.943 0 01-3.613-1.307A6.113 6.113 0 01.188 9.905 6.194 6.194 0 01.84 5.28 6.062 6.062 0 012.405 3.51 5.954 5.954 0 014.52 2.484c3.193-.838 6.46 1.112 7.285 4.373h9.706v-3.81c0-.808.316-1.583.878-2.154A2.973 2.973 0 0124.508 0h1.499v3.947l2.383-2.423H35V4.57h-5.38zm-23.602.762c-.795 0-1.557.321-2.12.893a3.073 3.073 0 00-.877 2.155c0 .808.315 1.583.878 2.155a2.973 2.973 0 002.12.893c.794 0 1.557-.322 2.119-.893a3.073 3.073 0 00.878-2.155c0-.808-.316-1.583-.878-2.155a2.973 2.973 0 00-2.12-.893z" fill="#fff"/></svg><svg fill="none" viewBox="0 0 35 32" id="tm-icon-09" xmlns="http://www.w3.org/2000/svg"><path d="M13.5 0C6.059 0 0 5.984 0 13.333c0 7.35 6.059 13.334 13.5 13.334S27 20.683 27 13.333C27 5.984 20.941 0 13.5 0zm0 2.667a10.843 10.843 0 017.362 2.86 10.584 10.584 0 013.396 7.057 6.556 6.556 0 00-2.7-1.084 9.66 9.66 0 00-1.772-.125 9.967 9.967 0 00-2.574.374 4.043 4.043 0 00-1.859-1.964 4.118 4.118 0 00-2.697-.369c-.01-.01-.03.01-.042 0-.876-.723-1.809-1.843-2.235-2.957-.285-.746-.348-1.432-.212-2 .132-.558.422-1.084 1.181-1.584.709-.139 1.43-.208 2.152-.208zM7.425 4.54c-.08.964.065 1.933.423 2.834a9.848 9.848 0 002.403 3.584 3.968 3.968 0 00.295 5.125c-.216 1.061-.727 2.353-1.475 3.25-.517.62-1.113 1.035-1.688 1.207-.575.174-1.17.183-2.025-.249-1.64-1.87-2.658-4.281-2.658-6.959 0-3.672 1.883-6.874 4.725-8.792zM13.5 12c.76 0 1.35.584 1.35 1.333 0 .751-.591 1.334-1.35 1.334-.76 0-1.35-.584-1.35-1.334 0-.75.591-1.333 1.35-1.333zm6.329 2.084c.432-.016.87.015 1.265.083.79.136 1.455.421 1.898.833.417.39.691.89.76 1.75a10.686 10.686 0 01-3.945 5.255A10.9 10.9 0 0113.5 24c-1.714 0-3.333-.387-4.767-1.084.965-.416 1.766-1.11 2.404-1.875a9.992 9.992 0 001.942-3.749c.141.015.274.041.421.041 1.773 0 3.253-1.172 3.798-2.75a8.212 8.212 0 012.53-.499zM12.15 28v1.333h-8.1V32h18.9v-2.667h-8.1V28h-2.7z" fill="#fff" opacity=".5"/></svg><svg viewBox="0 0 20 12" id="vk-icon" xmlns="http://www.w3.org/2000/svg"><path d="M18.535 1.398c-.07.352-.351.926-.844 1.723-.468.797-.902 1.5-1.3 2.11-.399.585-.61.89-.633.914-.14.21-.211.363-.211.457 0 .093.07.257.21.492l.458.492c.328.328.668.68 1.02 1.055.35.375.69.796 1.019 1.265.351.446.574.809.668 1.09.164.586-.07.879-.703.879h-2.075c-.187 0-.374-.047-.562-.14a1.984 1.984 0 01-.422-.317c-.117-.14-.328-.375-.633-.703-.28-.328-.55-.621-.808-.88-.938-.89-1.63-1.335-2.074-1.335-.282 0-.446.082-.493.246-.046.164-.07.633-.07 1.406.023.375.035.68.035.914 0 .282-.094.493-.281.633-.188.117-.598.176-1.23.176-1.102 0-2.215-.328-3.34-.984-1.125-.657-2.11-1.594-2.954-2.813a23.07 23.07 0 01-2.003-3.2C.793 3.802.453 2.98.289 2.419.125 1.855.043 1.457.043 1.223c0-.399.234-.598.703-.598H2.82c.258 0 .446.059.563.176.14.117.258.328.351.633.493 1.43 1.09 2.707 1.793 3.832.727 1.125 1.278 1.687 1.653 1.687.14 0 .234-.047.28-.14.071-.118.106-.329.106-.633V3.12c-.046-.539-.199-.984-.457-1.336-.257-.351-.386-.574-.386-.668 0-.14.047-.258.14-.351A.605.605 0 017.25.625h3.27c.375 0 .562.258.562.773v4.079c0 .398.105.597.316.597.235 0 .563-.21.985-.633.445-.492.879-1.09 1.3-1.793.422-.703.739-1.289.95-1.757l.316-.668c.164-.399.457-.598.88-.598h2.073c.563 0 .774.258.633.773z"/></svg></svg>