<?xml version="1.0" encoding="utf-8"?><svg viewBox="0 0 512 512" xmlns="http://www.w3.org/2000/svg" xmlns:xlink="http://www.w3.org/1999/xlink"><style>:root>svg{display:none}:root>svg:target{display:block}</style><svg viewBox="0 0 10 19" id="fb-icon" xmlns="http://www.w3.org/2000/svg"><path d="M9.184 10.375H6.547v7.875H3.03v-7.875H.184v-3.27H3.03v-2.46c0-1.407.387-2.485 1.16-3.235C4.965.637 5.996.25 7.285.25c.375 0 .774.023 1.195.07.422.024.75.059.985.106l.351.035v2.777H8.41c-.656 0-1.137.176-1.441.528-.282.328-.422.738-.422 1.23v2.11h3.129l-.492 3.269z"/></svg><svg viewBox="0 0 76 68" id="h-icon-01" xmlns="http://www.w3.org/2000/svg"><path d="M53.774 27.49H70.98a5.002 5.002 0 003.547-1.485A5.093 5.093 0 0076 22.425V5.064a5.093 5.093 0 00-1.472-3.58A5.002 5.002 0 0070.981 0H53.774a5.002 5.002 0 00-3.548 1.485 5.093 5.093 0 00-1.471 3.579v6.51H45.17a10.719 10.719 0 00-7.601 3.182 10.912 10.912 0 00-3.154 7.67v9.404H24.377v-5.064a5.093 5.093 0 00-1.471-3.579 5.003 5.003 0 00-3.547-1.485H5.018a5.003 5.003 0 00-3.547 1.485A5.093 5.093 0 000 26.766v14.468a5.093 5.093 0 001.472 3.579 5.003 5.003 0 003.547 1.485h14.34a5.003 5.003 0 003.547-1.485 5.093 5.093 0 001.471-3.579V36.17h10.038v9.404a10.913 10.913 0 003.154 7.67 10.719 10.719 0 007.6 3.181h3.586v6.511a5.092 5.092 0 001.471 3.58A5.002 5.002 0 0053.774 68H70.98a5.002 5.002 0 003.547-1.485A5.092 5.092 0 0076 62.936V45.575a5.093 5.093 0 00-1.472-3.58 5.002 5.002 0 00-3.547-1.484H53.774a5.003 5.003 0 00-3.548 1.484 5.093 5.093 0 00-1.471 3.58v6.51H45.17a6.431 6.431 0 01-4.56-1.909 6.547 6.547 0 01-1.893-4.602V22.427a6.547 6.547 0 011.892-4.602 6.431 6.431 0 014.56-1.91h3.586v6.511a5.093 5.093 0 001.471 3.58 5.003 5.003 0 003.548 1.484zM20.076 41.233a.728.728 0 01-.21.511.715.715 0 01-.508.212H5.018a.715.715 0 01-.506-.212.728.728 0 01-.21-.511V26.766c0-.192.076-.376.21-.511a.714.714 0 01.507-.212h14.34c.19 0 .372.076.506.212.135.135.21.32.21.511v14.468zm32.98 4.34c0-.191.077-.375.21-.51a.715.715 0 01.508-.213H70.98c.19 0 .372.077.507.212.134.136.21.32.21.511v17.362a.728.728 0 01-.21.511.715.715 0 01-.507.213H53.774a.715.715 0 01-.507-.213.728.728 0 01-.21-.51V45.574zm0-40.51c0-.192.077-.376.21-.511a.715.715 0 01.508-.213H70.98c.19 0 .372.077.507.213.134.135.21.32.21.51v17.363a.728.728 0 01-.21.51.715.715 0 01-.507.213H53.774a.715.715 0 01-.507-.212.728.728 0 01-.21-.512V5.064z"/></svg><svg viewBox="0 0 74 74" id="h-icon-02" xmlns="http://www.w3.org/2000/svg"><mask id="ca" fill="#fff"><path d="M37 74C16.565 74 0 57.435 0 37S16.565 0 37 0s37 16.565 37 37-16.565 37-37 37zM23.417 38.125c-.148 3.145.137 6.279.437 9.413.018.222.1.273.296.296 1.502.2 3.008.377 4.521.47 3.567.225 7.134.514 10.715.314 2.035-.111 4.07-.178 6.098-.352a76.173 76.173 0 008.621-1.154c3.545-.718 7.056-1.572 10.36-3.126 1.502-.703 2.923-1.536 4.122-2.724.88-.87 1.51-1.876 1.517-3.182a33.003 33.003 0 00-.167-3.478 33.379 33.379 0 00-1.78-8.066c-2.16-5.986-5.586-11.059-10.455-15.059a32.82 32.82 0 00-14.25-6.893c-1.85-.388-3.721-.532-5.601-.666-2.12-.151-3.937.444-5.506 1.902-1.831 1.691-3.096 3.789-4.151 6.042-2.468 5.28-3.6 10.93-4.314 16.68a56.294 56.294 0 00-.463 9.583zm13.21-18.611c3.548.11 6.548 1.199 9.227 3.167a16.006 16.006 0 016.342 9.664c.252 1.125.359 2.265.381 3.412.019.773-.407 1.34-.97 1.813-1.135.954-2.478 1.483-3.884 1.88a38.424 38.424 0 01-8.38 1.354c-1.85.096-3.7.13-5.55.037-.711-.037-1.425-.09-2.136-.119-.222-.007-.296-.074-.31-.3-.086-1.605-.212-3.211-.186-4.817.06-3.796.348-7.566 1.47-11.226.37-1.217.824-2.405 1.553-3.463.64-.925 1.399-1.617 2.442-1.406v.004z"/></mask><path d="M37 74C16.565 74 0 57.435 0 37S16.565 0 37 0s37 16.565 37 37-16.565 37-37 37zM23.417 38.125c-.148 3.145.137 6.279.437 9.413.018.222.1.273.296.296 1.502.2 3.008.377 4.521.47 3.567.225 7.134.514 10.715.314 2.035-.111 4.07-.178 6.098-.352a76.173 76.173 0 008.621-1.154c3.545-.718 7.056-1.572 10.36-3.126 1.502-.703 2.923-1.536 4.122-2.724.88-.87 1.51-1.876 1.517-3.182a33.003 33.003 0 00-.167-3.478 33.379 33.379 0 00-1.78-8.066c-2.16-5.986-5.586-11.059-10.455-15.059a32.82 32.82 0 00-14.25-6.893c-1.85-.388-3.721-.532-5.601-.666-2.12-.151-3.937.444-5.506 1.902-1.831 1.691-3.096 3.789-4.151 6.042-2.468 5.28-3.6 10.93-4.314 16.68a56.294 56.294 0 00-.463 9.583v0zm13.21-18.611c3.548.11 6.548 1.199 9.227 3.167a16.006 16.006 0 016.342 9.664c.252 1.125.359 2.265.381 3.412.019.773-.407 1.34-.97 1.813-1.135.954-2.478 1.483-3.884 1.88a38.424 38.424 0 01-8.38 1.354c-1.85.096-3.7.13-5.55.037-.711-.037-1.425-.09-2.136-.119-.222-.007-.296-.074-.31-.3-.086-1.605-.212-3.211-.186-4.817.06-3.796.348-7.566 1.47-11.226.37-1.217.824-2.405 1.553-3.463.64-.925 1.399-1.617 2.442-1.406v.004z" stroke="#A1B0C7" mask="url(#ca)"/></svg><svg viewBox="0 0 78 74" id="h-icon-03" xmlns="http://www.w3.org/2000/svg"><path d="M72.429 34.154V51.23H5.57V5.692H39V0H5.571c-1.477 0-2.894.6-3.94 1.667A5.756 5.756 0 000 5.692v45.539c0 1.51.587 2.957 1.632 4.025a5.512 5.512 0 003.94 1.667h22.285v11.385H16.714V74h44.572v-5.692H50.143V56.923h22.286c1.477 0 2.894-.6 3.94-1.667A5.756 5.756 0 0078 51.23V34.154h-5.571zM44.57 68.308H33.43V56.923H44.57v11.385z"/><path d="M52.929 31.308L39 17.19l4.43-4.469 9.499 9.62L73.57 1.423 78 5.92 52.929 31.308z"/></svg><svg viewBox="0 0 76 68" id="h-icon-04" xmlns="http://www.w3.org/2000/svg"><path d="M67.5 0h-59A8.5 8.5 0 000 8.5v51A8.5 8.5 0 008.5 68h59a8.5 8.5 0 008.5-8.5v-51A8.5 8.5 0 0067.5 0zM46.25 62.5H5.5V26.75h40.75V62.5zm24.25 0H52.75V26.75H70.5V62.5zm0-41.25h-65V5.5h65v15.75z"/><path d="M32.55 34h-6.205a.73.73 0 00-.515.212L13.424 46.615a1.456 1.456 0 000 2.055l5.906 5.906a1.457 1.457 0 002.055 0l12.403-12.398a.73.73 0 00.212-.515v-6.21A1.446 1.446 0 0032.55 34z"/><mask id="ea" fill="#fff"><path d="M29.5 40a1.5 1.5 0 110-3 1.5 1.5 0 010 3z"/></mask><path d="M29.5 40a1.5 1.5 0 110-3 1.5 1.5 0 010 3z" mask="url(#ea)"/><path d="M25 58l12.804-13.1a.693.693 0 00.196-.5V38"/></svg><svg viewBox="0 0 76 68" id="h-icon-05" xmlns="http://www.w3.org/2000/svg"><g clip-path="url(#fclip0_55_1278)"><path d="M49 13v5h-6v-5h6zM49 23v20h-6V23h6zM36 13v5h-6v-5h6zM23 13v5h-5v-5h5z"/><path d="M10.071 5.182h53.25v7.772h-7.607v31.091h7.607v7.773H43.036V57H63.32a5.017 5.017 0 003.587-1.518 5.24 5.24 0 001.485-3.664v-7.773h2.536a5.017 5.017 0 003.586-1.517A5.24 5.24 0 0076 38.864V18.136a5.24 5.24 0 00-1.485-3.664 5.017 5.017 0 00-3.586-1.518h-2.536V5.182a5.24 5.24 0 00-1.486-3.664A5.017 5.017 0 0063.322 0h-53.25a5.017 5.017 0 00-3.586 1.518A5.24 5.24 0 005 5.182V28.5h5.071V5.182zM70.93 18.136v20.728H60.786V18.136h10.143z"/><path d="M33.448 33.067h-6.209a17.853 17.853 0 016.47 6.557 17.51 17.51 0 012.29 8.86 17.518 17.518 0 01-2.5 8.805 17.87 17.87 0 01-6.624 6.407A18.22 18.22 0 0117.889 66a18.216 18.216 0 01-8.956-2.413 17.862 17.862 0 01-6.543-6.486A17.513 17.513 0 010 48.267h5.146a12.519 12.519 0 001.807 6.49 12.779 12.779 0 004.929 4.663 13.029 13.029 0 006.658 1.52 13.005 13.005 0 006.51-2.054 12.732 12.732 0 004.521-5.047 12.5 12.5 0 00-1.102-12.931 12.827 12.827 0 00-5.313-4.234V43.2H18.01V28h15.438v5.067z"/></g><defs><clipPath id="fclip0_55_1278"><path fill="#fff" d="M0 0h76v68H0z"/></clipPath></defs></svg><svg viewBox="0 0 78 74" id="h-icon-06" xmlns="http://www.w3.org/2000/svg"><g clip-path="url(#gclip0_55_1257)"><path d="M13 59h27v5H13v-5zM19 70h16v5H19v-5zM45.957 38a25.755 25.755 0 01-5.063 5.715C37.996 46.36 35 49.093 35 54h5.412c0-2.453 1.424-3.867 4.154-6.363A26.682 26.682 0 0052 38h-6.043zM27.15 5.402A21.612 21.612 0 0138 8.326V2.27A27.205 27.205 0 0012.287 4.4a27.016 27.016 0 00-9.006 9.754A26.87 26.87 0 00.027 27.001 24.686 24.686 0 002.23 38.408a24.801 24.801 0 007.182 9.155c2.745 2.525 4.177 3.956 4.177 6.437h5.425c0-4.968-3.011-7.738-5.93-10.422a19.415 19.415 0 01-5.895-7.34 19.321 19.321 0 01-1.737-9.237 21.576 21.576 0 016.363-15.265 21.777 21.777 0 0115.336-6.334zM52.929 31.308L39 17.19l4.43-4.469 9.499 9.62L73.57 1.423 78 5.92 52.929 31.308z"/></g><defs><clipPath id="gclip0_55_1257"><path fill="#fff" d="M0 0h78v74H0z"/></clipPath></defs></svg><svg fill="none" viewBox="0 0 80 80" id="hero-icon-01" xmlns="http://www.w3.org/2000/svg"><g clip-path="url(#hclip0_322_33)"><path d="M80 40c0 3.758-1.094 7.431-3.145 10.556a18.742 18.742 0 01-8.377 6.998 18.363 18.363 0 01-10.786 1.081 18.568 18.568 0 01-9.557-5.2 2.984 2.984 0 01-.11-.12L28.04 30.348a13.26 13.26 0 00-6.83-3.67 13.117 13.117 0 00-7.682.799 13.389 13.389 0 00-5.958 5A13.745 13.745 0 005.334 40c0 2.678.778 5.295 2.237 7.523a13.389 13.389 0 005.958 5 13.117 13.117 0 007.683.8 13.26 13.26 0 006.829-3.671l2.84-3.264c.232-.267.513-.486.828-.642a2.629 2.629 0 012.939.407c.262.236.476.523.63.844a2.751 2.751 0 01-.405 2.99l-2.896 3.328c-.035.041-.072.081-.11.12a18.568 18.568 0 01-9.558 5.2 18.362 18.362 0 01-10.785-1.081 18.742 18.742 0 01-8.377-6.998A19.242 19.242 0 010 40c0-3.758 1.095-7.431 3.146-10.556a18.743 18.743 0 018.377-6.998 18.362 18.362 0 0110.785-1.08 18.568 18.568 0 019.558 5.199c.038.039.075.079.11.12l19.984 22.967a13.26 13.26 0 006.829 3.67c2.582.511 5.255.233 7.682-.799a13.389 13.389 0 005.959-5A13.745 13.745 0 0074.667 40c0-2.677-.778-5.295-2.236-7.523a13.389 13.389 0 00-5.959-5 13.117 13.117 0 00-7.682-.799 13.26 13.26 0 00-6.83 3.67l-2.839 3.264a2.65 2.65 0 01-1.834.907 2.638 2.638 0 01-1.928-.678 2.733 2.733 0 01-.893-1.866 2.744 2.744 0 01.663-1.963l2.895-3.327c.036-.041.072-.081.11-.12a18.567 18.567 0 019.558-5.2 18.362 18.362 0 0110.786 1.081 18.742 18.742 0 018.377 6.998A19.242 19.242 0 0180 40z" fill="#009F90"/></g><g clip-path="url(#hclip1_322_33)" fill="#009F90"><path d="M29.445 76.854A19.242 19.242 0 0040 80c3.757 0 7.43-1.095 10.555-3.146a18.741 18.741 0 006.998-8.377l-5.03-2.006a13.389 13.389 0 01-5 5.96 13.745 13.745 0 01-7.523 2.236c-2.678 0-5.295-.779-7.524-2.237a13.389 13.389 0 01-5-5.959l-5.03 2.006a18.741 18.741 0 006.998 8.377zM47.524 7.57a13.389 13.389 0 015 5.959l5.03-2.006a18.742 18.742 0 00-6.998-8.377A19.242 19.242 0 0040.001 0a19.242 19.242 0 00-10.556 3.146 18.742 18.742 0 00-6.998 8.377l5.03 2.006a13.389 13.389 0 015-5.96 13.745 13.745 0 017.524-2.236c2.677 0 5.295.779 7.523 2.237z"/></g><defs><clipPath id="hclip0_322_33"><path fill="#fff" transform="translate(0 21)" d="M0 0h80v38H0z"/></clipPath><clipPath id="hclip1_322_33"><path fill="#fff" transform="rotate(90 29.5 29.5)" d="M0 0h80v38H0z"/></clipPath></defs></svg><svg fill="none" viewBox="0 0 79 75" id="hero-icon-02" xmlns="http://www.w3.org/2000/svg"><path d="M3.763 7.5c0-.995.396-1.948 1.101-2.652a3.768 3.768 0 012.66-1.098h22.572L39.5 15h31.976c.998 0 1.954.395 2.66 1.098a3.744 3.744 0 011.102 2.652V67.5c0 .995-.397 1.948-1.102 2.652a3.768 3.768 0 01-2.66 1.098H7.524a3.768 3.768 0 01-2.66-1.098A3.744 3.744 0 013.763 67.5v-60z" stroke="#009F90" stroke-width="5" stroke-linejoin="round"/><path d="M20.691 33.75l9.405 9.375L20.69 52.5" stroke="#009F90" stroke-width="4" stroke-linecap="round" stroke-linejoin="round"/><path d="M43.263 52.5H58.31" stroke="#009F90" stroke-width="4" stroke-linecap="round"/><path d="M42.474 44.312c0 .462-.336.756-.924.756-.686 0-1.54-.322-2.1-1.036l-1.274 1.526c.476 1.05 2.002 1.61 3.318 1.61 1.89 0 3.36-1.176 3.36-2.884 0-3.192-4.088-2.8-4.088-4.424 0-.448.364-.728.98-.728.728 0 1.05.252 1.484.658l1.204-1.68c-.616-.658-1.624-1.078-2.884-1.078-1.96 0-3.164 1.316-3.164 2.828 0 3.164 4.088 2.982 4.088 4.452zM46.669 47h5.95v-2.1h-3.71v-1.778h3.15v-2.1h-3.15V39.3h3.57v-2.1h-5.81V47zm7.353-4.9c0 3.122 2.226 5.068 5.208 5.068s5.208-2.1 5.208-5.068c0-3.122-2.227-5.068-5.209-5.068-3.121 0-5.207 2.226-5.207 5.068zm2.38 0c0-1.792 1.203-2.968 2.828-2.968 1.582 0 2.828 1.176 2.828 2.968 0 1.652-.966 2.968-2.828 2.968-1.569 0-2.828-1.288-2.828-2.968z" fill="#009F90"/></svg><svg fill="none" viewBox="0 0 80 80" id="hero-icon-03" xmlns="http://www.w3.org/2000/svg"><path d="M.265.526v6.222l11.384 13.515h6.892L6.35 5.79h66.105L46.806 37.76v26.15l-13.329 10.3h-.226V58.42h-5.278v21.053h7.69L52.084 66.09V39.607L78.473 6.713V.526H.265z" fill="#009F90"/><path d="M21.112 38.722l9.972-9.945-3.732-3.721L17.38 35l-9.972-9.944-3.732 3.721 9.972 9.945-9.972 9.944 3.732 3.722 9.972-9.945 9.972 9.945 3.732-3.722-9.972-9.944z" fill="#009F90"/></svg><svg fill="none" viewBox="0 0 80 80" id="hero-icon-04" xmlns="http://www.w3.org/2000/svg"><g clip-path="url(#kclip0_26_75)"><path d="M50.667 77.333H48a2.666 2.666 0 004.267 2.134l-1.6-2.134zm10.666-8l1.6-2.133a2.667 2.667 0 00-3.2 0l1.6 2.133zm10.667 8l-1.6 2.134a2.666 2.666 0 004.267-2.134H72zM61.333 58.667A13.333 13.333 0 0148 45.333h-5.333A18.667 18.667 0 0061.333 64v-5.333zm13.334-13.334a13.333 13.333 0 01-13.334 13.334V64A18.667 18.667 0 0080 45.333h-5.333zM61.333 32a13.334 13.334 0 0113.334 13.333H80a18.667 18.667 0 00-18.667-18.666V32zm0-5.333a18.667 18.667 0 00-18.666 18.666H48A13.334 13.334 0 0161.333 32v-5.333zM48 56v21.333h5.333V56H48zm4.267 23.467l10.666-8-3.2-4.267-10.666 8 3.2 4.267zm7.466-8l10.667 8 3.2-4.267-10.667-8-3.2 4.267zm14.934 5.866V56h-5.334v21.333h5.334zM80 26.667V8h-5.333v18.667H80zM72 0H8v5.333h64V0zM0 8v64h5.333V8H0zm8 72h34.667v-5.333H8V80zm-8-8a8 8 0 008 8v-5.333A2.667 2.667 0 015.333 72H0zM8 0a8 8 0 00-8 8h5.333A2.667 2.667 0 018 5.333V0zm72 8a8 8 0 00-8-8v5.333A2.667 2.667 0 0174.667 8H80zM16 26.667h26.667v-5.334H16v5.334zm0 16h16v-5.334H16v5.334z" fill="#009F90"/></g><defs><clipPath id="kclip0_26_75"><path fill="#fff" d="M0 0h80v80H0z"/></clipPath></defs></svg><svg aria-hidden="true" data-prefix="fas" data-icon="at" class="lsvg-inline--fa lfa-at lfa-w-16" viewBox="0 0 512 512" id="icon-email" xmlns="http://www.w3.org/2000/svg"><path d="M256 8C118.941 8 8 118.919 8 256c0 137.059 110.919 248 248 248 48.154 0 95.342-14.14 135.408-40.223 12.005-7.815 14.625-24.288 5.552-35.372l-10.177-12.433c-7.671-9.371-21.179-11.667-31.373-5.129C325.92 429.757 291.314 440 256 440c-101.458 0-184-82.542-184-184S154.542 72 256 72c100.139 0 184 57.619 184 160 0 38.786-21.093 79.742-58.17 83.693-17.349-.454-16.91-12.857-13.476-30.024l23.433-121.11C394.653 149.75 383.308 136 368.225 136h-44.981a13.518 13.518 0 00-13.432 11.993l-.01.092c-14.697-17.901-40.448-21.775-59.971-21.775-74.58 0-137.831 62.234-137.831 151.46 0 65.303 36.785 105.87 96 105.87 26.984 0 57.369-15.637 74.991-38.333 9.522 34.104 40.613 34.103 70.71 34.103C462.609 379.41 504 307.798 504 232 504 95.653 394.023 8 256 8zm-21.68 304.43c-22.249 0-36.07-15.623-36.07-40.771 0-44.993 30.779-72.729 58.63-72.729 22.292 0 35.601 15.241 35.601 40.77 0 45.061-33.875 72.73-58.161 72.73z"/></svg><svg fill="none" viewBox="0 0 20 21" id="icon-m-phone" xmlns="http://www.w3.org/2000/svg"><path d="M19.414 14.64c.39.157.586.443.586.86a.434.434 0 01-.04.195l-.937 4.063c-.104.495-.403.742-.898.742-5 0-9.27-1.77-12.813-5.313C1.772 11.646 0 7.375 0 2.376c0-.495.247-.794.742-.898L4.805.539A.435.435 0 015 .5c.417 0 .703.195.86.586L7.733 5.46a.775.775 0 01.079.351c0 .287-.118.534-.352.743L5.117 8.469c1.459 3.15 3.763 5.456 6.914 6.914l1.914-2.344c.209-.234.456-.351.742-.351.13 0 .248.025.352.078l4.375 1.875z" fill="#009F90"/></svg><svg aria-hidden="true" data-prefix="fas" data-icon="phone-alt" class="nsvg-inline--fa nfa-phone-alt nfa-w-16" viewBox="0 0 512 512" id="icon-phone" xmlns="http://www.w3.org/2000/svg"><path d="M497.39 361.8l-112-48a24 24 0 00-28 6.9l-49.6 60.6A370.66 370.66 0 01130.6 204.11l60.6-49.6a23.94 23.94 0 006.9-28l-48-112A24.16 24.16 0 00122.6.61l-104 24A24 24 0 000 48c0 256.5 207.9 464 464 464a24 24 0 0023.4-18.6l24-104a24.29 24.29 0 00-14.01-27.6z"/></svg><svg fill="none" viewBox="0 0 78 75" id="pr-01" xmlns="http://www.w3.org/2000/svg"><path d="M46 64h21v4H46v-4zM46 54h32v4H46v-4zM46 43h32v4H46v-4z" fill="#009F90"/><path d="M52.58 24.688L40.345 0 28.11 24.688.753 28.648 20.55 47.865 15.874 75l19.091-9.994v-5.053l-13.944 8.254 3.83-19.436.478-2.777-2.025-1.964-13.99-12.643 18.57-2.398 2.797-.404 1.254-2.526 8.41-16.955 8.41 16.955 1.253 2.526 2.797.404 19.05 2.906.766-4.306-20.04-2.9z" fill="#009F90"/></svg><svg fill="none" viewBox="0 0 76 76" id="pr-02" xmlns="http://www.w3.org/2000/svg"><path d="M22.571 10H12.286c-2.728 0-5.344.843-7.273 2.343C3.083 13.843 2 15.878 2 18v48c0 2.122 1.084 4.157 3.013 5.657C6.942 73.157 9.558 74 12.286 74h51.428c2.728 0 5.344-.843 7.273-2.343C72.917 70.157 74 68.122 74 66V18c0-2.122-1.084-4.157-3.013-5.657-1.929-1.5-4.545-2.343-7.273-2.343H53.43" stroke="#009F90" stroke-width="3" stroke-linecap="round" stroke-linejoin="round"/><path d="M43 2H33c-5.523 0-10 3.582-10 8s4.477 8 10 8h10c5.523 0 10-3.582 10-8s-4.477-8-10-8zM33 58V38M13 58V38M13 58V38M48 58v-4M28 58v-4M63 58V46M43 58V46M23 58V46" stroke="#009F90" stroke-width="3" stroke-linecap="round" stroke-linejoin="round"/></svg><svg fill="none" viewBox="0 0 69 76" id="pr-03" xmlns="http://www.w3.org/2000/svg"><path d="M27.278 9.222L34.5 2M20.056 53.944l28.888-28.888M34.5 74l7.222-7.222m9.028 0a9.028 9.028 0 100-18.056 9.028 9.028 0 000 18.056zm-32.5-39.5a9.028 9.028 0 100-18.056 9.028 9.028 0 000 18.056zM11.028 72a9.028 9.028 0 100-18.055 9.028 9.028 0 000 18.055zm46.944-46.944a9.028 9.028 0 100-18.056 9.028 9.028 0 000 18.056z" stroke="#009F90" stroke-width="3" stroke-linecap="round" stroke-linejoin="round"/></svg><svg fill="none" viewBox="0 0 40 40" id="sp-01" xmlns="http://www.w3.org/2000/svg"><path d="M2.498 5h1.249l6.322 23.281c.104.469.41.873.917 1.211.507.339 1.008.508 1.502.508H31.22c.599 0 1.119-.163 1.561-.488.442-.326.729-.736.859-1.23l6.166-14.688c.26-.964.22-1.804-.118-2.52-.338-.716-.871-1.074-1.6-1.074h-.741c-.494 0-.956.176-1.385.527-.43.352-.71.775-.84 1.27L29.973 25H13.736L7.064 1.758a2.443 2.443 0 00-.78-1.25C5.894.169 5.464 0 4.996 0H2.498A2.38 2.38 0 00.723.742 2.46 2.46 0 000 2.52c0 .69.24 1.276.722 1.757.48.482 1.073.723 1.775.723zm12.469 10c.689 0 1.28-.24 1.775-.723a2.362 2.362 0 00.742-1.757c0-.69-.248-1.283-.742-1.778A2.421 2.421 0 0014.966 10c-.689 0-1.274.247-1.756.742a2.46 2.46 0 00-.722 1.777c0 .69.241 1.277.722 1.758a2.39 2.39 0 001.756.723zm.019 5.02c0 .69.24 1.276.722 1.757a2.39 2.39 0 001.756.723c.69 0 1.281-.24 1.776-.723a2.362 2.362 0 00.741-1.758c0-.69-.247-1.282-.741-1.777a2.421 2.421 0 00-1.776-.742c-.69 0-1.275.247-1.756.742a2.459 2.459 0 00-.722 1.777zM19.962 7.5c.689 0 1.28-.24 1.775-.723a2.362 2.362 0 00.742-1.757c0-.69-.247-1.283-.742-1.778a2.421 2.421 0 00-1.775-.742c-.69 0-1.275.247-1.756.742a2.46 2.46 0 00-.722 1.778c0 .69.24 1.276.721 1.757a2.39 2.39 0 001.757.723zm.02 5.02c0 .69.24 1.276.721 1.757A2.389 2.389 0 0022.46 15c.69 0 1.282-.24 1.776-.723a2.362 2.362 0 00.741-1.757c0-.69-.247-1.283-.741-1.778A2.421 2.421 0 0022.459 10c-.69 0-1.275.247-1.756.742a2.46 2.46 0 00-.722 1.777zm2.497 7.5c0 .69.24 1.276.722 1.757a2.39 2.39 0 001.756.723c.69 0 1.281-.24 1.775-.723a2.362 2.362 0 00.742-1.758c0-.69-.247-1.282-.742-1.777a2.421 2.421 0 00-1.775-.742c-.69 0-1.275.247-1.756.742a2.459 2.459 0 00-.722 1.777zM27.454 7.5c.69 0 1.282-.24 1.776-.723a2.362 2.362 0 00.741-1.757c0-.69-.247-1.283-.741-1.778a2.421 2.421 0 00-1.776-.742c-.69 0-1.274.247-1.756.742a2.46 2.46 0 00-.722 1.778c0 .69.24 1.276.722 1.757a2.39 2.39 0 001.756.723zm.02 5.02c0 .69.24 1.276.722 1.757a2.389 2.389 0 001.756.723c.69 0 1.281-.24 1.775-.723a2.362 2.362 0 00.742-1.757c0-.69-.247-1.283-.742-1.778A2.421 2.421 0 0029.953 10c-.69 0-1.275.247-1.756.742a2.46 2.46 0 00-.722 1.777zm1.053 19.98c-1.04 0-1.925.365-2.653 1.094-.729.729-1.093 1.614-1.093 2.656s.364 1.927 1.093 2.656c.728.73 1.613 1.094 2.654 1.094 1.04 0 1.925-.365 2.653-1.094.729-.729 1.093-1.614 1.093-2.656s-.364-1.927-1.093-2.656c-.728-.73-1.613-1.094-2.654-1.094zm-12.468 0c-1.028 0-1.912.365-2.654 1.094a3.586 3.586 0 00-1.112 2.656c0 1.042.371 1.927 1.113 2.656.741.73 1.625 1.094 2.653 1.094a3.588 3.588 0 002.634-1.094c.729-.729 1.093-1.614 1.093-2.656s-.364-1.927-1.093-2.656A3.588 3.588 0 0016.06 32.5z" fill="#009F90"/></svg><svg fill="none" viewBox="0 0 40 38" id="sp-02" xmlns="http://www.w3.org/2000/svg"><g clip-path="url(#sclip0_51_613)" fill="#009F90"><path d="M18.889 21.235v-3.912c0-.444.175-.87.488-1.185a1.662 1.662 0 012.357 0c.313.314.488.74.488 1.185v3.912h3.89c.441 0 .865.177 1.178.491a1.681 1.681 0 010 2.371 1.662 1.662 0 01-1.179.491h-3.889V28.5c0 .445-.175.871-.488 1.185a1.662 1.662 0 01-2.357 0 1.681 1.681 0 01-.488-1.185v-3.912H15c-.442 0-.866-.176-1.178-.49a1.681 1.681 0 010-2.372 1.662 1.662 0 011.178-.49h3.889z"/><path d="M12.778 0h14.444c.403 0 .792.147 1.096.413.303.266.5.634.555 1.035l.016.228v7.265h3.889c1.915 0 3.752.766 5.107 2.128A7.287 7.287 0 0140 16.206v14.53c0 1.926-.76 3.774-2.115 5.136A7.201 7.201 0 0132.778 38H7.222a7.2 7.2 0 01-5.107-2.128A7.286 7.286 0 010 30.735v-14.53c0-1.926.76-3.774 2.115-5.136a7.2 7.2 0 015.107-2.128h3.89V1.676c0-.405.145-.796.41-1.101.264-.306.63-.504 1.03-.56L12.777 0zm19 13.294H8.222c-1.031 0-2.02.412-2.75 1.146a3.924 3.924 0 00-1.139 2.766v12.53c0 2.159 1.743 3.911 3.89 3.911h23.555c1.031 0 2.02-.412 2.75-1.146a3.923 3.923 0 001.139-2.766v-12.53c0-1.037-.41-2.032-1.14-2.765a3.877 3.877 0 00-2.75-1.146zm-6.222-9.941H14.444V8.94h11.112V3.353z"/></g><defs><clipPath id="sclip0_51_613"><path fill="#fff" d="M0 0h40v38H0z"/></clipPath></defs></svg><svg fill="none" viewBox="0 0 40 40" id="sp-03" xmlns="http://www.w3.org/2000/svg"><path d="M20 11.667a2.5 2.5 0 100-5 2.5 2.5 0 000 5zM21.483.492a2.5 2.5 0 00-2.966 0L2.683 12.167c-1.94 1.431-.928 4.511 1.484 4.511H5v12.07a5.417 5.417 0 00-3.333 5.002v2.5c0 .69.56 1.25 1.25 1.25h34.166a1.25 1.25 0 001.25-1.25v-2.5a5.417 5.417 0 00-3.333-5V16.678h.832c2.413 0 3.425-3.08 1.483-4.511L21.483.492zM7.5 27.333v-9.655h3.167v9.655H7.5zm25-9.655v9.655h-3.167v-9.655H32.5zm-6.667 0v9.655H22.25v-9.655h3.583zm-8.083 0v9.655h-3.583v-9.655h3.583zm-12.583-3.5L20 3.503l14.832 10.675H5.167zm-1 19.572a2.918 2.918 0 012.916-2.917h25.834a2.918 2.918 0 012.916 2.917V34H4.167v-.25z" fill="#009F90"/></svg><svg fill="none" viewBox="0 0 40 37" id="sp-04" xmlns="http://www.w3.org/2000/svg"><g clip-path="url(#uclip0_51_636)" stroke="#009F90" stroke-width="4" stroke-linecap="round" stroke-linejoin="round"><path d="M3.81 35.053c2.184-7.829 3.777-15.632 3.809-23.369h11.429c.032 7.737 1.624 15.54 3.81 23.369"/><path d="M20 19.474h8.571c.048 5.086 1.703 10.313 3.81 15.579M13.333 3.895a4.6 4.6 0 011.67-1.455 4.489 4.489 0 012.14-.493 4.488 4.488 0 012.14.493 4.6 4.6 0 011.67 1.455 4.6 4.6 0 001.669 1.455c.663.34 1.398.508 2.14.492a4.489 4.489 0 002.14-.492 4.6 4.6 0 001.67-1.455A4.6 4.6 0 0130.24 2.44a4.489 4.489 0 012.14-.493 4.488 4.488 0 012.14.493 4.6 4.6 0 011.67 1.455M1.905 35.053h36.19"/></g><defs><clipPath id="uclip0_51_636"><path fill="#fff" d="M0 0h40v37H0z"/></clipPath></defs></svg><svg fill="none" viewBox="0 0 40 37" id="sp-05" xmlns="http://www.w3.org/2000/svg"><path d="M20.5 12.333c.878 0 1.725.34 2.37.951a3.636 3.636 0 011.118 2.35l.012.297v17.472c0 .903-.33 1.773-.926 2.437a3.465 3.465 0 01-2.288 1.148L20.5 37h-17c-.879 0-1.725-.34-2.371-.952a3.636 3.636 0 01-1.117-2.351L0 33.403V15.93c0-.903.33-1.773.925-2.437a3.465 3.465 0 012.287-1.148l.288-.013h17zM11 15.415H3.5a.492.492 0 00-.31.112.516.516 0 00-.176.286L3 15.931v17.472c0 .116.038.228.108.319.07.09.168.154.278.18l.114.015H11V15.415zm9.5 0H13v18.502h7.5c.113 0 .222-.04.31-.112a.516.516 0 00.176-.285l.014-.117V15.93a.523.523 0 00-.108-.32.499.499 0 00-.278-.182l-.114-.012v-.002zm-3.25 13.363c.38 0 .746.148 1.024.415a1.57 1.57 0 01.14 2.1 1.49 1.49 0 01-.96.554l-.204.014h-1c-.38 0-.746-.148-1.024-.415a1.57 1.57 0 01-.14-2.1 1.49 1.49 0 01.96-.554l.204-.014h1zm-9.5 0c.38 0 .746.148 1.024.415a1.57 1.57 0 01.14 2.1 1.49 1.49 0 01-.96.554l-.204.014h-1c-.38 0-.746-.148-1.024-.415a1.57 1.57 0 01-.14-2.1 1.49 1.49 0 01.96-.554l.204-.014h1zM35.5 0c1.14 0 2.238.445 3.072 1.244.833.8 1.34 1.895 1.418 3.064l.01.317v17.472c0 1.172-.433 2.3-1.21 3.157a4.452 4.452 0 01-2.982 1.458l-.308.01H26V22.64h8.5c.362 0 .713-.135.986-.38s.45-.583.5-.952l.014-.21V5.625c0-.409-.158-.801-.44-1.09a1.48 1.48 0 00-1.06-.452h-21c-.363 0-.713.135-.986.38s-.45.583-.5.952l-.014.21v4.653H8V4.625c0-1.172.433-2.3 1.21-3.157A4.452 4.452 0 0112.193.01L12.5 0h23zm-7 17.5c.398 0 .78.162 1.06.451.282.29.44.682.44 1.09 0 .41-.158.802-.44 1.09a1.48 1.48 0 01-1.06.452H26V17.5h2.5z" fill="#009F90"/></svg><svg fill="none" viewBox="0 0 43 39" id="sp-06" xmlns="http://www.w3.org/2000/svg"><path d="M43 6.5V4.333a2.07 2.07 0 00-.7-1.532 2.519 2.519 0 00-1.689-.634H16.722V0H9.556v2.167h-2.39V6.5h2.39V26h-2.39v-4.333H2.39V26H0v4.333h2.389V39h4.778v-8.667H19.11V39h4.778v-8.667h2.389V26h-2.39v-4.333h-4.777V26h-2.389V6.5h19.111v10.01c-1.122.368-1.935 1.322-1.935 2.47 0 .953.574 1.82 1.458 2.297v2.556h1.48c.813 0 1.458.607 1.458 1.344 0 .736-.645 1.343-1.457 1.343-.526 0-1.004-.26-1.266-.672-.2-.302-.521-.52-.896-.61a1.615 1.615 0 00-1.111.134c-.717.346-.956 1.17-.55 1.82.789 1.213 2.246 1.993 3.823 1.993 2.412 0 4.395-1.798 4.395-4.008 0-1.69-1.194-3.207-2.938-3.77v-.13c.908-.477 1.481-1.344 1.481-2.297 0-.997-.645-1.842-1.553-2.297V6.5H43zM14.333 23.097l-2.389 2.166v-3.076l2.39-2.167v3.077zm0-6.392l-2.389 2.167v-3.077l2.39-2.167v3.077zm-2.389-4.333V9.295l2.39-2.167v3.077l-2.39 2.167z" fill="#009F90"/></svg><svg fill="none" viewBox="0 0 40 38" id="sp-07" xmlns="http://www.w3.org/2000/svg"><path d="M3.5 0a1.5 1.5 0 00-1.06.44C2.157.72 2 1.101 2 2.5c0 .398.158 1.78.44 2.06A1.5 1.5 0 003.5 5h2.084L.11 18.434A1.5 1.5 0 000 19a7 7 0 1014 0 1.5 1.5 0 00-.11-.566L8.416 5H18.5v28h-7.994a4.5 4.5 0 00-3.182 1.318c-.844.844-1.318-.011-1.318 1.182 0 1.194.474.338 1.318 1.182A4.5 4.5 0 0010.506 38H29.5a4.5 4.5 0 003.182-1.318c.844-.844 1.318.011 1.318-1.182 0-1.194-.474-.338-1.318-1.182A4.5 4.5 0 0029.5 33h-8V5h10.084L26.11 18.434A1.5 1.5 0 0026 19a7 7 0 1014 0 1.5 1.5 0 00-.11-.566L34.416 5H36.5a1.5 1.5 0 001.06-.44c.282-.28.44-1.662.44-2.06 0-1.398-.158-1.78-.44-2.06A1.5 1.5 0 0036.5 0h-33zM7 9.476l3.27 8.024H3.73L7 9.476zM29.73 17.5L33 9.476l3.27 8.024h-6.54z" fill="#009F90"/></svg><svg fill="none" viewBox="0 0 40 40" id="sp-08" xmlns="http://www.w3.org/2000/svg"><path d="M3 27c4.828 0 8.449-5 8.449-5s3.62 5 8.448 5c4.826 0 9.654-5 9.654-5S34.38 27 38 27M3 37c4.828 0 8.449-5 8.449-5s3.62 5 8.448 5c4.826 0 9.654-5 9.654-5S34.38 37 38 37M32 14a11 11 0 10-22 0" stroke="#009F90" stroke-width="4" stroke-linecap="round" stroke-linejoin="round"/></svg><svg viewBox="0 0 20 12" id="vk-icon" xmlns="http://www.w3.org/2000/svg"><path d="M18.535 1.398c-.07.352-.351.926-.844 1.723-.468.797-.902 1.5-1.3 2.11-.399.585-.61.89-.633.914-.14.21-.211.363-.211.457 0 .093.07.257.21.492l.458.492c.328.328.668.68 1.02 1.055.35.375.69.796 1.019 1.265.351.446.574.809.668 1.09.164.586-.07.879-.703.879h-2.075c-.187 0-.374-.047-.562-.14a1.984 1.984 0 01-.422-.317c-.117-.14-.328-.375-.633-.703-.28-.328-.55-.621-.808-.88-.938-.89-1.63-1.335-2.074-1.335-.282 0-.446.082-.493.246-.046.164-.07.633-.07 1.406.023.375.035.68.035.914 0 .282-.094.493-.281.633-.188.117-.598.176-1.23.176-1.102 0-2.215-.328-3.34-.984-1.125-.657-2.11-1.594-2.954-2.813a23.07 23.07 0 01-2.003-3.2C.793 3.802.453 2.98.289 2.419.125 1.855.043 1.457.043 1.223c0-.399.234-.598.703-.598H2.82c.258 0 .446.059.563.176.14.117.258.328.351.633.493 1.43 1.09 2.707 1.793 3.832.727 1.125 1.278 1.687 1.653 1.687.14 0 .234-.047.28-.14.071-.118.106-.329.106-.633V3.12c-.046-.539-.199-.984-.457-1.336-.257-.351-.386-.574-.386-.668 0-.14.047-.258.14-.351A.605.605 0 017.25.625h3.27c.375 0 .562.258.562.773v4.079c0 .398.105.597.316.597.235 0 .563-.21.985-.633.445-.492.879-1.09 1.3-1.793.422-.703.739-1.289.95-1.757l.316-.668c.164-.399.457-.598.88-.598h2.073c.563 0 .774.258.633.773z"/></svg></svg>