<svg width="40" height="40" viewBox="0 0 40 40" fill="none" xmlns="http://www.w3.org/2000/svg">
<path d="M20 40C8.954 40 0 31.046 0 20C0 8.954 8.954 0 20 0C31.046 0 40 8.954 40 20C40 31.046 31.046 40 20 40ZM12.658 20.608C12.578 22.308 12.732 24.002 12.894 25.696C12.904 25.816 12.948 25.844 13.054 25.856C13.866 25.964 14.68 26.06 15.498 26.11C17.426 26.232 19.354 26.388 21.29 26.28C22.39 26.22 23.49 26.184 24.586 26.09C26.15 25.9709 27.7058 25.7626 29.246 25.466C31.162 25.078 33.06 24.616 34.846 23.776C35.658 23.396 36.426 22.946 37.074 22.304C37.55 21.834 37.89 21.29 37.894 20.584C37.8971 19.9562 37.8671 19.3286 37.804 18.704C37.6651 17.2164 37.3419 15.7519 36.842 14.344C35.674 11.108 33.822 8.366 31.19 6.204C28.9651 4.35222 26.3209 3.07302 23.488 2.478C22.488 2.268 21.476 2.19 20.46 2.118C19.314 2.036 18.332 2.358 17.484 3.146C16.494 4.06 15.81 5.194 15.24 6.412C13.906 9.266 13.294 12.32 12.908 15.428C12.6774 17.1444 12.5938 18.8774 12.658 20.608ZM19.798 10.548C21.716 10.608 23.338 11.196 24.786 12.26C26.5395 13.5135 27.762 15.3764 28.214 17.484C28.35 18.092 28.408 18.708 28.42 19.328C28.43 19.746 28.2 20.052 27.896 20.308C27.282 20.824 26.556 21.11 25.796 21.324C24.316 21.738 22.804 21.976 21.266 22.056C20.266 22.108 19.266 22.126 18.266 22.076C17.882 22.056 17.496 22.028 17.112 22.012C16.992 22.008 16.952 21.972 16.944 21.85C16.898 20.982 16.83 20.114 16.844 19.246C16.876 17.194 17.032 15.156 17.638 13.178C17.838 12.52 18.084 11.878 18.478 11.306C18.824 10.806 19.234 10.432 19.798 10.546V10.548Z" fill="#009F90"/>
</svg>
