<svg width="40" height="40" viewBox="0 0 40 40" fill="none" xmlns="http://www.w3.org/2000/svg">
<path d="M39.6043 37.7366L37.7701 39.6098C37.51 39.8439 37.1978 39.961 36.8336 39.961C36.4693 39.961 36.1571 39.8439 35.897 39.6098L30.0043 33.678C28.4433 34.5626 26.7783 35.0049 25.0092 35.0049C22.2515 35.0049 19.897 34.0293 17.9458 32.078C15.9945 30.1268 15.0189 27.7724 15.0189 25.0146C15.0189 22.2569 15.9945 19.9024 17.9458 17.9512C19.897 16 22.2515 15.0244 25.0092 15.0244C27.7669 15.0244 30.1214 16 32.0726 17.9512C34.0238 19.9024 34.9994 22.2569 34.9994 25.0146C34.9994 26.7837 34.5571 28.4358 33.6726 29.9707L39.6043 35.9024C39.8645 36.1626 39.9945 36.4683 39.9945 36.8195C39.9945 37.1707 39.8645 37.4764 39.6043 37.7366ZM25.0287 17.522C22.9604 17.522 21.1913 18.2504 19.7214 19.7073C18.2515 21.1642 17.5165 22.9268 17.5165 24.9951C17.5165 27.0634 18.2515 28.8325 19.7214 30.3024C21.1913 31.7724 22.9604 32.5073 25.0287 32.5073C27.097 32.5073 28.8596 31.7724 30.3165 30.3024C31.7734 28.8325 32.5019 27.0634 32.5019 24.9951C32.5019 22.9268 31.7734 21.1642 30.3165 19.7073C28.8596 18.2504 27.097 17.522 25.0287 17.522ZM27.5067 12.761V12.5268C27.5067 11.8244 27.7539 11.2325 28.2482 10.7512C28.7425 10.2699 29.3279 10.0293 30.0043 10.0293H34.9994C35.7019 10.0293 36.3002 10.2699 36.7945 10.7512C37.2888 11.2325 37.536 11.8244 37.536 12.5268V25.0146H37.497C37.497 22.0228 36.5539 19.3756 34.6677 17.0732C32.7815 14.7707 30.3945 13.3333 27.5067 12.761ZM15.0189 17.522V7.53171C15.0189 6.82927 15.2661 6.2374 15.7604 5.7561C16.2547 5.2748 16.8401 5.03415 17.5165 5.03415H22.5116C23.2141 5.03415 23.8059 5.2748 24.2872 5.7561C24.7685 6.2374 25.0092 6.82927 25.0092 7.53171V12.5268C23.0059 12.5268 21.1328 12.9756 19.3897 13.8732C17.6466 14.7707 16.1897 15.987 15.0189 17.522ZM15.0189 32.4683C16.1897 34.0293 17.6466 35.2585 19.3897 36.1561C21.1328 37.0537 23.0059 37.5024 25.0092 37.5024H27.5067C27.5067 38.1789 27.2661 38.7642 26.7848 39.2585C26.3035 39.7528 25.7116 40 25.0092 40H2.53113C1.85471 40 1.26934 39.7528 0.775033 39.2585C0.280724 38.7642 0.0335693 38.1724 0.0335693 37.4829C0.0335693 36.7935 0.27422 36.2081 0.75552 35.7268C1.23682 35.2455 1.82869 35.0049 2.53113 35.0049V2.49756C2.53113 1.82114 2.77828 1.23577 3.27259 0.741463C3.7669 0.247154 4.35227 0 5.02869 0H10.0238C10.7263 0 11.3181 0.247154 11.7994 0.741463C12.2807 1.23577 12.5214 1.82114 12.5214 2.49756V35.0049H15.0189V32.4683Z" fill="#009F90"/>
</svg>
