<svg width="76" height="72" viewBox="0 0 76 72" xmlns="http://www.w3.org/2000/svg">
<path d="M22 61C24.2091 61 26 59.2091 26 57C26 54.7909 24.2091 53 22 53C19.7909 53 18 54.7909 18 57C18 59.2091 19.7909 61 22 61Z"/>
<path d="M38.8235 72H5.17647C3.80401 71.9986 2.48815 71.4564 1.51767 70.4922C0.547188 69.528 0.00137041 68.2207 0 66.8571V5.14286C0.00137041 3.7793 0.547188 2.47199 1.51767 1.50781C2.48815 0.543634 3.80401 0.00136151 5.17647 0H38.8235V5.14286H5.17647V66.8571H38.8235V56.5714H44V66.8571C43.9986 68.2207 43.4528 69.528 42.4823 70.4922C41.5119 71.4564 40.196 71.9986 38.8235 72Z"/>
<path d="M37.9071 9L35.5939 11.3263L39.0357 14.791L41.3456 12.4647L37.9054 9H37.9071ZM68.0946 9L64.6528 12.4647L66.9643 14.791L70.4044 11.328L68.0929 9H68.0946ZM53 10.0325C52.4579 10.0391 51.9091 10.0705 51.3571 10.1383C51.3407 10.1383 51.3243 10.135 51.3079 10.1383C44.6444 10.9077 39.3413 16.3297 38.4196 23.0109C37.6836 28.3883 39.8851 33.2643 43.5536 36.4047C45.0542 37.6945 46.0692 39.4644 46.4286 41.418V51.3454H50.1743C50.746 52.3332 51.7892 53 53 53C54.2108 53 55.254 52.3332 55.8257 51.3454H59.5714V44.7271H59.7259V42.7615C59.7259 40.3359 60.9777 37.8905 63.0116 35.9894C65.7321 33.2461 67.7857 29.3496 67.7857 24.874C67.7857 16.7004 61.1059 9.95634 53 10.0325V10.0325ZM53 13.3416C59.3496 13.2522 64.5 18.4873 64.5 24.874C64.5 28.3386 62.9064 31.3897 60.7001 33.6101L60.7526 33.663C58.56 35.6993 57.1423 38.4428 56.7441 41.4197H49.5582C49.1968 38.5837 47.9893 35.8388 45.7074 33.8699C42.8044 31.388 41.0745 27.6487 41.6528 23.4262C42.3707 18.2143 46.5699 14.0233 51.7153 13.4491C52.1401 13.3895 52.5679 13.3541 52.9967 13.3432L53 13.3416ZM30 24.874V28.1831H34.9286V24.874H30ZM71.0714 24.874V28.1831H76V24.874H71.0714ZM39.0357 38.266L35.5956 41.7291L37.9071 44.057L41.3439 40.5924L39.0357 38.266ZM66.9643 38.266L64.6544 40.5924L68.0929 44.057L70.4044 41.7291L66.9643 38.266ZM49.7143 44.7288H56.2857V48.0379H49.7143V44.7288Z"/>
</svg>
