<svg width="74" height="74" viewBox="0 0 74 74"  xmlns="http://www.w3.org/2000/svg">
<path d="M25.4375 23.125C23.5976 23.125 21.833 23.8559 20.5319 25.1569C19.2309 26.458 18.5 28.2226 18.5 30.0625V43.9375C18.5 45.7774 19.2309 47.542 20.5319 48.8431C21.833 50.1441 23.5976 50.875 25.4375 50.875H44.2057C46.0557 50.875 47.8549 50.2414 49.2933 49.0712L57.5535 42.3928C58.3571 41.7424 59.0052 40.9206 59.4504 39.9876C59.8956 39.0546 60.1267 38.0338 60.1267 37C60.1267 35.9662 59.8956 34.9454 59.4504 34.0124C59.0052 33.0794 58.3571 32.2576 57.5535 31.6072L49.2933 24.9287C47.8538 23.7631 46.058 23.1264 44.2057 23.125H25.4375ZM23.125 30.0625C23.125 29.4492 23.3686 28.861 23.8023 28.4273C24.236 27.9936 24.8242 27.75 25.4375 27.75H44.2057C44.9988 27.7509 45.7676 28.0235 46.3841 28.5224L54.6444 35.2009C54.9128 35.4176 55.1293 35.6917 55.2781 36.003C55.4268 36.3143 55.504 36.655 55.504 37C55.504 37.345 55.4268 37.6857 55.2781 37.997C55.1293 38.3083 54.9128 38.5824 54.6444 38.7991L46.3841 45.4776C45.7676 45.9765 44.9988 46.2491 44.2057 46.25H25.4375C24.8242 46.25 24.236 46.0064 23.8023 45.5727C23.3686 45.139 23.125 44.5508 23.125 43.9375V30.0625ZM37 0C27.187 0 17.7759 3.8982 10.837 10.837C3.8982 17.7759 0 27.187 0 37C0 46.813 3.8982 56.2241 10.837 63.163C17.7759 70.1018 27.187 74 37 74C46.813 74 56.2241 70.1018 63.163 63.163C70.1018 56.2241 74 46.813 74 37C74 27.187 70.1018 17.7759 63.163 10.837C56.2241 3.8982 46.813 0 37 0ZM4.625 37C4.625 32.7485 5.4624 28.5385 7.0894 24.6106C8.7164 20.6827 11.1011 17.1137 14.1074 14.1074C17.1137 11.1011 20.6827 8.7164 24.6106 7.0894C28.5385 5.4624 32.7485 4.625 37 4.625C41.2515 4.625 45.4615 5.4624 49.3894 7.0894C53.3173 8.7164 56.8863 11.1011 59.8926 14.1074C62.8989 17.1137 65.2836 20.6827 66.9106 24.6106C68.5376 28.5385 69.375 32.7485 69.375 37C69.375 45.5864 65.9641 53.8211 59.8926 59.8926C53.8211 65.9641 45.5864 69.375 37 69.375C28.4136 69.375 20.1789 65.9641 14.1074 59.8926C8.03593 53.8211 4.625 45.5864 4.625 37Z" />
</svg>
