<svg width="78" height="74" xmlns="http://www.w3.org/2000/svg"><g clip-path="url(#clip0_55_1257)"><path d="M13 59h27v5H13v-5zm6 11h16v5H19v-5zm26.957-32a25.755 25.755 0 01-5.063 5.715C37.996 46.36 35 49.093 35 54h5.412c0-2.453 1.424-3.867 4.154-6.363A26.682 26.682 0 0052 38h-6.043zM27.15 5.402A21.612 21.612 0 0138 8.326V2.27A27.205 27.205 0 0012.287 4.4a27.016 27.016 0 00-9.006 9.754A26.87 26.87 0 00.027 27.001 24.686 24.686 0 002.23 38.408a24.801 24.801 0 007.182 9.155c2.745 2.525 4.177 3.956 4.177 6.437h5.425c0-4.968-3.011-7.738-5.93-10.422a19.415 19.415 0 01-5.895-7.34 19.321 19.321 0 01-1.737-9.237 21.576 21.576 0 016.363-15.265 21.777 21.777 0 0115.336-6.334zm25.779 25.906L39 17.19l4.43-4.469 9.499 9.62L73.57 1.423 78 5.92 52.929 31.308z"/></g><defs><clipPath id="clip0_55_1257"><path fill="#fff" d="M0 0h78v74H0z"/></clipPath></defs></svg>5784C10.5446 41.6495 8.52015 39.1288 7.1892 36.238C5.85824 33.3473 5.2616 30.1752 5.45178 27.0009C5.45895 21.2746 7.74738 15.7849 11.8151 11.7358C15.8829 7.6867 21.3979 5.40878 27.1506 5.40163Z"/>
<path d="M52.9286 31.3077L39 17.1908L43.4293 12.7223L52.9286 22.3423L73.5707 1.4231L78 5.92002L52.9286 31.3077Z"/>
</g>
<defs>
<clipPath id="clip0_55_1257">
<rect width="78" height="74" fill="white"/>
</clipPath>
</defs>
</svg>
