<svg width="74" height="74" xmlns="http://www.w3.org/2000/svg"><path d="M25.438 23.125a6.938 6.938 0 00-6.938 6.938v13.875a6.938 6.938 0 006.938 6.937h18.768c1.85 0 3.649-.634 5.087-1.804l8.26-6.678a6.938 6.938 0 000-10.786l-8.26-6.678a8.094 8.094 0 00-5.087-1.804H25.437zm-2.313 6.938a2.312 2.312 0 012.313-2.313h18.768a3.47 3.47 0 012.178.772l8.26 6.679a2.313 2.313 0 010 3.598l-8.26 6.679a3.47 3.47 0 01-2.178.772H25.437a2.312 2.312 0 01-2.312-2.313V30.063zM37 0a37 37 0 100 74 37 37 0 000-74zM4.625 37a32.375 32.375 0 1164.75 0 32.375 32.375 0 01-64.75 0z"/></svg>47.8538 23.7631 46.058 23.1264 44.2057 23.125H25.4375ZM23.125 30.0625C23.125 29.4492 23.3686 28.861 23.8023 28.4273C24.236 27.9936 24.8242 27.75 25.4375 27.75H44.2057C44.9988 27.7509 45.7676 28.0235 46.3841 28.5224L54.6444 35.2009C54.9128 35.4176 55.1293 35.6917 55.2781 36.003C55.4268 36.3143 55.504 36.655 55.504 37C55.504 37.345 55.4268 37.6857 55.2781 37.997C55.1293 38.3083 54.9128 38.5824 54.6444 38.7991L46.3841 45.4776C45.7676 45.9765 44.9988 46.2491 44.2057 46.25H25.4375C24.8242 46.25 24.236 46.0064 23.8023 45.5727C23.3686 45.139 23.125 44.5508 23.125 43.9375V30.0625ZM37 0C27.187 0 17.7759 3.8982 10.837 10.837C3.8982 17.7759 0 27.187 0 37C0 46.813 3.8982 56.2241 10.837 63.163C17.7759 70.1018 27.187 74 37 74C46.813 74 56.2241 70.1018 63.163 63.163C70.1018 56.2241 74 46.813 74 37C74 27.187 70.1018 17.7759 63.163 10.837C56.2241 3.8982 46.813 0 37 0ZM4.625 37C4.625 32.7485 5.4624 28.5385 7.0894 24.6106C8.7164 20.6827 11.1011 17.1137 14.1074 14.1074C17.1137 11.1011 20.6827 8.7164 24.6106 7.0894C28.5385 5.4624 32.7485 4.625 37 4.625C41.2515 4.625 45.4615 5.4624 49.3894 7.0894C53.3173 8.7164 56.8863 11.1011 59.8926 14.1074C62.8989 17.1137 65.2836 20.6827 66.9106 24.6106C68.5376 28.5385 69.375 32.7485 69.375 37C69.375 45.5864 65.9641 53.8211 59.8926 59.8926C53.8211 65.9641 45.5864 69.375 37 69.375C28.4136 69.375 20.1789 65.9641 14.1074 59.8926C8.03593 53.8211 4.625 45.5864 4.625 37Z" />
</svg>
