<svg width="76" height="68" viewBox="0 0 76 68"  xmlns="http://www.w3.org/2000/svg">
<g clip-path="url(#clip0_55_1278)">
<path d="M49 13L49 18L43 18L43 13L49 13Z" />
<path d="M49 23L49 43L43 43L43 23L49 23Z" />
<path d="M36 13L36 18L30 18L30 13L36 13Z" />
<path d="M23 13L23 18L18 18L18 13L23 13Z" />
<path d="M10.0714 5.18182L63.3214 5.18182L63.3214 12.9545L55.7143 12.9545L55.7143 44.0455L63.3214 44.0455L63.3214 51.8182L43.0357 51.8182L43.0357 57L63.3214 57C64.6665 57 65.9564 56.4541 66.9075 55.4823C67.8585 54.5105 68.3929 53.1925 68.3929 51.8182L68.3929 44.0455L70.9286 44.0455C72.2736 44.0455 73.5635 43.4995 74.5146 42.5277C75.4657 41.556 76 40.2379 76 38.8636L76 18.1364C76 16.7621 75.4657 15.444 74.5146 14.4723C73.5635 13.5005 72.2736 12.9545 70.9286 12.9545L68.3929 12.9545L68.3929 5.18182C68.3929 3.80751 67.8585 2.4895 66.9075 1.51772C65.9564 0.545939 64.6665 -4.95405e-07 63.3214 -5.54198e-07L10.0714 -2.88183e-06C8.7264 -2.94062e-06 7.43646 0.545937 6.48538 1.51772C5.53431 2.4895 5 3.80751 5 5.18182L5 28.5L10.0714 28.5L10.0714 5.18182ZM70.9286 18.1364L70.9286 38.8636L60.7857 38.8636L60.7857 18.1364L70.9286 18.1364Z" />
<path d="M33.4477 33.0666L27.2393 33.0666C29.9412 34.6578 32.1721 36.9189 33.7091 39.6243C35.2461 42.3297 36.0356 45.3847 35.9988 48.4844C35.9619 51.5841 35.1 54.6201 33.499 57.2893C31.898 59.9585 29.6141 62.1675 26.875 63.6959C24.136 65.2244 21.0377 66.0187 17.8894 65.9997C14.7411 65.9806 11.653 65.1488 8.93321 63.5874C6.21345 62.0259 3.9572 59.7894 2.38967 57.101C0.822146 54.4127 -0.00182445 51.3665 2.92882e-06 48.2666L5.1458 48.2666C5.14275 50.551 5.76717 52.7936 6.95294 54.7571C8.13871 56.7206 9.84168 58.3317 11.8815 59.42C13.9214 60.5083 16.2222 61.0332 18.5403 60.9391C20.8583 60.845 23.1074 60.1354 25.0494 58.8855C26.9913 57.6355 28.5538 55.8917 29.5714 53.8388C30.5889 51.7859 31.0237 49.5002 30.8297 47.2239C30.6357 44.9475 29.82 42.7652 28.4692 40.908C27.1183 39.0508 25.2825 37.5878 23.1561 36.6741L23.1561 43.1999L18.0103 43.1999L18.0103 28L33.4477 28L33.4477 33.0666Z" />
</g>
<defs>
<clipPath id="clip0_55_1278">
<rect width="76" height="68" fill="white"/>
</clipPath>
</defs>
</svg>
