<svg width="76" height="72" viewBox="0 0 76 72" fill="none" xmlns="http://www.w3.org/2000/svg">
<path fill-rule="evenodd" clip-rule="evenodd" d="M12.2857 2.14282H63.7143C66.4422 2.14282 69.0584 3.22649 70.9874 5.15544C72.9163 7.08438 74 9.70059 74 12.4285V59.5714C74 62.2993 72.9163 64.9155 70.9874 66.8445C69.0584 68.7734 66.4422 69.8571 63.7143 69.8571H12.2857C9.55777 69.8571 6.94156 68.7734 5.01262 66.8445C3.08367 64.9155 2 62.2993 2 59.5714V12.4285C2 9.70059 3.08367 7.08438 5.01262 5.15544C6.94156 3.22649 9.55777 2.14282 12.2857 2.14282Z" stroke="#009F90" stroke-width="4" stroke-linecap="round" stroke-linejoin="round"/>
<path fill-rule="evenodd" clip-rule="evenodd" d="M53.4286 15.4287H58.5714C59.9354 15.4287 61.2435 15.9705 62.208 16.935C63.1724 17.8995 63.7143 19.2076 63.7143 20.5716V25.7144C63.7143 27.0784 63.1724 28.3865 62.208 29.351C61.2435 30.3154 59.9354 30.8573 58.5714 30.8573H53.4286C52.0646 30.8573 50.7565 30.3154 49.792 29.351C48.8275 28.3865 48.2857 27.0784 48.2857 25.7144V20.5716C48.2857 19.2076 48.8275 17.8995 49.792 16.935C50.7565 15.9705 52.0646 15.4287 53.4286 15.4287V15.4287Z" stroke="#009F90" stroke-width="4" stroke-linecap="round" stroke-linejoin="round"/>
<path d="M12.2857 18.1428H38" stroke="#009F90" stroke-width="4" stroke-linecap="round" stroke-linejoin="round"/>
<path d="M12.2857 45H63" stroke="#009F90" stroke-width="4" stroke-linecap="round" stroke-linejoin="round"/>
<path d="M12.2857 56H63" stroke="#009F90" stroke-width="4" stroke-linecap="round" stroke-linejoin="round"/>
<path d="M12.2857 28.4287H38" stroke="#009F90" stroke-width="4" stroke-linecap="round" stroke-linejoin="round"/>
</svg>
