<svg width="76" height="72" viewBox="0 0 76 72" xmlns="http://www.w3.org/2000/svg">
<path d="M22 61C24.2091 61 26 59.2091 26 57C26 54.7909 24.2091 53 22 53C19.7909 53 18 54.7909 18 57C18 59.2091 19.7909 61 22 61Z"/>
<path d="M38.8235 72H5.17647C3.80401 71.9986 2.48815 71.4564 1.51767 70.4922C0.547188 69.528 0.00137041 68.2207 0 66.8571V5.14286C0.00137041 3.7793 0.547188 2.47199 1.51767 1.50781C2.48815 0.543634 3.80401 0.00136151 5.17647 0H38.8235V5.14286H5.17647V66.8571H38.8235V56.5714H44V66.8571C43.9986 68.2207 43.4528 69.528 42.4823 70.4922C41.5119 71.4564 40.196 71.9986 38.8235 72Z"/>
<path d="M75.4235 18.9346C75.6063 18.7523 75.7512 18.5356 75.8502 18.2972C75.9491 18.0587 76 17.8031 76 17.5449C76 17.2867 75.9491 17.0311 75.8502 16.7926C75.7512 16.5541 75.6063 16.3375 75.4235 16.1551L69.8449 10.5765C69.6625 10.3937 69.4459 10.2488 69.2074 10.1498C68.9689 10.0509 68.7133 10 68.4551 10C68.1969 10 67.9413 10.0509 67.7028 10.1498C67.4644 10.2488 67.2477 10.3937 67.0654 10.5765L58.2144 19.4274L50.5462 11.7592C49.0087 10.2217 46.5052 10.2217 44.9676 11.7592L41.2222 15.5046C39.6846 17.0422 39.6846 19.5457 41.2222 21.0833L48.8904 28.7515L40 37.6419V46H48.3581L57.2682 37.0899L64.9364 44.7581C66.8091 46.6308 69.3323 45.9409 70.5151 44.7581L74.2605 41.0127C75.7981 39.4751 75.7981 36.9716 74.2605 35.4341L66.5923 27.7659L75.4235 18.9346ZM43 18.2841L47.5 13.5L50.7039 16.5L47.9245 19.388L50.7039 22.1675L53.5 19L56.5 21.5L51.5 26.5L43 18.2841ZM67 32.5L64 35.4341L66.5923 38.0755L69.5 35L72.5 38.0755L67.5 43.0575L59.5 34.5L64.5 30L67 32.5ZM46.722 43.0575L43 43L42.9425 39.278L61.8863 20.3342L65.6658 24L64.6658 25.1137L46.722 43.0575ZM65 17L68.5 13.5L72.5 17.5L69 21L65 17Z"/>
</svg>
