<svg width="78" height="78" fill="none" xmlns="http://www.w3.org/2000/svg"><g clip-path="url(#clip0_103_1039)"><circle cx="39" cy="11" r="9" stroke="#009F90" stroke-width="4"/><circle cx="67" cy="11" r="9" stroke="#009F90" stroke-width="4"/><circle cx="11" cy="67" r="9" stroke="#009F90" stroke-width="4"/><path d="M45.581 60.326V73.49H32.418V60.326h13.163zm4.582-4.581H27.837V78.07h22.326V55.745z" fill="#009F90"/><path d="M67 54c-.297 0-.592.01-.884.03V39.79H13.882a3.582 3.582 0 01-3.581-3.582V20.254H1.928V1.928h18.327v18.326h-8.374v17.954h52.234a3.582 3.582 0 013.582 3.582v12.228A13.223 13.223 0 0067 54zM4.51 2.51h-2v17.163h17.163V2.51H4.51zM76 67a9 9 0 11-18 0 9 9 0 0118 0z" stroke="#009F90" stroke-width="4"/></g><defs><clipPath id="clip0_103_1039"><path fill="#fff" d="M0 0h78v78H0z"/></clipPath></defs></svg>