<svg width="82" height="82" fill="none" xmlns="http://www.w3.org/2000/svg"><path d="M74.641 3.171H7.359c-2.322 0-4.205 1.894-4.205 4.229v50.286c0 2.335 1.883 4.228 4.205 4.228h67.282c2.322 0 4.205-1.893 4.205-4.228V7.4c0-2.335-1.883-4.229-4.205-4.229zM19.974 78.829h42.052M28.385 61.914v16.914m25.23-16.914v16.914M28.385 45V28.086M41 45v-4.228M53.615 45v-8.457" stroke="#009F90" stroke-width="5" stroke-linecap="round" stroke-linejoin="round"/></svg>6H62.0256" stroke="#009F90" stroke-width="5" stroke-linecap="round" stroke-linejoin="round"/>
<path d="M28.3846 61.9141V78.8283" stroke="#009F90" stroke-width="5" stroke-linecap="round" stroke-linejoin="round"/>
<path d="M53.6154 61.9141V78.8283" stroke="#009F90" stroke-width="5" stroke-linecap="round" stroke-linejoin="round"/>
<path d="M28.3846 45.0002V28.0859" stroke="#009F90" stroke-width="5" stroke-linecap="round" stroke-linejoin="round"/>
<path d="M41 45.0001V40.7715" stroke="#009F90" stroke-width="5" stroke-linecap="round" stroke-linejoin="round"/>
<path d="M53.6154 45.0001V36.543" stroke="#009F90" stroke-width="5" stroke-linecap="round" stroke-linejoin="round"/>
</svg>
