<svg width="80" height="80" viewBox="0 0 80 80" fill="none" xmlns="http://www.w3.org/2000/svg">
<path d="M68.25 5.5C71.7 5.5 74.5 8.3 74.5 11.75V43.25C74.5 46.7 71.7 49.5 68.25 49.5H60V55H66.25C69.8967 55 73.3941 53.5513 75.9727 50.9727C78.5513 48.3941 80 44.8967 80 41.25V13.75C80 10.1033 78.5513 6.60591 75.9727 4.02728C73.3941 1.44866 69.8967 0 66.25 0H38.75C35.1033 0 31.6059 1.44866 29.0273 4.02728C26.4487 6.60591 25 10.1033 25 13.75V41.25C25 44.8967 26.4487 48.3941 29.0273 50.9727C31.6059 53.5513 35.1033 55 38.75 55H42.5V49.5H36.75C33.3 49.5 30.5 46.7 30.5 43.25V11.75C30.5 8.3 33.3 5.5 36.75 5.5H68.25ZM55 38.75C55 35.1033 53.5513 31.6059 50.9727 29.0273C48.3941 26.4487 44.8967 25 41.25 25H36.25V30.5H43.25C46.7 30.5 49.5 33.3 49.5 36.75V68.25C49.5 71.7 46.7 74.5 43.25 74.5H11.75C8.3 74.5 5.5 71.7 5.5 68.25V36.75C5.5 33.3 8.3 30.5 11.75 30.5H21.25V25H13.75C10.1033 25 6.60591 26.4487 4.02728 29.0273C1.44865 31.6059 0 35.1033 0 38.75V66.25C0 69.8967 1.44865 73.3941 4.02728 75.9727C6.60591 78.5513 10.1033 80 13.75 80H41.25C44.8967 80 48.3941 78.5513 50.9727 75.9727C53.5513 73.3941 55 69.8967 55 66.25V38.75Z" fill="#009F90"/>
</svg>
