<svg width="78" height="79" viewBox="0 0 78 79" fill="none" xmlns="http://www.w3.org/2000/svg">
<path d="M29.1508 23.7761C32.1453 22.0584 35.5442 21.163 39 21.1814C47.0837 21.1814 53.9016 25.8766 56.036 32.3015M21.2728 52.9532V36.5766C21.2728 34.7762 21.6273 33.0499 22.2832 31.4472L21.2728 52.9532ZM56.7273 45.8928V41.7095V45.8928Z" stroke="#009F90" stroke-width="5" stroke-linecap="round" stroke-linejoin="round"/>
<path d="M46.0909 56.4833V38.3134C46.0909 34.702 42.9178 31.772 39 31.772C35.0823 31.772 31.9091 34.702 31.9091 38.3134V41.1164M31.9091 56.4833V48.7981V56.4833Z" stroke="#009F90" stroke-width="5" stroke-linecap="round" stroke-linejoin="round"/>
<path d="M39 74.1341C19.4185 74.1341 3.54547 58.3295 3.54547 38.8322C3.54547 19.3349 19.4185 3.53027 39 3.53027C58.5816 3.53027 74.4546 19.3349 74.4546 38.8322C74.4546 42.5213 73.8873 46.0797 72.8307 49.4228" stroke="#009F90" stroke-width="5" stroke-linecap="round" stroke-linejoin="round"/>
<path d="M64.6762 67.9281L72.1961 75.4156M57.1563 75.4192L64.6797 67.9316L57.1563 75.4192ZM64.6797 67.9316L72.1996 60.4405L64.6797 67.9316ZM64.6797 67.9316L57.1527 60.437L64.6797 67.9316Z" stroke="#009F90" stroke-width="5" stroke-linecap="round" stroke-linejoin="round"/>
</svg>
