<svg width="78" height="78" viewBox="0 0 78 78" fill="none" xmlns="http://www.w3.org/2000/svg">
<g clip-path="url(#clip0_103_1039)">
<circle cx="39" cy="11" r="9" stroke="#009F90" stroke-width="4"/>
<circle cx="67" cy="11" r="9" stroke="#009F90" stroke-width="4"/>
<circle cx="11" cy="67" r="9" stroke="#009F90" stroke-width="4"/>
<path d="M45.5815 60.3261V73.4892H32.4185V60.3261H45.5815ZM50.163 55.7446H27.8369V78.0707H50.163V55.7446Z" fill="#009F90"/>
<path d="M67 53.9998C66.7029 53.9998 66.4081 54.0097 66.116 54.0294V41.7896V39.7896H64.116H13.8823C12.9324 39.7896 12.0214 39.4123 11.3497 38.7406C10.6781 38.069 10.3007 37.158 10.3007 36.2081V22.2543V20.2543H8.30073H1.92845V1.92822H20.2545V20.2543H13.8823H11.8823V22.2543V36.2081V38.2081H13.8823H64.116C65.0658 38.2081 65.9768 38.5855 66.6485 39.2571C67.3201 39.9288 67.6975 40.8398 67.6975 41.7896V54.0182C67.4665 54.006 67.234 53.9998 67 53.9998ZM4.50997 2.50974H2.50997V4.50974V17.6728V19.6728H4.50997H17.673H19.673V17.6728V4.50974V2.50974H17.673H4.50997ZM76 66.9998C76 71.9703 71.9706 75.9998 67 75.9998C62.0294 75.9998 58 71.9703 58 66.9998C58 62.0292 62.0294 57.9998 67 57.9998C71.9706 57.9998 76 62.0292 76 66.9998Z" stroke="#009F90" stroke-width="4"/>
</g>
<defs>
<clipPath id="clip0_103_1039">
<rect width="78" height="78" fill="white"/>
</clipPath>
</defs>
</svg>
