<svg width="80" height="80" viewBox="0 0 80 80" fill="none" xmlns="http://www.w3.org/2000/svg">
<g clip-path="url(#clip0_322_33)">
<path d="M80.0008 40C80.0008 43.7579 78.906 47.4313 76.8549 50.5559C74.8037 53.6804 71.8884 56.1157 68.4775 57.5537C65.0666 58.9918 61.3134 59.3681 57.6924 58.635C54.0714 57.9018 50.7453 56.0923 48.1348 53.4351C48.0968 53.3962 48.0599 53.3562 48.0241 53.3153L28.0408 30.348C26.17 28.4658 23.794 27.1889 21.2118 26.678C18.6297 26.1671 15.9567 26.445 13.5294 27.4768C11.1021 28.5086 9.02881 30.2481 7.57057 32.4765C6.11232 34.7049 5.33424 37.3226 5.33424 40C5.33424 42.6775 6.11232 45.2951 7.57057 47.5235C9.02881 49.7519 11.1021 51.4915 13.5294 52.5233C15.9567 53.5551 18.6297 53.833 21.2118 53.3221C23.794 52.8112 26.17 51.5343 28.0408 49.652L30.8804 46.3881C31.1125 46.1207 31.394 45.9024 31.709 45.7458C32.024 45.5892 32.3662 45.4974 32.716 45.4756C33.0659 45.4537 33.4166 45.5023 33.748 45.6185C34.0794 45.7348 34.3851 45.9164 34.6475 46.1529C34.9098 46.3895 35.1238 46.6764 35.2772 46.9973C35.4306 47.3181 35.5203 47.6666 35.5412 48.0227C35.5621 48.3789 35.5139 48.7357 35.3992 49.0729C35.2845 49.41 35.1056 49.7209 34.8728 49.9876L31.9774 53.3153C31.9419 53.3562 31.905 53.3962 31.8668 53.4351C29.2562 56.0923 25.9301 57.9018 22.3091 58.6349C18.6881 59.3681 14.9349 58.9918 11.524 57.5537C8.11313 56.1157 5.1978 53.6804 3.14668 50.5559C1.09556 47.4313 0.000778198 43.7579 0.000778198 40C0.000778198 36.2422 1.09556 32.5687 3.14668 29.4442C5.1978 26.3197 8.11313 23.8844 11.524 22.4463C14.9349 21.0082 18.6881 20.632 22.3091 21.3651C25.9301 22.0982 29.2562 23.9078 31.8668 26.565C31.9048 26.6039 31.9417 26.6438 31.9774 26.6848L51.9608 49.652C53.8316 51.5343 56.2076 52.8112 58.7897 53.3221C61.3719 53.833 64.0448 53.5551 66.4721 52.5233C68.8995 51.4915 70.9727 49.7519 72.431 47.5235C73.8892 45.2951 74.6673 42.6775 74.6673 40C74.6673 37.3226 73.8892 34.7049 72.431 32.4765C70.9727 30.2481 68.8995 28.5086 66.4721 27.4768C64.0448 26.445 61.3719 26.1671 58.7897 26.678C56.2076 27.1889 53.8316 28.4658 51.9608 30.348L49.1211 33.6119C48.6518 34.1496 47.9921 34.4756 47.2868 34.5186C46.5815 34.5615 45.8883 34.3178 45.3594 33.8409C44.8306 33.3641 44.5092 32.6931 44.466 31.9753C44.4227 31.2575 44.6611 30.5515 45.1288 30.0125L48.0241 26.6848C48.0597 26.6438 48.0965 26.6039 48.1348 26.565C50.7453 23.9078 54.0714 22.0982 57.6924 21.3651C61.3134 20.632 65.0666 21.0082 68.4775 22.4463C71.8884 23.8844 74.8037 26.3196 76.8549 29.4442C78.906 32.5687 80.0008 36.2422 80.0008 40Z" fill="#009F90"/>
</g>
<g clip-path="url(#clip1_322_33)">
<path d="M29.4448 76.8541C32.5693 78.9052 36.2427 80 40.0006 80C43.7584 80 47.4319 78.9052 50.5564 76.8541C53.681 74.803 56.1163 71.8876 57.5543 68.4767L52.5238 66.4714C51.492 68.8987 49.7525 70.9719 47.5241 72.4302C45.2957 73.8884 42.6781 74.6665 40.0006 74.6665C37.3231 74.6665 34.7055 73.8884 32.4771 72.4302C30.2487 70.9719 28.5092 68.8987 27.4774 66.4714L22.4469 68.4767C23.8849 71.8876 26.3202 74.803 29.4448 76.8541Z" fill="#009F90"/>
<path d="M47.5241 7.56979C49.7525 9.02804 51.492 11.1013 52.5238 13.5286L57.5543 11.5232C56.1162 8.11235 53.681 5.19702 50.5564 3.1459C47.4319 1.09478 43.7584 -6.03037e-07 40.0006 -7.67298e-07C36.2428 -9.31558e-07 32.5693 1.09478 29.4448 3.1459C26.3202 5.19702 23.885 8.11235 22.4469 11.5232L27.4774 13.5286C28.5092 11.1013 30.2487 9.02803 32.4771 7.56979C34.7055 6.11154 37.3231 5.33346 40.0006 5.33346C42.6781 5.33346 45.2957 6.11154 47.5241 7.56979Z" fill="#009F90"/>
</g>
<defs>
<clipPath id="clip0_322_33">
<rect width="80" height="38" fill="white" transform="translate(0.000732422 21)"/>
</clipPath>
<clipPath id="clip1_322_33">
<rect width="80" height="38" fill="white" transform="translate(59.0006) rotate(90)"/>
</clipPath>
</defs>
</svg>
