<svg width="82" height="82" viewBox="0 0 82 82" fill="none" xmlns="http://www.w3.org/2000/svg">
<path d="M30.9339 22.724C30.9127 19.1994 32.5484 16.543 35.8514 14.5843C34.004 12.0003 31.2092 10.579 27.525 10.3051C24.0368 10.0364 20.2203 12.2897 18.8229 12.2897C17.3461 12.2897 13.969 10.3982 11.3117 10.3982C5.8279 10.4808 0 14.667 0 23.184C0 25.7008 0.471101 28.3003 1.4133 30.9774C2.6731 34.502 7.21473 43.1379 11.9522 42.9983C14.4295 42.9415 16.1815 41.2825 19.4051 41.2825C22.5335 41.2825 24.1532 42.9983 26.9163 42.9983C31.6961 42.9311 35.8037 35.0808 37 31.5459C30.5898 28.5949 30.9339 22.9049 30.9339 22.724ZM30.3728 36.5227C29.6159 37.5512 28.8536 38.3626 28.1549 38.8845C27.5991 39.298 27.1704 39.4737 26.8846 39.484C26.4082 39.4789 25.9476 39.3652 25.0478 39.0293C24.9843 39.0034 24.9155 38.9776 24.8255 38.9466L24.5926 38.8587C23.6715 38.5124 23.121 38.3264 22.417 38.1455C21.4325 37.8974 20.4532 37.7631 19.4051 37.7631C18.3359 37.7631 17.3302 37.8923 16.3298 38.1352C15.594 38.3161 14.9747 38.5176 14.0695 38.8484C14.0325 38.8639 13.6408 39.0086 13.5296 39.0499C13.3443 39.1171 13.2014 39.1688 13.0691 39.2153C12.5186 39.4014 12.1692 39.4789 11.8569 39.484C11.8199 39.484 11.7881 39.4789 11.7617 39.4737C11.7034 39.4634 11.6293 39.4427 11.5446 39.4065C11.3064 39.3135 11.0206 39.143 10.6977 38.9001C9.95665 38.3367 9.14149 37.453 8.31044 36.3212C6.85479 34.3263 5.47854 31.6803 4.81688 29.8249C4.00172 27.5096 3.59943 25.2925 3.59943 23.1788C3.59943 20.0676 4.54163 17.7006 6.16137 16.0934C7.5535 14.7187 9.42733 13.9486 11.3382 13.9073C11.6505 13.9124 12.1057 13.9848 12.6827 14.1398C13.1379 14.2587 13.6355 14.4189 14.3077 14.6515C14.5089 14.7238 15.2023 14.9667 15.287 14.9977C15.6946 15.1424 16.0016 15.2458 16.3033 15.3388C17.2667 15.6386 18.013 15.804 18.8229 15.804C19.6433 15.804 20.3474 15.6334 21.3478 15.2975C21.7236 15.1734 23.0893 14.6773 23.3328 14.5946C24.6878 14.1243 25.6883 13.8711 26.5511 13.8091C26.8051 13.7884 27.0328 13.7884 27.2498 13.8039C28.4514 13.8969 29.4783 14.1295 30.3516 14.5171C28.3614 16.76 27.3345 19.5043 27.3398 22.7033C27.3239 23.463 27.3874 24.3416 27.6097 25.3804C27.9485 26.9566 28.5943 28.5174 29.6159 29.98C30.394 31.0911 31.3574 32.0937 32.5113 32.9671C31.9026 34.1919 31.1562 35.4581 30.3728 36.5227ZM25.3707 6.96139C28.0544 3.85021 27.8109 1.01811 27.7315 0C25.3601 0.13437 22.6182 1.57626 21.0567 3.34891C19.3363 5.25076 18.3253 7.60223 18.5423 10.2534C21.1043 10.4447 23.4439 9.15782 25.3707 6.96139Z" fill="#009F90"/>
<path d="M45.3556 51.1859L45.3576 51.1859C45.6344 51.1855 45.9085 51.2395 46.1641 51.3447C46.4197 51.45 46.6517 51.6043 46.8469 51.7988C47.0422 51.9932 47.1968 52.2239 47.3021 52.4775C47.4074 52.7311 47.4615 53.0028 47.4613 53.2771V53.278V65.1246C47.4613 65.6788 47.2404 66.2112 46.846 66.6044C46.4514 66.9976 45.9154 67.2193 45.3556 67.2193C44.7959 67.2193 44.2599 66.9976 43.8653 66.6044C43.4709 66.2112 43.25 65.6788 43.25 65.1246V53.278C43.25 52.1266 44.1866 51.1859 45.3556 51.1859ZM66.5748 40.3438L67.3203 40.6407L68.0587 41.0612C70.8212 42.6341 72.2139 46.1575 72.4432 49.8271H51.5548C51.7861 46.1563 53.179 42.6326 55.9401 41.0645L56.7169 40.6233L57.4252 40.3411C58.8235 39.7841 60.3668 39.4701 62 39.4701C63.6319 39.4701 65.1753 39.7862 66.5748 40.3438ZM65.7824 47.3679L65.8296 47.3715H65.877C66.4479 47.3715 66.9963 47.1454 67.4013 46.7418C67.8064 46.338 68.0347 45.7894 68.0347 45.2166C68.0347 44.6438 67.8064 44.0953 67.4013 43.6915C66.9963 43.2878 66.4479 43.0618 65.877 43.0618H65.8296L65.7824 43.0654C65.2406 43.1065 64.7335 43.3501 64.3629 43.7486C63.9922 44.1473 63.7856 44.6715 63.7856 45.2166C63.7856 45.7617 63.9922 46.286 64.3629 46.6847C64.7335 47.0832 65.2406 47.3268 65.7824 47.3679ZM56.5933 46.7304L57.4821 45.8514L56.5933 46.7304C56.7926 46.9318 57.0294 47.092 57.2903 47.2019C57.5512 47.3118 57.8311 47.3694 58.1141 47.3714C58.6854 47.3755 59.2357 47.1533 59.6438 46.7524C60.0521 46.3512 60.2845 45.8041 60.2887 45.2309C60.2928 44.6578 60.0683 44.1073 59.6659 43.7003C59.2636 43.2935 58.7165 43.0633 58.1452 43.0592C57.5739 43.0551 57.0235 43.2773 56.6154 43.6783C56.2071 44.0794 55.9747 44.6266 55.9706 45.1997C55.9664 45.7729 56.1909 46.3234 56.5933 46.7304ZM55.1377 72.3763V71.1263H53.8877H52.3503C52.0939 71.1263 51.9723 71.0756 51.9213 71.0468C51.875 71.0207 51.8229 70.9773 51.765 70.8729C51.6199 70.611 51.5201 70.1177 51.5201 69.314V54.0175H72.4747V69.314C72.4747 70.1184 72.3743 70.6116 72.2292 70.8731C72.1712 70.9775 72.1191 71.0208 72.0728 71.047C72.0217 71.0758 71.9003 71.1263 71.6445 71.1263H70.107H68.857V72.3763V78.6553C68.857 79.8074 67.9224 80.7474 66.7462 80.7474C65.583 80.7474 64.6458 79.81 64.6458 78.6553V72.3763V71.1263H63.3958H60.599H59.349V72.3763V78.6553C59.349 79.2095 59.1281 79.7419 58.7337 80.135C58.3391 80.5283 57.8031 80.75 57.2433 80.75C56.6836 80.75 56.1476 80.5283 55.753 80.135C55.3586 79.7419 55.1377 79.2095 55.1377 78.6553V72.3763ZM76.5387 53.278C76.5387 52.1266 77.4753 51.1859 78.6444 51.1859C79.8134 51.1859 80.75 52.1266 80.75 53.278V65.1246C80.75 65.6788 80.5291 66.2112 80.1347 66.6044C79.7401 66.9976 79.2041 67.2193 78.6444 67.2193C78.0846 67.2193 77.5486 66.9976 77.154 66.6044C76.7596 66.2112 76.5387 65.6788 76.5387 65.1246V53.278Z" stroke="#009F90" stroke-width="2.5"/>
<path d="M59.0607 25.0607C59.6464 24.4749 59.6464 23.5251 59.0607 22.9393C58.4749 22.3536 57.5251 22.3536 56.9393 22.9393L59.0607 25.0607ZM22.9393 56.9393C22.3536 57.5251 22.3536 58.4749 22.9393 59.0607C23.5251 59.6464 24.4749 59.6464 25.0607 59.0607L22.9393 56.9393ZM56.9393 22.9393L22.9393 56.9393L25.0607 59.0607L59.0607 25.0607L56.9393 22.9393Z" fill="#009F90"/>
</svg>
