<svg width="69" height="76" viewBox="0 0 69 76" fill="none" xmlns="http://www.w3.org/2000/svg">
<path d="M27.2778 9.22222L34.5 2M20.0556 53.9444L48.9444 25.0556M34.5 74L41.7222 66.7778M50.75 66.7778C53.1443 66.7778 55.4406 65.8266 57.1336 64.1336C58.8266 62.4406 59.7778 60.1443 59.7778 57.75C59.7778 55.3557 58.8266 53.0594 57.1336 51.3664C55.4406 49.6734 53.1443 48.7222 50.75 48.7222C48.3557 48.7222 46.0594 49.6734 44.3664 51.3664C42.6734 53.0594 41.7222 55.3557 41.7222 57.75C41.7222 60.1443 42.6734 62.4406 44.3664 64.1336C46.0594 65.8266 48.3557 66.7778 50.75 66.7778ZM18.25 27.2778C20.6443 27.2778 22.9406 26.3266 24.6336 24.6336C26.3266 22.9406 27.2778 20.6443 27.2778 18.25C27.2778 15.8557 26.3266 13.5594 24.6336 11.8664C22.9406 10.1734 20.6443 9.22222 18.25 9.22222C15.8557 9.22222 13.5594 10.1734 11.8664 11.8664C10.1734 13.5594 9.22222 15.8557 9.22222 18.25C9.22222 20.6443 10.1734 22.9406 11.8664 24.6336C13.5594 26.3266 15.8557 27.2778 18.25 27.2778ZM11.0278 72C13.4221 72 15.7183 71.0489 17.4114 69.3558C19.1044 67.6628 20.0556 65.3665 20.0556 62.9722C20.0556 60.5779 19.1044 58.2817 17.4114 56.5886C15.7183 54.8956 13.4221 53.9444 11.0278 53.9444C8.63346 53.9444 6.33721 54.8956 4.64418 56.5886C2.95114 58.2817 2 60.5779 2 62.9722C2 65.3665 2.95114 67.6628 4.64418 69.3558C6.33721 71.0489 8.63346 72 11.0278 72ZM57.9722 25.0556C60.3665 25.0556 62.6628 24.1044 64.3558 22.4114C66.0489 20.7183 67 18.4221 67 16.0278C67 13.6335 66.0489 11.3372 64.3558 9.64418C62.6628 7.95114 60.3665 7 57.9722 7C55.5779 7 53.2817 7.95114 51.5886 9.64418C49.8956 11.3372 48.9444 13.6335 48.9444 16.0278C48.9444 18.4221 49.8956 20.7183 51.5886 22.4114C53.2817 24.1044 55.5779 25.0556 57.9722 25.0556Z" stroke="#009F90" stroke-width="3" stroke-linecap="round" stroke-linejoin="round"/>
</svg>
