<svg width="78" height="75" viewBox="0 0 78 75" fill="none" xmlns="http://www.w3.org/2000/svg">
<path d="M46 64H67V68H46V64Z" fill="#009F90"/>
<path d="M46 54H78V58H46V54Z" fill="#009F90"/>
<path d="M46 43H78V47H46V43Z" fill="#009F90"/>
<path d="M52.5801 24.6884L40.3448 0L28.1096 24.6884L0.753113 28.6473L20.549 47.8661L15.8744 75L34.9655 65.0062V59.9527L21.0208 68.2071L24.8503 48.7714L25.329 45.9937L23.3037 44.0304L9.31325 31.3866L27.8842 28.9893L30.6815 28.5848L31.9348 26.0589L40.3448 9.10446L48.7548 26.0589L50.0082 28.5848L52.8055 28.9893L71.8542 31.8955L72.6207 27.5893L52.5801 24.6884Z" fill="#009F90"/>
</svg>
