<svg width="40" height="40" viewBox="0 0 40 40" fill="none" xmlns="http://www.w3.org/2000/svg">
<path d="M19.9999 11.6666C20.663 11.6666 21.2989 11.4032 21.7677 10.9344C22.2365 10.4656 22.4999 9.82968 22.4999 9.16664C22.4999 8.5036 22.2365 7.86771 21.7677 7.39887C21.2989 6.93003 20.663 6.66664 19.9999 6.66664C19.3369 6.66664 18.701 6.93003 18.2322 7.39887C17.7633 7.86771 17.4999 8.5036 17.4999 9.16664C17.4999 9.82968 17.7633 10.4656 18.2322 10.9344C18.701 11.4032 19.3369 11.6666 19.9999 11.6666ZM21.4833 0.491636C21.0536 0.174902 20.5338 0.00402832 19.9999 0.00402832C19.4661 0.00402832 18.9463 0.174902 18.5166 0.491636L2.68327 12.1666C0.743274 13.5983 1.75494 16.6783 4.16661 16.6783H4.99994V28.7483C4.01255 29.1597 3.16908 29.8543 2.57587 30.7444C1.98266 31.6345 1.66628 32.6803 1.66661 33.75V36.25C1.66661 36.94 2.22661 37.5 2.91661 37.5H37.0833C37.4148 37.5 37.7327 37.3683 37.9672 37.1339C38.2016 36.8994 38.3333 36.5815 38.3333 36.25V33.75C38.3333 32.6806 38.0167 31.6351 37.4235 30.7453C36.8304 29.8556 35.9871 29.1613 34.9999 28.75V16.6783H35.8316C38.2449 16.6783 39.2566 13.5983 37.3149 12.1666L21.4833 0.491636ZM7.49994 27.3333V17.6783H10.6666V27.3333H7.49994ZM32.4999 17.6783V27.3333H29.3333V17.6783H32.4999ZM25.8333 17.6783V27.3333H22.2499V17.6783H25.8333ZM17.7499 17.6783V27.3333H14.1666V17.6783H17.7499ZM5.16661 14.1783L19.9999 3.5033L34.8316 14.1783H5.16661ZM4.16661 33.75C4.16661 32.14 5.47327 30.8333 7.08327 30.8333H32.9166C34.5266 30.8333 35.8333 32.14 35.8333 33.75V34H4.16661V33.75Z" fill="#009F90"/>
</svg>
