<svg width="40" height="38" fill="none" xmlns="http://www.w3.org/2000/svg"><g clip-path="url(#clip0_51_613)" fill="#009F90"><path d="M18.889 21.235v-3.912c0-.444.175-.87.488-1.185a1.662 1.662 0 012.357 0c.313.314.488.74.488 1.185v3.912h3.89c.441 0 .865.177 1.178.491a1.681 1.681 0 010 2.371 1.662 1.662 0 01-1.179.491h-3.889V28.5c0 .445-.175.871-.488 1.185a1.662 1.662 0 01-2.357 0 1.681 1.681 0 01-.488-1.185v-3.912H15a1.66 1.66 0 01-1.178-.49 1.681 1.681 0 010-2.372 1.662 1.662 0 011.178-.49h3.889z"/><path d="M12.778 0h14.444a1.664 1.664 0 011.651 1.448l.016.228v7.265h3.889c1.915 0 3.752.766 5.107 2.128A7.287 7.287 0 0140 16.206v14.53c0 1.926-.76 3.774-2.115 5.136A7.201 7.201 0 0132.778 38H7.222a7.2 7.2 0 01-5.107-2.128A7.286 7.286 0 010 30.735v-14.53c0-1.926.76-3.774 2.115-5.136a7.2 7.2 0 015.107-2.128h3.89V1.676a1.678 1.678 0 011.44-1.661L12.777 0zm19 13.294H8.222c-1.031 0-2.02.412-2.75 1.146a3.924 3.924 0 00-1.139 2.766v12.53c0 2.159 1.743 3.911 3.89 3.911h23.555c1.031 0 2.02-.412 2.75-1.146a3.923 3.923 0 001.139-2.766v-12.53c0-1.037-.41-2.032-1.14-2.765a3.877 3.877 0 00-2.75-1.146zm-6.222-9.941H14.444V8.94h11.112V3.353z"/></g><defs><clipPath id="clip0_51_613"><path fill="#fff" d="M0 0h40v38H0z"/></clipPath></defs></svg>