<svg width="40" height="40" fill="none" xmlns="http://www.w3.org/2000/svg"><path d="M2.498 5h1.249l6.322 23.281c.104.469.41.873.917 1.211.507.339 1.008.508 1.502.508H31.22c.599 0 1.119-.163 1.561-.488.442-.326.729-.736.859-1.23l6.166-14.688c.26-.964.22-1.804-.118-2.52-.338-.716-.871-1.074-1.6-1.074h-.741c-.494 0-.956.176-1.385.527-.43.352-.71.775-.84 1.27L29.973 25H13.736L7.064 1.758a2.443 2.443 0 00-.78-1.25C5.894.169 5.464 0 4.996 0H2.498A2.38 2.38 0 00.723.742 2.46 2.46 0 000 2.52c0 .69.24 1.276.722 1.757.48.482 1.073.723 1.775.723zm12.469 10c.689 0 1.28-.24 1.775-.723a2.362 2.362 0 00.742-1.757 2.43 2.43 0 00-.742-1.778A2.421 2.421 0 0014.966 10c-.689 0-1.274.247-1.756.742a2.46 2.46 0 00-.722 1.777c0 .69.241 1.277.722 1.758a2.39 2.39 0 001.756.723zm.019 5.02c0 .69.24 1.276.722 1.757a2.39 2.39 0 001.756.723c.69 0 1.281-.24 1.776-.723a2.362 2.362 0 00.741-1.758c0-.69-.247-1.282-.741-1.777a2.421 2.421 0 00-1.776-.742c-.69 0-1.275.247-1.756.742a2.459 2.459 0 00-.722 1.777zM19.962 7.5c.689 0 1.28-.24 1.775-.723a2.362 2.362 0 00.742-1.757c0-.69-.247-1.283-.742-1.778a2.421 2.421 0 00-1.775-.742c-.69 0-1.275.247-1.756.742a2.46 2.46 0 00-.722 1.778c0 .69.24 1.276.721 1.757a2.39 2.39 0 001.757.723zm.02 5.02c0 .69.24 1.276.721 1.757A2.389 2.389 0 0022.46 15c.69 0 1.282-.24 1.776-.723a2.362 2.362 0 00.741-1.757c0-.69-.247-1.283-.741-1.778A2.421 2.421 0 0022.459 10c-.69 0-1.275.247-1.756.742a2.46 2.46 0 00-.722 1.777zm2.497 7.5c0 .69.24 1.276.722 1.757a2.39 2.39 0 001.756.723c.69 0 1.281-.24 1.775-.723a2.362 2.362 0 00.742-1.758c0-.69-.247-1.282-.742-1.777a2.421 2.421 0 00-1.775-.742c-.69 0-1.275.247-1.756.742a2.459 2.459 0 00-.722 1.777zM27.454 7.5c.69 0 1.282-.24 1.776-.723a2.362 2.362 0 00.741-1.757c0-.69-.247-1.283-.741-1.778a2.421 2.421 0 00-1.776-.742c-.69 0-1.274.247-1.756.742a2.46 2.46 0 00-.722 1.778c0 .69.24 1.276.722 1.757a2.39 2.39 0 001.756.723zm.02 5.02c0 .69.24 1.276.722 1.757a2.389 2.389 0 001.756.723c.69 0 1.281-.24 1.775-.723a2.362 2.362 0 00.742-1.757c0-.69-.247-1.283-.742-1.778A2.421 2.421 0 0029.953 10c-.69 0-1.275.247-1.756.742a2.46 2.46 0 00-.722 1.777zm1.053 19.98c-1.04 0-1.925.365-2.653 1.094-.729.729-1.093 1.614-1.093 2.656s.364 1.927 1.093 2.656c.728.73 1.613 1.094 2.654 1.094 1.04 0 1.925-.365 2.653-1.094.729-.729 1.093-1.614 1.093-2.656s-.364-1.927-1.093-2.656c-.728-.73-1.613-1.094-2.654-1.094zm-12.468 0c-1.028 0-1.912.365-2.654 1.094a3.586 3.586 0 00-1.112 2.656c0 1.042.371 1.927 1.113 2.656.741.73 1.625 1.094 2.653 1.094a3.588 3.588 0 002.634-1.094c.729-.729 1.093-1.614 1.093-2.656s-.364-1.927-1.093-2.656A3.588 3.588 0 0016.06 32.5z" fill="#009F90"/></svg> 17.7474 23.2006 18.2422C22.7193 18.737 22.4787 19.3294 22.4787 20.0195ZM27.4543 7.5C28.1437 7.5 28.7356 7.25911 29.2299 6.77734C29.7242 6.29557 29.9714 5.70964 29.9714 5.01953C29.9714 4.32943 29.7242 3.73698 29.2299 3.24219C28.7356 2.7474 28.1437 2.5 27.4543 2.5C26.7649 2.5 26.1795 2.7474 25.6982 3.24219C25.2169 3.73698 24.9762 4.32943 24.9762 5.01953C24.9762 5.70964 25.2169 6.29557 25.6982 6.77734C26.1795 7.25911 26.7649 7.5 27.4543 7.5ZM27.4738 12.5195C27.4738 13.2096 27.7145 13.7956 28.1958 14.2773C28.6771 14.7591 29.2624 15 29.9519 15C30.6413 15 31.2332 14.7591 31.7275 14.2773C32.2218 13.7956 32.4689 13.2096 32.4689 12.5195C32.4689 11.8294 32.2218 11.237 31.7275 10.7422C31.2332 10.2474 30.6413 10 29.9519 10C29.2624 10 28.6771 10.2474 28.1958 10.7422C27.7145 11.237 27.4738 11.8294 27.4738 12.5195ZM28.5275 32.5C27.4868 32.5 26.6023 32.8646 25.8738 33.5938C25.1453 34.3229 24.7811 35.2083 24.7811 36.25C24.7811 37.2917 25.1453 38.1771 25.8738 38.9062C26.6023 39.6354 27.4868 40 28.5275 40C29.5681 40 30.4527 39.6354 31.1811 38.9062C31.9096 38.1771 32.2738 37.2917 32.2738 36.25C32.2738 35.2083 31.9096 34.3229 31.1811 33.5938C30.4527 32.8646 29.5681 32.5 28.5275 32.5ZM16.0592 32.5C15.0315 32.5 14.147 32.8646 13.4055 33.5938C12.664 34.3229 12.2933 35.2083 12.2933 36.25C12.2933 37.2917 12.664 38.1771 13.4055 38.9062C14.147 39.6354 15.0315 40 16.0592 40C17.0868 40 17.9649 39.6354 18.6933 38.9062C19.4218 38.1771 19.786 37.2917 19.786 36.25C19.786 35.2083 19.4218 34.3229 18.6933 33.5938C17.9649 32.8646 17.0868 32.5 16.0592 32.5Z" fill="#009F90"/>
</svg>
