<svg width="45" height="37" viewBox="0 0 45 37" fill="none" xmlns="http://www.w3.org/2000/svg">
<path d="M17.9297 18.9219L13.8516 14.7734C13.2891 14.2578 13.2891 13.7422 13.8516 13.2266L17.9297 9.07812C18.4453 8.5625 18.9844 8.5625 19.5469 9.07812L20.3203 9.92188C20.8359 10.4375 20.8359 10.9531 20.3203 11.4688L17.7891 14L20.3203 16.5312C20.8359 17.0469 20.8359 17.5625 20.3203 18.0781L19.5469 18.9219C18.9844 19.4375 18.4453 19.4375 17.9297 18.9219ZM24.6797 18.0781C24.1641 17.5625 24.1641 17.0469 24.6797 16.5312L27.2109 14L24.6797 11.4688C24.1641 10.9531 24.1641 10.4375 24.6797 9.92188L25.4531 9.07812C26.0156 8.5625 26.5547 8.5625 27.0703 9.07812L31.1484 13.2266C31.7109 13.7422 31.7109 14.2578 31.1484 14.7734L27.0703 18.9219C26.5547 19.4375 26.0156 19.4375 25.4531 18.9219L24.6797 18.0781ZM43.875 29.75C44.2031 29.75 44.4609 29.8672 44.6484 30.1016C44.8828 30.2891 45 30.5469 45 30.875V32C45 33.2188 44.5547 34.2734 43.6641 35.1641C42.7734 36.0547 41.7188 36.5 40.5 36.5H4.5C3.28125 36.5 2.22656 36.0547 1.33594 35.1641C0.445312 34.2734 0 33.2188 0 32V30.875C0 30.5469 0.09375 30.2891 0.28125 30.1016C0.515625 29.8672 0.796875 29.75 1.125 29.75H17.9297C17.9297 30.2656 18.1641 30.7812 18.6328 31.2969C19.1016 31.7656 19.6406 32 20.25 32H24.5391C25.1953 32 25.7344 31.8125 26.1562 31.4375C26.5781 31.0156 26.8125 30.4531 26.8594 29.75H43.875ZM40.5 3.875V27.5H4.5V3.875C4.5 2.9375 4.82812 2.14062 5.48438 1.48438C6.14062 0.828125 6.9375 0.5 7.875 0.5H37.125C38.0625 0.5 38.8594 0.828125 39.5156 1.48438C40.1719 2.14062 40.5 2.9375 40.5 3.875ZM36 23V5H9V23H36Z" fill="#009F90"/>
</svg>
