<svg width="40" height="40" viewBox="0 0 40 40" fill="none" xmlns="http://www.w3.org/2000/svg">
<path d="M29.868 0.0100002L29.5 0H6.5L6.132 0.0100002C4.47439 0.103997 2.91558 0.828734 1.77534 2.03554C0.635108 3.24234 -0.000108693 4.83972 1.39504e-08 6.5V29.5L0.0100002 29.868C0.103997 31.5256 0.828734 33.0844 2.03554 34.2247C3.24234 35.3649 4.83972 36.0001 6.5 36H18.044C17.257 34.7719 16.6836 33.4195 16.348 32H6.5L6.244 31.988C5.62834 31.9246 5.05807 31.6351 4.64355 31.1755C4.22902 30.7159 3.99972 30.1189 4 29.5L4.002 10H32V16.348C33.442 16.688 34.79 17.268 36.002 18.044V6.5L35.992 6.132C35.9012 4.53778 35.2267 3.03277 34.0972 1.90402C32.9677 0.775277 31.4623 0.101784 29.868 0.0120001V0.0100002ZM15.988 14.296C15.9387 13.9366 15.7607 13.6072 15.4871 13.3689C15.2135 13.1306 14.8628 12.9995 14.5 13H7.5L7.296 13.014C6.93689 13.0633 6.60778 13.241 6.36953 13.5141C6.13129 13.7873 6.00002 14.1375 6 14.5V28.5L6.014 28.704C6.0633 29.0631 6.24096 29.3922 6.51414 29.6305C6.78732 29.8687 7.13752 30 7.5 30H14.5L14.704 29.986C15.0631 29.9367 15.3922 29.759 15.6305 29.4859C15.8687 29.2127 16 28.8625 16 28.5V14.5L15.986 14.296H15.988ZM9 16H13V27H9V16ZM30 14.5C30 14.1022 29.842 13.7206 29.5607 13.4393C29.2794 13.158 28.8978 13 28.5 13H19.508L19.306 13.014C18.9297 13.0658 18.587 13.2584 18.3472 13.553C18.1073 13.8476 17.9882 14.2222 18.0139 14.6012C18.0395 14.9803 18.208 15.3354 18.4853 15.595C18.7626 15.8547 19.1281 15.9994 19.508 16H28.5L28.704 15.986C29.0631 15.9367 29.3922 15.759 29.6305 15.4859C29.8687 15.2127 30 14.8625 30 14.5ZM22.558 21.95C22.7075 22.4672 22.7511 23.0093 22.6862 23.5438C22.6212 24.0782 22.449 24.5941 22.1799 25.0604C21.9108 25.5267 21.5503 25.9339 21.1201 26.2576C20.6898 26.5812 20.1986 26.8147 19.676 26.944L18.506 27.232C18.3195 28.4298 18.3242 29.6497 18.52 30.846L19.6 31.106C20.1272 31.233 20.623 31.4658 21.0574 31.7904C21.4918 32.1149 21.8556 32.5244 22.1269 32.9939C22.3981 33.4634 22.5711 33.9832 22.6352 34.5216C22.6993 35.06 22.6533 35.6059 22.5 36.126L22.126 37.39C23.004 38.162 24.006 38.788 25.094 39.232L26.08 38.196C26.4537 37.8027 26.9035 37.4894 27.402 37.2754C27.9006 37.0614 28.4375 36.951 28.98 36.951C29.5225 36.951 30.0594 37.0614 30.558 37.2754C31.0565 37.4894 31.5063 37.8027 31.88 38.196L32.876 39.246C33.9589 38.8057 34.9612 38.1886 35.842 37.42L35.446 36.048C35.2968 35.5309 35.2534 34.989 35.3185 34.4548C35.3836 33.9206 35.5559 33.405 35.825 32.9389C36.0941 32.4728 36.4545 32.0658 36.8845 31.7423C37.3146 31.4187 37.8056 31.1853 38.328 31.056L39.496 30.768C39.6828 29.5695 39.678 28.349 39.482 27.152L38.404 26.892C37.8768 26.765 37.381 26.5322 36.9466 26.2076C36.5122 25.8831 36.1484 25.4736 35.8771 25.0041C35.6059 24.5346 35.4329 24.0148 35.3688 23.4764C35.3047 22.938 35.3507 22.3921 35.504 21.872L35.878 20.612C34.9975 19.8358 33.9937 19.2119 32.908 18.766L31.922 19.804C31.5483 20.197 31.0987 20.51 30.6003 20.7238C30.1019 20.9377 29.5653 21.048 29.023 21.048C28.4807 21.048 27.9441 20.9377 27.4457 20.7238C26.9473 20.51 26.4977 20.197 26.124 19.804L25.126 18.754C24.04 19.194 23.04 19.814 22.162 20.578L22.558 21.95ZM29 32C27.4 32 26.1 30.656 26.1 29C26.1 27.342 27.4 26 29 26C30.602 26 31.9 27.342 31.9 29C31.9 30.656 30.602 32 29 32Z" fill="#009F90"/>
</svg>
