<svg width="29" height="32" fill="none" xmlns="http://www.w3.org/2000/svg"><path d="M3.904 17.418L6.79 16.1l-2.85-1.394c-.895-.438-1.484-.965-1.856-1.547-.37-.579-.584-1.305-.584-2.243 0-1.164.402-2.144 1.26-3.012.858-.867 1.819-1.267 2.955-1.267.878 0 1.61.253 2.255.754l2.42 1.883V5.78c0-1.18.396-2.164 1.224-3.029.817-.852 1.751-1.25 2.886-1.25 1.135 0 2.07.398 2.886 1.25.828.865 1.224 1.85 1.224 3.03V9.14l2.378-1.718c.753-.544 1.509-.786 2.297-.786 1.136 0 2.097.4 2.955 1.267.858.868 1.26 1.848 1.26 3.012 0 .938-.215 1.664-.584 2.243-.372.582-.96 1.109-1.856 1.547L22.21 16.1l2.886 1.318c.88.402 1.455.905 1.82 1.476.365.572.584 1.314.584 2.297 0 1.163-.4 2.116-1.243 2.942-.854.836-1.82 1.23-2.972 1.23-.915 0-1.668-.24-2.315-.692l-2.36-1.652v3.309c0 1.179-.395 2.136-1.208 2.958-.812.822-1.751 1.214-2.902 1.214-1.15 0-2.09-.392-2.902-1.214-.814-.822-1.208-1.78-1.208-2.958v-3.192l-2.317 1.506c-.756.491-1.532.72-2.358.72-1.152 0-2.118-.393-2.972-1.23-.843-.826-1.243-1.777-1.243-2.94 0-.983.22-1.725.584-2.297.365-.57.94-1.074 1.82-1.476zM14.5 8.774c-1.97 0-3.681.744-5.052 2.175-1.36 1.418-2.057 3.145-2.057 5.104 0 1.961.7 3.679 2.073 5.069 1.375 1.39 3.082 2.104 5.036 2.104 1.954 0 3.66-.714 5.035-2.104 1.375-1.39 2.075-3.108 2.075-5.069 0-1.959-.699-3.686-2.058-5.104-1.37-1.43-3.082-2.175-5.052-2.175z" stroke="#fff" stroke-width="3" opacity=".5"/></svg>