<svg width="29" height="33" fill="none" xmlns="http://www.w3.org/2000/svg"><path d="M22 18.675v-7.25 7.25zm0-7.25V10.7c0-4.101 0-6.152-1.255-7.426C19.489 2 17.469 2 13.429 2H10.57C6.53 2 4.51 2 3.254 3.274 2 4.548 2 6.599 2 10.7V31h20v-5.075s5 0 5-4.35v-5.8c0-4.35-5-4.35-5-4.35zM7 16V3m5 13V3m5 13V3" opacity=".5" stroke="#fff" stroke-width="3" stroke-linecap="round" stroke-linejoin="round"/></svg>oke-width="3" stroke-linecap="round" stroke-linejoin="round"/>
<path d="M7 16V3" stroke="white" stroke-width="3" stroke-linecap="round" stroke-linejoin="round"/>
<path d="M12 16V3" stroke="white" stroke-width="3" stroke-linecap="round" stroke-linejoin="round"/>
<path d="M17 16V3" stroke="white" stroke-width="3" stroke-linecap="round" stroke-linejoin="round"/>
</g>
</svg>
