<svg width="40" height="33" viewBox="0 0 40 33" fill="none" xmlns="http://www.w3.org/2000/svg">
<g opacity="0.5" clip-path="url(#clip0_103_5689)">
<path d="M39.7536 18.1667L32.6599 1.66667C32.4476 1.17179 32.0941 0.750003 31.6433 0.453699C31.1925 0.157394 30.6644 -0.000370348 30.1244 6.52834e-07H9.87442C9.33448 -0.000370348 8.80632 0.157394 8.35555 0.453699C7.90478 0.750003 7.55126 1.17179 7.33891 1.66667L0.245287 18.1667C0.0654525 18.585 -0.00744215 19.0412 0.0331388 19.4945C0.0737198 19.9477 0.226508 20.3839 0.477804 20.7638C0.7291 21.1437 1.07105 21.4555 1.47299 21.6713C1.87493 21.8871 2.3243 22 2.7808 22H17.6201V30.25H14.4822C14.1164 30.25 13.7655 30.3949 13.5069 30.6527C13.2482 30.9106 13.1029 31.2603 13.1029 31.625C13.1029 31.9897 13.2482 32.3394 13.5069 32.5973C13.7655 32.8551 14.1164 33 14.4822 33H25.5167C25.8825 33 26.2333 32.8551 26.492 32.5973C26.7507 32.3394 26.896 31.9897 26.896 31.625C26.896 31.2603 26.7507 30.9106 26.492 30.6527C26.2333 30.3949 25.8825 30.25 25.5167 30.25H22.3787V22H31.0339V27.5C31.0339 27.8647 31.1792 28.2144 31.4379 28.4723C31.6966 28.7301 32.0474 28.875 32.4132 28.875C32.779 28.875 33.1299 28.7301 33.3885 28.4723C33.6472 28.2144 33.7925 27.8647 33.7925 27.5V22H37.218C37.6745 22 38.1239 21.8871 38.5259 21.6713C38.9278 21.4555 39.2697 21.1437 39.521 20.7638C39.7723 20.3839 39.9251 19.9477 39.9657 19.4945C40.0063 19.0412 39.9334 18.585 39.7536 18.1667ZM3.7808 18.25L9.87408 3.75H30.1244L36.218 18.25H3.7808Z" fill="white"/>
</g>
<defs>
<clipPath id="clip0_103_5689">
<rect width="40" height="33" fill="white"/>
</clipPath>
</defs>
</svg>
