<svg width="23" height="32" fill="none" xmlns="http://www.w3.org/2000/svg"><g opacity=".5" clip-path="url(#clip0_107_5735)" fill="#fff"><path d="M10.35 5.714c0-.303.121-.594.337-.808.216-.214.508-.335.813-.335 1.525 0 2.95.746 3.977 1.763 1.023 1.02 1.773 2.436 1.773 3.952 0 .303-.121.594-.337.808a1.154 1.154 0 01-1.626 0 1.139 1.139 0 01-.337-.808c0-.77-.4-1.64-1.102-2.334-.699-.697-1.573-1.095-2.348-1.095a1.15 1.15 0 01-.813-.335 1.14 1.14 0 01-.337-.808z"/><path d="M12.65 22.761c2.337-.393 4.483-1.936 6.072-3.918 1.868-2.322 3.128-5.426 3.128-8.557C21.85 5.179 17.977 0 11.5 0 5.023 0 1.15 5.18 1.15 10.286c0 3.131 1.26 6.235 3.128 8.557 1.59 1.982 3.735 3.525 6.072 3.918v.096a4.56 4.56 0 001.347 3.233 4.615 4.615 0 003.253 1.339h3.45c.61 0 1.195.24 1.626.669.432.429.674 1.01.674 1.616v1.143c0 .303.121.594.337.808a1.154 1.154 0 001.626 0 1.14 1.14 0 00.337-.808v-1.143a4.557 4.557 0 00-1.347-3.232 4.615 4.615 0 00-3.253-1.34h-3.45c-.61 0-1.195-.24-1.626-.669a2.278 2.278 0 01-.674-1.616v-.096zM11.5 3.286c5.023 0 7.05 2.963 7.05 7 0 2.548-1.04 5.159-2.622 7.131-1.605 1.993-2.606 2.154-4.428 2.154-1.824 0-2.825-.16-4.428-2.154-1.58-1.972-2.622-4.583-2.622-7.131 0-4.037 2.027-7 7.05-7z"/></g><defs><clipPath id="clip0_107_5735"><path fill="#fff" d="M0 0h23v32H0z"/></clipPath></defs></svg> 31.8796 22.6632 31.6653C22.8789 31.4509 23 31.1602 23 30.8571V29.7143C23 28.5019 22.5154 27.3391 21.6527 26.4818C20.79 25.6245 19.62 25.1429 18.4 25.1429H14.95C14.34 25.1429 13.755 24.902 13.3237 24.4734C12.8923 24.0447 12.65 23.4634 12.65 22.8571V22.7611ZM11.5 3.28571C16.5232 3.28571 18.55 6.24914 18.55 10.2857C18.55 12.8343 17.5104 15.4446 15.928 17.4171C14.3226 19.4103 13.3216 19.5714 11.5 19.5714C9.67612 19.5714 8.67512 19.4103 7.07202 17.4171C5.49192 15.4446 4.45002 12.8343 4.45002 10.2857C4.45002 6.24914 6.47682 3.28571 11.5 3.28571Z" fill="white"/>
</g>
<defs>
<clipPath id="clip0_107_5735">
<rect width="23" height="32" fill="white"/>
</clipPath>
</defs>
</svg>
