<svg width="35" height="32" viewBox="0 0 35 32" fill="none" xmlns="http://www.w3.org/2000/svg">
<g opacity="0.5">
<path d="M13.5 0C6.0588 0 0 5.984 0 13.3333C0 20.6827 6.0588 26.6667 13.5 26.6667C20.9412 26.6667 27 20.6827 27 13.3333C27 5.984 20.9412 0 13.5 0ZM13.5 2.66667C16.2325 2.66321 18.8642 3.68581 20.8618 5.52728C22.8594 7.36876 24.0735 9.89137 24.2582 12.584C23.4527 12.0258 22.5295 11.6551 21.5581 11.5C20.9725 11.4039 20.3791 11.3619 19.7856 11.3747C18.9149 11.3867 18.0497 11.5127 17.2125 11.7493C16.8393 10.9032 16.1829 10.2095 15.3533 9.78471C14.5237 9.35987 13.5715 9.22969 12.6562 9.416C12.6455 9.40667 12.6252 9.42667 12.6144 9.416C11.7382 8.69333 10.8054 7.57333 10.3788 6.45867C10.094 5.71333 10.0305 5.02667 10.1669 4.45867C10.2992 3.90133 10.5894 3.37467 11.3481 2.87467C12.0568 2.73638 12.7776 2.66672 13.5 2.66667ZM7.425 4.54133C7.34592 5.50522 7.49043 6.47423 7.84755 7.37467C8.3718 8.7294 9.19232 9.95317 10.2506 10.9587C9.68375 11.7117 9.40283 12.6375 9.45687 13.5743C9.51091 14.5111 9.89647 15.3994 10.5462 16.084C10.3302 17.1453 9.81855 18.4373 9.07065 19.3333C8.5536 19.9533 7.95825 20.3693 7.38315 20.5413C6.80805 20.7147 6.2127 20.724 5.35815 20.292C3.7179 18.4213 2.7 16.0107 2.7 13.3333C2.7 9.66133 4.58325 6.45867 7.425 4.54133ZM13.5 12C14.26 12 14.85 12.584 14.85 13.3333C14.85 14.084 14.2587 14.6667 13.5 14.6667C12.74 14.6667 12.15 14.0827 12.15 13.3333C12.15 12.5827 12.7413 12 13.5 12ZM19.8288 14.084C20.2608 14.068 20.6982 14.0987 21.0938 14.1667C21.8848 14.3027 22.5491 14.588 22.9918 15C23.409 15.3907 23.6831 15.8907 23.7519 16.7507C23.0261 18.8666 21.6464 20.7043 19.8072 22.0048C17.968 23.3053 15.762 24.0032 13.5 24C11.7855 24 10.1669 23.6133 8.73315 22.916C9.6984 22.5 10.499 21.8067 11.1375 21.0413C12.0458 19.9412 12.7074 18.6633 13.0788 17.292C13.2205 17.3067 13.3528 17.3333 13.5 17.3333C15.2726 17.3333 16.7535 16.1613 17.2976 14.5827C17.9982 14.3173 18.9162 14.1147 19.8288 14.084ZM12.15 28V29.3333H4.05V32H22.95V29.3333H14.85V28H12.15Z" fill="white"/>
</g>
</svg>
