<svg width="36" height="33" fill="none" xmlns="http://www.w3.org/2000/svg"><g opacity=".5" stroke="#fff" stroke-linecap="round"><path d="M2 24.666c0-.961.213-1.916.777-2.694C4.436 19.68 8.937 15 18 15c9.064 0 13.564 4.68 15.223 6.972.564.778.777 1.733.777 2.694A6.333 6.333 0 0127.666 31H8.334A6.334 6.334 0 012 24.666z" stroke-width="3" stroke-linejoin="round"/><path d="M8 4v3m2 10v3M27 4v3m-1 10v3M18 2v5m0 8v7" stroke-width="4"/><path d="M30 19c-2.417-2.446-6.4-5-12.5-5S7.417 16.553 5 19" stroke-width="3"/></g></svg>