<svg width="35" height="32" fill="none" xmlns="http://www.w3.org/2000/svg"><path d="M33.4 28.923V16.615c0-.816-.337-1.598-.937-2.175a3.266 3.266 0 00-2.263-.901h-8V12H19v9.23h3.2v-1.538H27v9.231h-1.6V32H35v-3.077h-1.6zm-2.6 0h-1.2v-11.77h-7.4v-1.076h7c.424 0 .831.162 1.131.45.3.289.469.68.469 1.088v11.308zM13.6 10.77v1.538H8.5V3.077h1.7V0H0v3.077h1.7v12.308c0 .816.358 1.598.996 2.175.637.577 1.502.902 2.404.902h8.5V20H17v-9.23h-3.4zm0 5.153H6.1c-.45 0-.883-.162-1.202-.45a1.468 1.468 0 01-.498-1.088V3.077h1.4v11.77h7.8v1.076z" opacity=".5" fill="#fff"/></svg>