<svg width="35" height="32" viewBox="0 0 35 32" fill="none" xmlns="http://www.w3.org/2000/svg">
<path opacity="0.5" d="M29.6191 4.57143L26.0069 8.24381V8.5181L29.6191 12.1905H35V15.2381H28.39L26.0069 12.8152V16.7619H24.508C23.713 16.7619 22.9505 16.4408 22.3883 15.8693C21.8261 15.2977 21.5103 14.5226 21.5103 13.7143V9.90476H11.8039C11.669 10.4686 11.4441 11.0019 11.1444 11.5048L19.7778 27.4286H27.0023C27.7973 27.4286 28.5598 27.7497 29.122 28.3212C29.6842 28.8927 30 29.6679 30 30.4762V32H0.02285V30.4762C0.02285 29.6679 0.33868 28.8927 0.90086 28.3212C1.46304 27.7497 2.22552 27.4286 3.02057 27.4286H12.928L5.89837 14.4762C4.58584 14.4536 3.31675 13.9944 2.28538 13.1687C1.25401 12.3431 0.517191 11.1966 0.187724 9.90476C-0.00802299 9.12832 -0.0512118 8.32024 0.06063 7.5268C0.172472 6.73337 0.437148 5.97014 0.839505 5.28084C1.24186 4.59153 1.774 3.98967 2.40545 3.50972C3.0369 3.02976 3.75527 2.68114 4.51942 2.48381C7.71199 1.64571 10.9795 3.59619 11.8039 6.85714H21.5103V3.04762C21.5103 2.23934 21.8261 1.46417 22.3883 0.892627C22.9505 0.321088 23.713 0 24.508 0H26.0069V3.94667L28.39 1.52381H35V4.57143H29.6191ZM6.01828 5.33333C5.22324 5.33333 4.46076 5.65442 3.89858 6.22596C3.33639 6.7975 3.02057 7.57267 3.02057 8.38095C3.02057 9.18923 3.33639 9.96441 3.89858 10.5359C4.46076 11.1075 5.22324 11.4286 6.01828 11.4286C6.81332 11.4286 7.5758 11.1075 8.13799 10.5359C8.70017 9.96441 9.016 9.18923 9.016 8.38095C9.016 7.57267 8.70017 6.7975 8.13799 6.22596C7.5758 5.65442 6.81332 5.33333 6.01828 5.33333Z" fill="white"/>
</svg>
