<svg width="34" height="33" fill="none" xmlns="http://www.w3.org/2000/svg"><g opacity=".5" fill="#fff"><path d="M0 4a4 4 0 014-4h24a4 4 0 014 4v6.292c-.603-.54-2.276-1.996-3-2.356V5a2 2 0 00-2-2H5a2 2 0 00-2 2v23a2 2 0 002 2h13.516c.152.226.314 1.446.484 1.658V33H4a4 4 0 01-4-4V4z"/><path d="M33 17.666a7.73 7.73 0 01-2.143 5.367v8.872c0 .203-.055.402-.16.575a1.08 1.08 0 01-.432.404 1.053 1.053 0 01-1.122-.103l-3-2.3a1.056 1.056 0 00-1.286 0l-3 2.3a1.057 1.057 0 01-1.554-.3 1.113 1.113 0 01-.16-.576v-8.872a7.715 7.715 0 01-1.84-3.206 7.833 7.833 0 01-.148-3.713 7.74 7.74 0 011.578-3.348 7.51 7.51 0 012.932-2.197 7.35 7.35 0 017.017.733 7.612 7.612 0 012.436 2.759A7.804 7.804 0 0133 17.666zm-7.5 7.667c-1.15 0-2.24-.263-3.214-.738v4.572l2.663-1.635a1.054 1.054 0 011.102 0l2.663 1.634v-4.571a7.335 7.335 0 01-3.214.738zm0-2.19c1.42 0 2.783-.578 3.788-1.605a5.54 5.54 0 001.57-3.872 5.54 5.54 0 00-1.57-3.873A5.298 5.298 0 0025.5 12.19c-1.42 0-2.783.576-3.788 1.604a5.54 5.54 0 00-1.57 3.872 5.54 5.54 0 001.57 3.872 5.299 5.299 0 003.788 1.604zM6 7a1 1 0 011-1h18a1 1 0 110 2H7a1 1 0 01-1-1zm1 9a1 1 0 000 2h8a1 1 0 000-2H7zm0 5a1 1 0 000 2h8a1 1 0 000-2H7zm0-10a1 1 0 000 2h8a1 1 0 000-2H7z"/></g></svg>20.3029 32.4805C20.1983 32.3075 20.1429 32.1081 20.1429 31.9047V23.0328C19.282 22.1346 18.6504 21.0337 18.3038 19.8272C17.9573 18.6206 17.9063 17.3455 18.1555 16.114C18.4046 14.8826 18.9463 13.7327 19.7326 12.7657C20.519 11.7987 21.5259 11.0443 22.6648 10.569C23.8036 10.0936 25.0393 9.91185 26.263 10.0398C27.4867 10.1677 28.6609 10.6014 29.682 11.3025C30.7031 12.0037 31.5398 12.9509 32.1185 14.0606C32.6971 15.1703 32.9998 16.4084 33 17.6659ZM25.5 25.333C24.3493 25.333 23.2607 25.0701 22.2857 24.5947V29.1665L24.9493 27.5323C25.1157 27.4304 25.306 27.3765 25.5 27.3765C25.694 27.3765 25.8843 27.4304 26.0507 27.5323L28.7143 29.1665V24.5947C27.7099 25.0823 26.6118 25.3345 25.5 25.333ZM25.5 23.1424C26.9208 23.1424 28.2834 22.5654 29.2881 21.5384C30.2927 20.5113 30.8571 19.1184 30.8571 17.6659C30.8571 16.2135 30.2927 14.8205 29.2881 13.7935C28.2834 12.7664 26.9208 12.1895 25.5 12.1895C24.0792 12.1895 22.7166 12.7664 21.7119 13.7935C20.7073 14.8205 20.1429 16.2135 20.1429 17.6659C20.1429 19.1184 20.7073 20.5113 21.7119 21.5384C22.7166 22.5654 24.0792 23.1424 25.5 23.1424Z" fill="white"/>
<path d="M6 7C6 6.73478 6.10536 6.48043 6.29289 6.29289C6.48043 6.10536 6.73478 6 7 6H25C25.2652 6 25.5196 6.10536 25.7071 6.29289C25.8946 6.48043 26 6.73478 26 7C26 7.26522 25.8946 7.51957 25.7071 7.70711C25.5196 7.89464 25.2652 8 25 8H7C6.73478 8 6.48043 7.89464 6.29289 7.70711C6.10536 7.51957 6 7.26522 6 7Z" fill="white"/>
<path d="M7 16C6.73478 16 6.48043 16.1054 6.29289 16.2929C6.10536 16.4804 6 16.7348 6 17C6 17.2652 6.10536 17.5196 6.29289 17.7071C6.48043 17.8946 6.73478 18 7 18H15C15.2652 18 15.5196 17.8946 15.7071 17.7071C15.8946 17.5196 16 17.2652 16 17C16 16.7348 15.8946 16.4804 15.7071 16.2929C15.5196 16.1054 15.2652 16 15 16H7Z" fill="white"/>
<path d="M7 21C6.73478 21 6.48043 21.1054 6.29289 21.2929C6.10536 21.4804 6 21.7348 6 22C6 22.2652 6.10536 22.5196 6.29289 22.7071C6.48043 22.8946 6.73478 23 7 23H15C15.2652 23 15.5196 22.8946 15.7071 22.7071C15.8946 22.5196 16 22.2652 16 22C16 21.7348 15.8946 21.4804 15.7071 21.2929C15.5196 21.1054 15.2652 21 15 21H7Z" fill="white"/>
<path d="M7 11C6.73478 11 6.48043 11.1054 6.29289 11.2929C6.10536 11.4804 6 11.7348 6 12C6 12.2652 6.10536 12.5196 6.29289 12.7071C6.48043 12.8946 6.73478 13 7 13H15C15.2652 13 15.5196 12.8946 15.7071 12.7071C15.8946 12.5196 16 12.2652 16 12C16 11.7348 15.8946 11.4804 15.7071 11.2929C15.5196 11.1054 15.2652 11 15 11H7Z" fill="white"/>
</g>
</svg>
