<svg width="78" height="89" viewBox="0 0 78 89" fill="none" xmlns="http://www.w3.org/2000/svg">
<path fill-rule="evenodd" clip-rule="evenodd" d="M39 89C17.461 89 0 71.539 0 50C0 36.082 7.296 23.875 18.266 16.974C18.299 17.102 18.316 17.236 18.355 17.362C18.858 17.134 19.412 17 20 17C22.209 17 24 18.791 24 21C24 21.588 23.866 22.142 23.638 22.645C23.813 22.699 23.998 22.726 24.177 22.768C14.539 28.025 8 38.249 8 50C8 67.121 21.879 81 39 81C56.121 81 70 67.121 70 50C70 38.249 63.461 28.025 53.823 22.768C54.002 22.726 54.187 22.699 54.362 22.645C54.134 22.142 54 21.588 54 21C54 18.791 55.791 17 58 17C58.588 17 59.142 17.134 59.645 17.362C59.684 17.236 59.701 17.102 59.734 16.974C70.704 23.875 78 36.082 78 50C78 71.539 60.539 89 39 89ZM39 32C36.791 32 35 30.209 35 28V4C35 1.791 36.791 0 39 0C41.209 0 43 1.791 43 4V28C43 30.209 41.209 32 39 32Z" fill="#49484F"/>
</svg>
