<svg width="20" height="12" xmlns="http://www.w3.org/2000/svg"><path d="M18.535 1.398c-.07.352-.351.926-.844 1.723-.468.797-.902 1.5-1.3 2.11-.399.585-.61.89-.633.914-.14.21-.211.363-.211.457 0 .093.07.257.21.492l.458.492c.328.328.668.68 1.02 1.055.35.375.69.796 1.019 1.265.351.446.574.809.668 1.09.164.586-.07.879-.703.879h-2.075c-.187 0-.374-.047-.562-.14a1.984 1.984 0 01-.422-.317c-.117-.14-.328-.375-.633-.703-.28-.328-.55-.621-.808-.88-.938-.89-1.63-1.335-2.074-1.335-.282 0-.446.082-.493.246-.046.164-.07.633-.07 1.406.023.375.035.68.035.914 0 .282-.094.493-.281.633-.188.117-.598.176-1.23.176-1.102 0-2.215-.328-3.34-.984-1.125-.657-2.11-1.594-2.954-2.813a23.07 23.07 0 01-2.003-3.2C.793 3.802.453 2.98.289 2.419.125 1.855.043 1.457.043 1.223c0-.399.234-.598.703-.598H2.82c.258 0 .446.059.563.176.14.117.258.328.351.633.493 1.43 1.09 2.707 1.793 3.832.727 1.125 1.278 1.687 1.653 1.687.14 0 .234-.047.28-.14.071-.118.106-.329.106-.633V3.12c-.046-.539-.199-.984-.457-1.336-.257-.351-.386-.574-.386-.668 0-.14.047-.258.14-.351a.605.605 0 01.387-.14h3.27c.375 0 .562.258.562.773v4.079c0 .398.105.597.316.597.235 0 .563-.21.985-.633.445-.492.879-1.09 1.3-1.793.422-.703.739-1.289.95-1.757l.316-.668c.164-.399.457-.598.88-.598h2.073c.563 0 .774.258.633.773z"/></svg>